G04 Layer: TopLayer*
G04 EasyEDA v6.5.44, 2024-07-31 14:11:33*
G04 0a0e6e5985404cbc94c0c78cb0e903e1,401f954c81374b6587e5d63e119e93f9,10*
G04 Gerber Generator version 0.2*
G04 Scale: 100 percent, Rotated: No, Reflected: No *
G04 Dimensions in inches *
G04 leading zeros omitted , absolute positions ,3 integer and 6 decimal *
%FSLAX36Y36*%
%MOIN*%

%AMMACRO1*21,1,$1,$2,0,0,$3*%
%ADD10C,0.0236*%
%ADD11C,0.0158*%
%ADD12C,0.0394*%
%ADD13C,0.0276*%
%ADD14C,0.0200*%
%ADD15C,0.0300*%
%ADD16MACRO1,0.034X0.0318X90.0000*%
%ADD17MACRO1,0.0542X0.0446X-90.0000*%
%ADD18R,0.0143X0.0167*%
%ADD19MACRO1,0.034X0.0318X-90.0000*%
%ADD20R,0.0984X0.0433*%
%ADD21MACRO1,0.1417X0.0921X90.0000*%
%ADD22R,0.0315X0.0394*%
%ADD23R,0.0236X0.0421*%
%ADD24R,0.0354X0.0315*%
%ADD25C,0.0984*%
%ADD26C,0.0906*%
%ADD27C,0.0250*%
%ADD28C,0.0240*%
%ADD29C,0.0127*%

%LPD*%
G36*
X50180Y10200D02*
G01*
X44960Y10560D01*
X40240Y11439D01*
X35680Y12900D01*
X31300Y14900D01*
X27220Y17400D01*
X23440Y20400D01*
X20080Y23800D01*
X17140Y27599D01*
X14680Y31740D01*
X12740Y36120D01*
X11339Y40720D01*
X10500Y45439D01*
X10200Y50420D01*
X10200Y1199580D01*
X10560Y1205040D01*
X11439Y1209760D01*
X12900Y1214320D01*
X14900Y1218700D01*
X17400Y1222780D01*
X20400Y1226560D01*
X23800Y1229920D01*
X27599Y1232860D01*
X31740Y1235320D01*
X36120Y1237260D01*
X40720Y1238660D01*
X45439Y1239500D01*
X50420Y1239800D01*
X1949580Y1239800D01*
X1955040Y1239440D01*
X1959760Y1238560D01*
X1964319Y1237100D01*
X1968700Y1235100D01*
X1972780Y1232600D01*
X1976560Y1229600D01*
X1979920Y1226200D01*
X1982860Y1222400D01*
X1985320Y1218260D01*
X1987260Y1213880D01*
X1988660Y1209280D01*
X1989500Y1204560D01*
X1989800Y1199580D01*
X1989800Y50420D01*
X1989440Y44960D01*
X1988560Y40240D01*
X1987100Y35680D01*
X1985100Y31300D01*
X1982600Y27220D01*
X1979600Y23440D01*
X1976200Y20080D01*
X1972400Y17140D01*
X1968260Y14680D01*
X1963880Y12740D01*
X1959280Y11339D01*
X1954560Y10500D01*
X1949580Y10200D01*
G37*

%LPC*%
G36*
X1850400Y48860D02*
G01*
X1857180Y49200D01*
X1863899Y50199D01*
X1870500Y51840D01*
X1876900Y54140D01*
X1883040Y57040D01*
X1888860Y60540D01*
X1894319Y64580D01*
X1899360Y69140D01*
X1903920Y74180D01*
X1907960Y79640D01*
X1911459Y85460D01*
X1914360Y91600D01*
X1916660Y98000D01*
X1918300Y104600D01*
X1919300Y111320D01*
X1919640Y118100D01*
X1919300Y124900D01*
X1918300Y131620D01*
X1916660Y138220D01*
X1914360Y144620D01*
X1911459Y150760D01*
X1907960Y156580D01*
X1903920Y162040D01*
X1899360Y167079D01*
X1894319Y171640D01*
X1888860Y175680D01*
X1883040Y179180D01*
X1876900Y182079D01*
X1870500Y184380D01*
X1863899Y186020D01*
X1857180Y187020D01*
X1850400Y187360D01*
X1843600Y187020D01*
X1836879Y186020D01*
X1830280Y184380D01*
X1823880Y182079D01*
X1817740Y179180D01*
X1811920Y175680D01*
X1806459Y171640D01*
X1801420Y167079D01*
X1796860Y162040D01*
X1792820Y156580D01*
X1789319Y150760D01*
X1786420Y144620D01*
X1784120Y138220D01*
X1782480Y131620D01*
X1781480Y124900D01*
X1781140Y118100D01*
X1781480Y111320D01*
X1782480Y104600D01*
X1784120Y98000D01*
X1786420Y91600D01*
X1789319Y85460D01*
X1792820Y79640D01*
X1796860Y74180D01*
X1801420Y69140D01*
X1806459Y64580D01*
X1811920Y60540D01*
X1817740Y57040D01*
X1823880Y54140D01*
X1830280Y51840D01*
X1836879Y50199D01*
X1843600Y49200D01*
G37*
G36*
X118120Y48860D02*
G01*
X124900Y49200D01*
X131620Y50199D01*
X138220Y51840D01*
X144620Y54140D01*
X150760Y57040D01*
X156580Y60540D01*
X162040Y64580D01*
X167079Y69140D01*
X171640Y74180D01*
X175680Y79640D01*
X179180Y85460D01*
X182079Y91600D01*
X184380Y98000D01*
X186020Y104600D01*
X187020Y111320D01*
X187360Y118100D01*
X187020Y124900D01*
X186020Y131620D01*
X184380Y138220D01*
X182079Y144620D01*
X179180Y150760D01*
X175680Y156580D01*
X171640Y162040D01*
X167079Y167079D01*
X162040Y171640D01*
X156580Y175680D01*
X150760Y179180D01*
X144620Y182079D01*
X138220Y184380D01*
X131620Y186020D01*
X124900Y187020D01*
X118120Y187360D01*
X111320Y187020D01*
X104600Y186020D01*
X98000Y184380D01*
X91600Y182079D01*
X85460Y179180D01*
X79640Y175680D01*
X74180Y171640D01*
X69140Y167079D01*
X64580Y162040D01*
X60540Y156580D01*
X57040Y150760D01*
X54140Y144620D01*
X51840Y138220D01*
X50199Y131620D01*
X49200Y124900D01*
X48860Y118100D01*
X49200Y111320D01*
X50199Y104600D01*
X51840Y98000D01*
X54140Y91600D01*
X57040Y85460D01*
X60540Y79640D01*
X64580Y74180D01*
X69140Y69140D01*
X74180Y64580D01*
X79640Y60540D01*
X85460Y57040D01*
X91600Y54140D01*
X98000Y51840D01*
X104600Y50199D01*
X111320Y49200D01*
G37*
G36*
X1245420Y89740D02*
G01*
X1245420Y115420D01*
X1219740Y115420D01*
X1222220Y110920D01*
X1226080Y105480D01*
X1230520Y100520D01*
X1235480Y96080D01*
X1240920Y92220D01*
G37*
G36*
X1560380Y89740D02*
G01*
X1560380Y115420D01*
X1534700Y115420D01*
X1537180Y110920D01*
X1541040Y105480D01*
X1545480Y100520D01*
X1550440Y96080D01*
X1555880Y92220D01*
G37*
G36*
X1299620Y89740D02*
G01*
X1304120Y92220D01*
X1309560Y96080D01*
X1314520Y100520D01*
X1318959Y105480D01*
X1322820Y110920D01*
X1325300Y115420D01*
X1299620Y115420D01*
G37*
G36*
X1614580Y89740D02*
G01*
X1619079Y92220D01*
X1624520Y96080D01*
X1629480Y100520D01*
X1633920Y105480D01*
X1637780Y110920D01*
X1640260Y115420D01*
X1614580Y115420D01*
G37*
G36*
X693700Y115780D02*
G01*
X1007080Y115780D01*
X1009460Y116039D01*
X1011620Y116800D01*
X1013540Y118000D01*
X1014539Y118900D01*
X1103080Y208600D01*
X1104400Y209500D01*
X1105940Y209800D01*
X1509820Y209800D01*
X1511860Y210000D01*
X1514060Y210680D01*
X1516240Y211920D01*
X1533440Y224620D01*
X1535280Y226320D01*
X1536560Y228200D01*
X1537380Y230280D01*
X1537760Y233220D01*
X1537760Y369280D01*
X1537500Y371680D01*
X1536740Y373820D01*
X1535540Y375760D01*
X1534700Y376700D01*
X1528680Y382720D01*
X1526980Y384099D01*
X1524920Y385160D01*
X1522500Y385780D01*
X1491540Y390080D01*
X1489860Y390200D01*
X1090060Y390200D01*
X1087120Y389760D01*
X1085020Y388880D01*
X1082980Y387400D01*
X908920Y229720D01*
X906240Y227079D01*
X904940Y226220D01*
X903400Y225920D01*
X901880Y226220D01*
X900580Y227100D01*
X899720Y228380D01*
X899419Y229920D01*
X899419Y235500D01*
X899760Y237100D01*
X901220Y240440D01*
X902240Y244480D01*
X902600Y248780D01*
X902620Y315800D01*
X902099Y319980D01*
X900900Y323960D01*
X899080Y327700D01*
X896660Y331079D01*
X893720Y334020D01*
X890340Y336440D01*
X886600Y338280D01*
X882600Y339460D01*
X878480Y339980D01*
X874320Y339799D01*
X870260Y338940D01*
X866380Y337440D01*
X862800Y335300D01*
X859599Y332600D01*
X857460Y330180D01*
X856940Y329480D01*
X854800Y325920D01*
X853540Y322879D01*
X853280Y322040D01*
X852400Y317960D01*
X852200Y314640D01*
X852200Y248780D01*
X852560Y244480D01*
X853580Y240440D01*
X855060Y237060D01*
X855400Y235460D01*
X855400Y227780D01*
X855300Y225580D01*
X854460Y224120D01*
X853120Y223140D01*
X851480Y222800D01*
X828520Y222800D01*
X826900Y223140D01*
X825540Y224120D01*
X824720Y225580D01*
X824620Y227780D01*
X824620Y269460D01*
X824340Y271940D01*
X823580Y274100D01*
X822360Y276020D01*
X821840Y276540D01*
X820980Y277840D01*
X820680Y279380D01*
X820680Y301840D01*
X820360Y305160D01*
X819760Y307280D01*
X819599Y308260D01*
X819539Y310400D01*
X819260Y312960D01*
X818500Y315100D01*
X817280Y317040D01*
X815680Y318640D01*
X813740Y319860D01*
X811600Y320620D01*
X809100Y320900D01*
X798900Y320900D01*
X797360Y321200D01*
X796060Y322080D01*
X795200Y323400D01*
X794900Y324940D01*
X794980Y332280D01*
X796460Y337700D01*
X796780Y341380D01*
X796780Y357520D01*
X797080Y359040D01*
X797940Y360340D01*
X799240Y361220D01*
X800780Y361520D01*
X809100Y361520D01*
X811600Y361800D01*
X813740Y362540D01*
X815680Y363760D01*
X817280Y365379D01*
X818500Y367299D01*
X819260Y369460D01*
X819539Y371940D01*
X819539Y374860D01*
X819920Y376760D01*
X820240Y380260D01*
X820240Y403260D01*
X820540Y404780D01*
X821400Y406079D01*
X826340Y411019D01*
X827620Y411880D01*
X829140Y412180D01*
X830660Y411900D01*
X831940Y411380D01*
X835699Y410560D01*
X839539Y410400D01*
X843360Y410900D01*
X847039Y412020D01*
X850480Y413760D01*
X853560Y416040D01*
X856240Y418820D01*
X858379Y422000D01*
X859960Y425520D01*
X860939Y429240D01*
X861260Y433060D01*
X860939Y436900D01*
X859960Y440620D01*
X858379Y444140D01*
X856240Y447320D01*
X853560Y450100D01*
X850480Y452380D01*
X847039Y454120D01*
X843360Y455240D01*
X839539Y455740D01*
X835699Y455580D01*
X831940Y454760D01*
X828360Y453320D01*
X825780Y451740D01*
X824800Y451300D01*
X823740Y451140D01*
X822120Y451120D01*
X818700Y450640D01*
X815540Y449580D01*
X812620Y447960D01*
X809920Y445720D01*
X788900Y424680D01*
X786800Y421900D01*
X785320Y418920D01*
X784400Y415720D01*
X784080Y412220D01*
X784080Y403980D01*
X783740Y402360D01*
X782780Y401019D01*
X781380Y400180D01*
X779740Y399980D01*
X776400Y400280D01*
X768080Y400280D01*
X766540Y400580D01*
X765240Y401460D01*
X748960Y417740D01*
X746480Y419940D01*
X742980Y422200D01*
X742200Y422600D01*
X739160Y423860D01*
X738319Y424120D01*
X734260Y425000D01*
X730939Y425200D01*
X715639Y425200D01*
X714200Y425460D01*
X712960Y426220D01*
X712080Y427360D01*
X711580Y429380D01*
X710840Y431520D01*
X709620Y433459D01*
X708000Y435060D01*
X706080Y436280D01*
X703940Y437020D01*
X701440Y437299D01*
X700520Y437299D01*
X698820Y437680D01*
X697440Y438740D01*
X696640Y439680D01*
X622140Y514200D01*
X620660Y515540D01*
X619140Y516719D01*
X617520Y517740D01*
X615820Y518640D01*
X614040Y519360D01*
X612220Y519940D01*
X610340Y520360D01*
X608440Y520620D01*
X606440Y520700D01*
X445860Y520700D01*
X444340Y521000D01*
X443040Y521880D01*
X442180Y523160D01*
X441860Y524700D01*
X441860Y526880D01*
X441580Y529380D01*
X440840Y531520D01*
X439620Y533460D01*
X438000Y535060D01*
X436079Y536280D01*
X433940Y537020D01*
X431440Y537300D01*
X387299Y537300D01*
X384820Y537020D01*
X382660Y536280D01*
X380740Y535060D01*
X379120Y533460D01*
X377920Y531520D01*
X377160Y529380D01*
X376880Y526880D01*
X376880Y473120D01*
X377160Y470620D01*
X377920Y468480D01*
X379120Y466540D01*
X380740Y464940D01*
X382660Y463720D01*
X384820Y462980D01*
X387299Y462700D01*
X431440Y462700D01*
X433940Y462980D01*
X436079Y463720D01*
X438000Y464940D01*
X439620Y466540D01*
X440840Y468480D01*
X441580Y470620D01*
X441860Y473120D01*
X442280Y474520D01*
X443180Y475660D01*
X444420Y476420D01*
X445840Y476680D01*
X595740Y476680D01*
X597280Y476380D01*
X598580Y475500D01*
X631060Y443020D01*
X631900Y441760D01*
X632220Y440260D01*
X631960Y438760D01*
X631140Y437460D01*
X629900Y436560D01*
X628420Y436200D01*
X626900Y436420D01*
X625180Y437020D01*
X622700Y437299D01*
X578560Y437299D01*
X576060Y437020D01*
X573920Y436280D01*
X572000Y435060D01*
X570380Y433459D01*
X569160Y431520D01*
X568420Y429380D01*
X568140Y426880D01*
X568140Y411420D01*
X567820Y409900D01*
X566960Y408600D01*
X550600Y392239D01*
X549300Y391380D01*
X547780Y391060D01*
X461120Y391060D01*
X458640Y390780D01*
X456500Y390040D01*
X454560Y388820D01*
X452960Y387200D01*
X451740Y385280D01*
X450980Y383140D01*
X450700Y380640D01*
X450700Y343880D01*
X450400Y342360D01*
X449540Y341060D01*
X448240Y340180D01*
X446700Y339880D01*
X329380Y339880D01*
X328280Y340040D01*
X326740Y340820D01*
X324580Y341580D01*
X322100Y341860D01*
X249160Y341860D01*
X248120Y341980D01*
X245340Y342740D01*
X240900Y343240D01*
X236439Y343060D01*
X230280Y341860D01*
X224120Y341860D01*
X221640Y341580D01*
X219480Y340820D01*
X217560Y339600D01*
X215940Y338000D01*
X214740Y336060D01*
X213980Y333920D01*
X213700Y331420D01*
X213700Y328760D01*
X213580Y327800D01*
X213240Y326880D01*
X212399Y325319D01*
X210940Y321120D01*
X210100Y316720D01*
X209940Y312260D01*
X210440Y307820D01*
X211600Y303520D01*
X213359Y299460D01*
X213700Y297860D01*
X213700Y288580D01*
X213980Y286080D01*
X214740Y283940D01*
X215940Y282000D01*
X217560Y280400D01*
X219480Y279180D01*
X221640Y278420D01*
X224120Y278140D01*
X322100Y278140D01*
X324580Y278420D01*
X326740Y279180D01*
X328280Y279960D01*
X329380Y280120D01*
X446700Y280120D01*
X448240Y279820D01*
X449540Y278940D01*
X450400Y277640D01*
X450700Y276120D01*
X450700Y239360D01*
X450980Y236860D01*
X451740Y234720D01*
X452960Y232800D01*
X454560Y231180D01*
X456500Y229960D01*
X458640Y229220D01*
X461120Y228939D01*
X552800Y228939D01*
X555300Y229220D01*
X557440Y229960D01*
X559380Y231180D01*
X560980Y232800D01*
X562200Y234720D01*
X562960Y236860D01*
X563240Y239360D01*
X563240Y318680D01*
X563540Y320220D01*
X564400Y321500D01*
X604420Y361520D01*
X605720Y362380D01*
X607240Y362700D01*
X622700Y362700D01*
X625180Y362980D01*
X627340Y363720D01*
X629260Y364940D01*
X630880Y366540D01*
X632080Y368480D01*
X632840Y370620D01*
X633120Y373120D01*
X633120Y383420D01*
X633220Y384320D01*
X634260Y388860D01*
X634600Y393440D01*
X634580Y396980D01*
X634260Y400439D01*
X634100Y401400D01*
X633240Y404840D01*
X633120Y405800D01*
X633120Y426880D01*
X632840Y429380D01*
X632240Y431079D01*
X632020Y432600D01*
X632380Y434080D01*
X633280Y435319D01*
X634580Y436140D01*
X636080Y436420D01*
X637580Y436100D01*
X638840Y435240D01*
X645699Y428380D01*
X646580Y427080D01*
X646880Y425540D01*
X646880Y373120D01*
X647159Y370620D01*
X647920Y368480D01*
X649120Y366540D01*
X650740Y364940D01*
X652660Y363720D01*
X654820Y362980D01*
X657300Y362700D01*
X701440Y362700D01*
X703940Y362980D01*
X706080Y363720D01*
X708000Y364940D01*
X709620Y366540D01*
X710840Y368480D01*
X711580Y370620D01*
X712080Y372640D01*
X712960Y373780D01*
X714200Y374540D01*
X715639Y374799D01*
X718960Y374799D01*
X720500Y374500D01*
X721800Y373620D01*
X733040Y362380D01*
X736340Y359580D01*
X739920Y357460D01*
X743800Y355940D01*
X747860Y355080D01*
X752520Y354920D01*
X754000Y354580D01*
X755260Y353700D01*
X756080Y352420D01*
X756380Y350920D01*
X756380Y341380D01*
X756700Y337700D01*
X757600Y334300D01*
X758439Y332500D01*
X758820Y330760D01*
X758760Y326140D01*
X758420Y324560D01*
X757460Y323220D01*
X756040Y322400D01*
X754419Y322200D01*
X750780Y322520D01*
X688740Y322420D01*
X687820Y322520D01*
X686140Y323240D01*
X682460Y324380D01*
X678640Y324860D01*
X674800Y324700D01*
X671040Y323880D01*
X667540Y322480D01*
X666120Y322200D01*
X644720Y321800D01*
X643760Y321900D01*
X642400Y322460D01*
X638720Y323579D01*
X634900Y324080D01*
X631060Y323920D01*
X627300Y323100D01*
X623740Y321659D01*
X620460Y319640D01*
X617560Y317100D01*
X615160Y314120D01*
X613280Y310760D01*
X612000Y307120D01*
X611340Y303340D01*
X611340Y299480D01*
X612000Y295700D01*
X613280Y292060D01*
X615160Y288700D01*
X617560Y285720D01*
X620460Y283180D01*
X623740Y281160D01*
X627300Y279720D01*
X631060Y278900D01*
X634900Y278740D01*
X638720Y279240D01*
X642400Y280360D01*
X644479Y281300D01*
X645380Y281420D01*
X666960Y281800D01*
X668540Y281520D01*
X671040Y280500D01*
X674800Y279700D01*
X678640Y279540D01*
X682460Y280020D01*
X686140Y281140D01*
X687880Y281900D01*
X688800Y282020D01*
X750840Y282120D01*
X754520Y282440D01*
X757920Y283360D01*
X759680Y283960D01*
X760420Y284040D01*
X762460Y284760D01*
X763780Y284980D01*
X765100Y284760D01*
X767140Y284040D01*
X769640Y283760D01*
X780520Y283760D01*
X782060Y283460D01*
X783360Y282580D01*
X784220Y281300D01*
X784520Y279360D01*
X784220Y277840D01*
X783360Y276540D01*
X782840Y276020D01*
X781620Y274100D01*
X780879Y271940D01*
X780600Y269460D01*
X780600Y227780D01*
X780480Y225580D01*
X779659Y224120D01*
X778319Y223140D01*
X776680Y222800D01*
X693700Y222800D01*
X691320Y222540D01*
X689160Y221780D01*
X687240Y220560D01*
X686300Y219740D01*
X666100Y199540D01*
X664599Y197659D01*
X663600Y195620D01*
X663100Y193380D01*
X663020Y192140D01*
X663020Y146460D01*
X663280Y144080D01*
X664040Y141920D01*
X665260Y140000D01*
X666100Y139060D01*
X686300Y118859D01*
X688160Y117360D01*
X690220Y116359D01*
X692440Y115860D01*
G37*
G36*
X1534700Y169620D02*
G01*
X1560380Y169620D01*
X1560380Y195300D01*
X1555880Y192820D01*
X1550440Y188960D01*
X1545480Y184520D01*
X1541040Y179560D01*
X1537180Y174120D01*
G37*
G36*
X1299620Y169620D02*
G01*
X1325300Y169620D01*
X1322820Y174120D01*
X1318959Y179560D01*
X1314520Y184520D01*
X1309560Y188960D01*
X1304120Y192820D01*
X1299620Y195300D01*
G37*
G36*
X1219740Y169620D02*
G01*
X1245420Y169620D01*
X1245420Y195300D01*
X1240920Y192820D01*
X1235480Y188960D01*
X1230520Y184520D01*
X1226080Y179560D01*
X1222220Y174120D01*
G37*
G36*
X1614580Y169620D02*
G01*
X1640260Y169620D01*
X1637780Y174120D01*
X1633920Y179560D01*
X1629480Y184520D01*
X1624520Y188960D01*
X1619079Y192820D01*
X1614580Y195300D01*
G37*
G36*
X224120Y187600D02*
G01*
X246000Y187600D01*
X246000Y206119D01*
X213700Y206119D01*
X213700Y198020D01*
X213980Y195539D01*
X214740Y193380D01*
X215940Y191460D01*
X217560Y189840D01*
X219480Y188619D01*
X221640Y187880D01*
G37*
G36*
X300220Y187600D02*
G01*
X322100Y187600D01*
X324580Y187880D01*
X326740Y188619D01*
X328660Y189840D01*
X330280Y191460D01*
X331480Y193380D01*
X332239Y195539D01*
X332520Y198020D01*
X332520Y206119D01*
X300220Y206119D01*
G37*
G36*
X300220Y232780D02*
G01*
X332520Y232780D01*
X332520Y240880D01*
X332239Y243359D01*
X331480Y245520D01*
X330280Y247440D01*
X328660Y249060D01*
X326740Y250260D01*
X324580Y251020D01*
X322100Y251300D01*
X300220Y251300D01*
G37*
G36*
X213700Y232780D02*
G01*
X246000Y232780D01*
X246000Y251300D01*
X224120Y251300D01*
X221640Y251020D01*
X219480Y250260D01*
X217560Y249060D01*
X215940Y247440D01*
X214740Y245520D01*
X213980Y243359D01*
X213700Y240880D01*
G37*
G36*
X224120Y368700D02*
G01*
X322100Y368700D01*
X324580Y368980D01*
X326740Y369739D01*
X328660Y370940D01*
X330280Y372560D01*
X331480Y374480D01*
X332239Y376640D01*
X332520Y379120D01*
X332520Y421980D01*
X332239Y424460D01*
X331480Y426620D01*
X330280Y428540D01*
X328660Y430160D01*
X326740Y431380D01*
X324580Y432120D01*
X322100Y432400D01*
X309040Y432400D01*
X307500Y432700D01*
X306200Y433579D01*
X305340Y434880D01*
X305040Y436400D01*
X305340Y437939D01*
X306200Y439240D01*
X328500Y461520D01*
X329799Y462380D01*
X331320Y462700D01*
X352700Y462700D01*
X355180Y462980D01*
X357340Y463720D01*
X359260Y464940D01*
X360880Y466540D01*
X362080Y468480D01*
X362840Y470620D01*
X363120Y473120D01*
X363120Y526880D01*
X362840Y529380D01*
X362080Y531520D01*
X360880Y533460D01*
X359260Y535060D01*
X357340Y536280D01*
X355180Y537020D01*
X352700Y537300D01*
X308560Y537300D01*
X306060Y537020D01*
X303920Y536280D01*
X302000Y535060D01*
X300380Y533460D01*
X299160Y531520D01*
X298420Y529380D01*
X298140Y526880D01*
X298140Y495060D01*
X297820Y493540D01*
X296960Y492239D01*
X238299Y433579D01*
X237000Y432700D01*
X235479Y432400D01*
X224120Y432400D01*
X221640Y432120D01*
X219480Y431380D01*
X217560Y430160D01*
X215940Y428540D01*
X214740Y426620D01*
X213980Y424460D01*
X213700Y421980D01*
X213700Y379120D01*
X213980Y376640D01*
X214740Y374480D01*
X215940Y372560D01*
X217560Y370940D01*
X219480Y369739D01*
X221640Y368980D01*
G37*
G36*
X1614580Y404700D02*
G01*
X1619079Y407180D01*
X1624520Y411040D01*
X1629480Y415480D01*
X1633920Y420439D01*
X1637780Y425880D01*
X1640260Y430379D01*
X1614580Y430379D01*
G37*
G36*
X1560380Y404700D02*
G01*
X1560380Y430379D01*
X1534700Y430379D01*
X1537180Y425880D01*
X1541040Y420439D01*
X1545480Y415480D01*
X1550440Y411040D01*
X1555880Y407180D01*
G37*
G36*
X1245420Y404700D02*
G01*
X1245420Y430379D01*
X1219740Y430379D01*
X1222220Y425880D01*
X1226080Y420439D01*
X1230520Y415480D01*
X1235480Y411040D01*
X1240920Y407180D01*
G37*
G36*
X1299620Y404700D02*
G01*
X1304120Y407180D01*
X1309560Y411040D01*
X1314520Y415480D01*
X1318959Y420439D01*
X1322820Y425880D01*
X1325300Y430379D01*
X1299620Y430379D01*
G37*
G36*
X714220Y455180D02*
G01*
X718360Y455180D01*
X722480Y455880D01*
X726400Y457220D01*
X730060Y459200D01*
X733340Y461760D01*
X736160Y464820D01*
X738439Y468300D01*
X740120Y472120D01*
X741140Y476140D01*
X741500Y480460D01*
X741280Y484540D01*
X741160Y485420D01*
X740420Y488620D01*
X738900Y492500D01*
X736340Y496640D01*
X735740Y498220D01*
X735860Y499920D01*
X736680Y501420D01*
X738040Y502440D01*
X739700Y502800D01*
X765300Y502800D01*
X767800Y503080D01*
X769940Y503820D01*
X771880Y505040D01*
X773480Y506640D01*
X774700Y508579D01*
X775460Y510720D01*
X775720Y513200D01*
X776120Y514520D01*
X776940Y515620D01*
X778080Y516400D01*
X824599Y537100D01*
X827300Y538500D01*
X828120Y539020D01*
X830520Y540800D01*
X833300Y543620D01*
X833920Y544380D01*
X835600Y546840D01*
X836080Y547700D01*
X837660Y551320D01*
X838439Y554200D01*
X838620Y555160D01*
X838920Y558140D01*
X838940Y559120D01*
X838740Y562100D01*
X838100Y565120D01*
X837980Y566080D01*
X837980Y588440D01*
X838280Y589960D01*
X839160Y591260D01*
X839680Y591780D01*
X840879Y593720D01*
X841640Y595860D01*
X841919Y598360D01*
X841919Y629400D01*
X841640Y631880D01*
X840879Y634040D01*
X839680Y635960D01*
X838060Y637580D01*
X837320Y638040D01*
X836160Y639160D01*
X835540Y640620D01*
X835540Y642240D01*
X836160Y643700D01*
X837320Y644820D01*
X838060Y645280D01*
X839680Y646900D01*
X840879Y648820D01*
X841640Y650980D01*
X841919Y653460D01*
X841919Y658620D01*
X825360Y658620D01*
X825360Y643820D01*
X825060Y642300D01*
X824200Y641000D01*
X822900Y640120D01*
X821360Y639820D01*
X806640Y639820D01*
X805120Y640120D01*
X803820Y641000D01*
X802960Y642300D01*
X802640Y643820D01*
X802640Y658620D01*
X786080Y658620D01*
X786080Y653460D01*
X786360Y650980D01*
X787120Y648820D01*
X788340Y646900D01*
X789940Y645280D01*
X790680Y644820D01*
X791840Y643700D01*
X792480Y642240D01*
X792480Y640620D01*
X791840Y639160D01*
X790680Y638040D01*
X789940Y637580D01*
X788340Y635960D01*
X787120Y634040D01*
X786360Y631880D01*
X786080Y629400D01*
X786080Y598360D01*
X786360Y595860D01*
X787120Y593720D01*
X788340Y591780D01*
X788840Y591260D01*
X789720Y589980D01*
X790020Y588440D01*
X790020Y576800D01*
X789720Y575300D01*
X788900Y574020D01*
X787640Y573160D01*
X752600Y557560D01*
X750960Y557200D01*
X734000Y557200D01*
X731520Y556920D01*
X729360Y556180D01*
X727440Y554960D01*
X725819Y553360D01*
X724620Y551420D01*
X723780Y549040D01*
X722940Y547640D01*
X721600Y546680D01*
X720000Y546360D01*
X718400Y546680D01*
X717060Y547640D01*
X716220Y549040D01*
X715380Y551420D01*
X714180Y553360D01*
X713340Y554180D01*
X712480Y555480D01*
X712180Y557020D01*
X712180Y585540D01*
X712480Y587080D01*
X713660Y588700D01*
X714880Y590620D01*
X715620Y592780D01*
X715900Y595260D01*
X715900Y634180D01*
X715620Y636680D01*
X714880Y638820D01*
X713660Y640759D01*
X712039Y642360D01*
X710120Y643580D01*
X707960Y644320D01*
X705480Y644599D01*
X674440Y644599D01*
X671940Y644320D01*
X669800Y643580D01*
X667860Y642360D01*
X666260Y640759D01*
X665040Y638820D01*
X664280Y636680D01*
X664000Y634180D01*
X664000Y595260D01*
X664280Y592780D01*
X665040Y590620D01*
X666260Y588700D01*
X666979Y587960D01*
X667840Y586680D01*
X668160Y585140D01*
X668160Y556640D01*
X667840Y555120D01*
X666520Y553360D01*
X665300Y551420D01*
X664539Y549280D01*
X664260Y546780D01*
X664260Y513220D01*
X664539Y510720D01*
X665000Y508920D01*
X665160Y504360D01*
X666020Y500300D01*
X667540Y496420D01*
X669659Y492840D01*
X672460Y489540D01*
X694680Y467320D01*
X696420Y464820D01*
X699240Y461760D01*
X702520Y459200D01*
X706180Y457220D01*
X710100Y455880D01*
G37*
G36*
X1219740Y484580D02*
G01*
X1245420Y484580D01*
X1245420Y510260D01*
X1240920Y507780D01*
X1235480Y503920D01*
X1230520Y499480D01*
X1226080Y494520D01*
X1222220Y489080D01*
G37*
G36*
X1534700Y484580D02*
G01*
X1560380Y484580D01*
X1560380Y510260D01*
X1555880Y507780D01*
X1550440Y503920D01*
X1545480Y499480D01*
X1541040Y494520D01*
X1537180Y489080D01*
G37*
G36*
X1614580Y484580D02*
G01*
X1640260Y484580D01*
X1637780Y489080D01*
X1633920Y494520D01*
X1629480Y499480D01*
X1624520Y503920D01*
X1619079Y507780D01*
X1614580Y510260D01*
G37*
G36*
X1299620Y484580D02*
G01*
X1325300Y484580D01*
X1322820Y489080D01*
X1318959Y494520D01*
X1314520Y499480D01*
X1309560Y503920D01*
X1304120Y507780D01*
X1299620Y510260D01*
G37*
G36*
X1051180Y532440D02*
G01*
X1055140Y532440D01*
X1059040Y533100D01*
X1062780Y534380D01*
X1066260Y536260D01*
X1069400Y538700D01*
X1072080Y541600D01*
X1074240Y544920D01*
X1075820Y548540D01*
X1076800Y552380D01*
X1077140Y556500D01*
X1077140Y583320D01*
X1077300Y584420D01*
X1077760Y585460D01*
X1079260Y587820D01*
X1080020Y589960D01*
X1080300Y592440D01*
X1080300Y623500D01*
X1080020Y625980D01*
X1079260Y628120D01*
X1078040Y630060D01*
X1076440Y631660D01*
X1075700Y632140D01*
X1074540Y633240D01*
X1073900Y634720D01*
X1073900Y636320D01*
X1074540Y637800D01*
X1075700Y638900D01*
X1076440Y639380D01*
X1078040Y640980D01*
X1079260Y642920D01*
X1080020Y645060D01*
X1080300Y647560D01*
X1080300Y652700D01*
X1063740Y652700D01*
X1063740Y637920D01*
X1063420Y636380D01*
X1062560Y635080D01*
X1061260Y634220D01*
X1059740Y633920D01*
X1045020Y633920D01*
X1043480Y634220D01*
X1042180Y635080D01*
X1041320Y636380D01*
X1041020Y637920D01*
X1041020Y652700D01*
X1024460Y652700D01*
X1024460Y647560D01*
X1024740Y645060D01*
X1025500Y642920D01*
X1026700Y640980D01*
X1028319Y639380D01*
X1029060Y638900D01*
X1030220Y637800D01*
X1030840Y636320D01*
X1030840Y634720D01*
X1030220Y633240D01*
X1029060Y632140D01*
X1028319Y631660D01*
X1026700Y630060D01*
X1025500Y628120D01*
X1024740Y625980D01*
X1024460Y623500D01*
X1024460Y592440D01*
X1024740Y589960D01*
X1025500Y587800D01*
X1026700Y585880D01*
X1028000Y584560D01*
X1028880Y583280D01*
X1029180Y581740D01*
X1029180Y556500D01*
X1029520Y552380D01*
X1030500Y548540D01*
X1032080Y544920D01*
X1034240Y541600D01*
X1036919Y538700D01*
X1040060Y536260D01*
X1043540Y534380D01*
X1047280Y533100D01*
G37*
G36*
X115420Y639740D02*
G01*
X115420Y665420D01*
X89740Y665420D01*
X92220Y660920D01*
X96080Y655480D01*
X100520Y650520D01*
X105480Y646080D01*
X110920Y642220D01*
G37*
G36*
X430379Y639740D02*
G01*
X430379Y665420D01*
X404700Y665420D01*
X407180Y660920D01*
X411040Y655480D01*
X415480Y650520D01*
X420439Y646080D01*
X425880Y642220D01*
G37*
G36*
X169620Y639740D02*
G01*
X174120Y642220D01*
X179560Y646080D01*
X184520Y650520D01*
X188960Y655480D01*
X192820Y660920D01*
X195300Y665420D01*
X169620Y665420D01*
G37*
G36*
X1549620Y639740D02*
G01*
X1554120Y642220D01*
X1559560Y646080D01*
X1564520Y650520D01*
X1568959Y655480D01*
X1572820Y660920D01*
X1575300Y665420D01*
X1549620Y665420D01*
G37*
G36*
X1810380Y639740D02*
G01*
X1810380Y665420D01*
X1784700Y665420D01*
X1787180Y660920D01*
X1791040Y655480D01*
X1795480Y650520D01*
X1800440Y646080D01*
X1805880Y642220D01*
G37*
G36*
X484580Y639740D02*
G01*
X489080Y642220D01*
X494520Y646080D01*
X499480Y650520D01*
X503920Y655480D01*
X507780Y660920D01*
X510260Y665420D01*
X484580Y665420D01*
G37*
G36*
X1495420Y639740D02*
G01*
X1495420Y665420D01*
X1469740Y665420D01*
X1472220Y660920D01*
X1476080Y655480D01*
X1480520Y650520D01*
X1485480Y646080D01*
X1490920Y642220D01*
G37*
G36*
X1864580Y639740D02*
G01*
X1869079Y642220D01*
X1874520Y646080D01*
X1879480Y650520D01*
X1883920Y655480D01*
X1887780Y660920D01*
X1890260Y665420D01*
X1864580Y665420D01*
G37*
G36*
X1024460Y673460D02*
G01*
X1041020Y673460D01*
X1041020Y689020D01*
X1034880Y689020D01*
X1032400Y688740D01*
X1030240Y688000D01*
X1028319Y686780D01*
X1026700Y685160D01*
X1025500Y683240D01*
X1024740Y681080D01*
X1024460Y678600D01*
G37*
G36*
X1063740Y673460D02*
G01*
X1080300Y673460D01*
X1080300Y678600D01*
X1080020Y681080D01*
X1079260Y683240D01*
X1078040Y685160D01*
X1076440Y686780D01*
X1074500Y688000D01*
X1072360Y688740D01*
X1069860Y689020D01*
X1063740Y689020D01*
G37*
G36*
X711840Y675380D02*
G01*
X716979Y675380D01*
X716979Y692940D01*
X701420Y692940D01*
X701420Y685819D01*
X701700Y683319D01*
X702440Y681180D01*
X703660Y679240D01*
X705280Y677640D01*
X707200Y676420D01*
X709340Y675660D01*
G37*
G36*
X737740Y675380D02*
G01*
X742880Y675380D01*
X745380Y675660D01*
X747520Y676420D01*
X749460Y677640D01*
X751060Y679240D01*
X752280Y681180D01*
X753020Y683319D01*
X753319Y685819D01*
X753319Y692940D01*
X737740Y692940D01*
G37*
G36*
X637040Y675380D02*
G01*
X668080Y675380D01*
X670560Y675660D01*
X672720Y676420D01*
X674640Y677640D01*
X676260Y679240D01*
X677460Y681180D01*
X678220Y683319D01*
X678500Y685819D01*
X678500Y724740D01*
X678220Y727220D01*
X677460Y729380D01*
X676260Y731300D01*
X674640Y732920D01*
X672720Y734120D01*
X670560Y734880D01*
X668080Y735160D01*
X637040Y735160D01*
X634540Y734880D01*
X632400Y734120D01*
X630460Y732920D01*
X628860Y731300D01*
X627500Y729160D01*
X626600Y728160D01*
X625440Y727500D01*
X624120Y727280D01*
X596660Y727280D01*
X595140Y727580D01*
X593860Y728439D01*
X513200Y808020D01*
X512320Y809340D01*
X512020Y810879D01*
X512020Y824240D01*
X512320Y825759D01*
X513180Y827060D01*
X514480Y827920D01*
X516000Y828240D01*
X573200Y828300D01*
X574740Y828000D01*
X576040Y827120D01*
X577780Y825380D01*
X579720Y824160D01*
X581860Y823420D01*
X584360Y823139D01*
X615660Y823139D01*
X618140Y823420D01*
X620300Y824160D01*
X622220Y825380D01*
X623840Y826979D01*
X625040Y828920D01*
X625880Y831300D01*
X626720Y832700D01*
X628060Y833660D01*
X629660Y833980D01*
X631260Y833660D01*
X632600Y832700D01*
X633440Y831300D01*
X634280Y828920D01*
X635480Y826979D01*
X637100Y825380D01*
X639020Y824160D01*
X641180Y823420D01*
X643660Y823139D01*
X648880Y823139D01*
X648880Y839340D01*
X630080Y839340D01*
X628540Y839640D01*
X627260Y840500D01*
X626380Y841800D01*
X626080Y843340D01*
X626080Y857340D01*
X626380Y858880D01*
X627260Y860180D01*
X628540Y861040D01*
X630080Y861340D01*
X648880Y861340D01*
X648880Y877540D01*
X643660Y877540D01*
X641180Y877260D01*
X639020Y876520D01*
X637100Y875300D01*
X635480Y873700D01*
X634280Y871760D01*
X633440Y869380D01*
X632600Y867980D01*
X631260Y867020D01*
X629660Y866700D01*
X628060Y867020D01*
X626720Y867980D01*
X625880Y869380D01*
X625040Y871760D01*
X623840Y873700D01*
X622220Y875300D01*
X620300Y876520D01*
X618140Y877260D01*
X615660Y877540D01*
X584360Y877540D01*
X581860Y877260D01*
X579720Y876520D01*
X577780Y875300D01*
X575980Y873500D01*
X574680Y872620D01*
X573160Y872320D01*
X353360Y872080D01*
X351900Y872340D01*
X350640Y873120D01*
X349760Y874300D01*
X348300Y877280D01*
X344880Y882600D01*
X340860Y887500D01*
X336320Y891919D01*
X331300Y895780D01*
X325880Y899060D01*
X320120Y901680D01*
X314100Y903640D01*
X307900Y904900D01*
X301580Y905440D01*
X295260Y905260D01*
X288980Y904360D01*
X282860Y902760D01*
X276960Y900460D01*
X271360Y897500D01*
X266120Y893920D01*
X261340Y889780D01*
X257060Y885120D01*
X253340Y879980D01*
X250219Y874479D01*
X247760Y868640D01*
X245980Y862560D01*
X244899Y856320D01*
X244540Y850000D01*
X244899Y843680D01*
X245980Y837440D01*
X247760Y831360D01*
X250219Y825520D01*
X253340Y820020D01*
X257060Y814880D01*
X261340Y810220D01*
X266120Y806080D01*
X271360Y802500D01*
X276960Y799539D01*
X282860Y797240D01*
X288980Y795639D01*
X295260Y794740D01*
X301580Y794560D01*
X307900Y795100D01*
X314100Y796360D01*
X320120Y798319D01*
X325880Y800939D01*
X331300Y804220D01*
X336320Y808080D01*
X340860Y812500D01*
X344880Y817400D01*
X348300Y822720D01*
X349820Y825819D01*
X350700Y827000D01*
X351960Y827780D01*
X353400Y828060D01*
X463980Y828180D01*
X465520Y827880D01*
X466820Y827000D01*
X467680Y825699D01*
X468000Y824180D01*
X468000Y800100D01*
X468100Y797920D01*
X468320Y796200D01*
X468780Y794160D01*
X469320Y792480D01*
X470120Y790560D01*
X470940Y789000D01*
X472060Y787240D01*
X473140Y785860D01*
X474600Y784260D01*
X570480Y689659D01*
X571840Y688420D01*
X573500Y687159D01*
X574980Y686220D01*
X576840Y685260D01*
X578460Y684599D01*
X580460Y683980D01*
X582160Y683600D01*
X584240Y683340D01*
X586080Y683259D01*
X624120Y683259D01*
X625440Y683040D01*
X626600Y682400D01*
X627500Y681400D01*
X628860Y679240D01*
X630460Y677640D01*
X632400Y676420D01*
X634540Y675660D01*
G37*
G36*
X786080Y679360D02*
G01*
X802640Y679360D01*
X802640Y694940D01*
X796520Y694940D01*
X794020Y694659D01*
X791880Y693900D01*
X789940Y692680D01*
X788340Y691080D01*
X787120Y689140D01*
X786360Y687000D01*
X786080Y684520D01*
G37*
G36*
X825360Y679360D02*
G01*
X841919Y679360D01*
X841919Y684520D01*
X841640Y687000D01*
X840879Y689140D01*
X839680Y691080D01*
X838060Y692680D01*
X836140Y693900D01*
X833980Y694659D01*
X831500Y694940D01*
X825360Y694940D01*
G37*
G36*
X737740Y717620D02*
G01*
X753319Y717620D01*
X753319Y724740D01*
X753020Y727220D01*
X752280Y729380D01*
X751060Y731300D01*
X749460Y732920D01*
X747520Y734120D01*
X745380Y734880D01*
X742880Y735160D01*
X737740Y735160D01*
G37*
G36*
X701420Y717620D02*
G01*
X716979Y717620D01*
X716979Y735160D01*
X711840Y735160D01*
X709340Y734880D01*
X707200Y734120D01*
X705280Y732920D01*
X703660Y731300D01*
X702440Y729380D01*
X701700Y727220D01*
X701420Y724740D01*
G37*
G36*
X169620Y719620D02*
G01*
X195300Y719620D01*
X192820Y724120D01*
X188960Y729560D01*
X184520Y734520D01*
X179560Y738960D01*
X174120Y742820D01*
X169620Y745300D01*
G37*
G36*
X89740Y719620D02*
G01*
X115420Y719620D01*
X115420Y745300D01*
X110920Y742820D01*
X105480Y738960D01*
X100520Y734520D01*
X96080Y729560D01*
X92220Y724120D01*
G37*
G36*
X404700Y719620D02*
G01*
X430379Y719620D01*
X430379Y745300D01*
X425880Y742820D01*
X420439Y738960D01*
X415480Y734520D01*
X411040Y729560D01*
X407180Y724120D01*
G37*
G36*
X1549620Y719620D02*
G01*
X1575300Y719620D01*
X1572820Y724120D01*
X1568959Y729560D01*
X1564520Y734520D01*
X1559560Y738960D01*
X1554120Y742820D01*
X1549620Y745300D01*
G37*
G36*
X484580Y719620D02*
G01*
X510260Y719620D01*
X507780Y724120D01*
X503920Y729560D01*
X499480Y734520D01*
X494520Y738960D01*
X489080Y742820D01*
X484580Y745300D01*
G37*
G36*
X1864580Y719620D02*
G01*
X1890260Y719620D01*
X1887780Y724120D01*
X1883920Y729560D01*
X1879480Y734520D01*
X1874520Y738960D01*
X1869079Y742820D01*
X1864580Y745300D01*
G37*
G36*
X1784700Y719620D02*
G01*
X1810380Y719620D01*
X1810380Y745300D01*
X1805880Y742820D01*
X1800440Y738960D01*
X1795480Y734520D01*
X1791040Y729560D01*
X1787180Y724120D01*
G37*
G36*
X1469740Y719620D02*
G01*
X1495420Y719620D01*
X1495420Y745300D01*
X1490920Y742820D01*
X1485480Y738960D01*
X1480520Y734520D01*
X1476080Y729560D01*
X1472220Y724120D01*
G37*
G36*
X1678420Y794560D02*
G01*
X1684740Y794740D01*
X1691020Y795639D01*
X1697140Y797240D01*
X1703040Y799539D01*
X1708640Y802500D01*
X1713880Y806080D01*
X1718660Y810220D01*
X1722940Y814880D01*
X1726660Y820020D01*
X1729780Y825520D01*
X1732240Y831360D01*
X1734019Y837440D01*
X1735100Y843680D01*
X1735460Y850000D01*
X1735100Y856320D01*
X1734019Y862560D01*
X1732240Y868640D01*
X1729780Y874479D01*
X1726660Y879980D01*
X1722940Y885120D01*
X1718660Y889780D01*
X1713880Y893920D01*
X1708640Y897500D01*
X1703040Y900460D01*
X1697140Y902760D01*
X1691020Y904360D01*
X1684740Y905260D01*
X1678420Y905440D01*
X1672100Y904900D01*
X1665900Y903640D01*
X1659880Y901680D01*
X1654120Y899060D01*
X1648700Y895780D01*
X1643680Y891919D01*
X1639139Y887500D01*
X1635120Y882600D01*
X1631699Y877280D01*
X1628899Y871600D01*
X1626780Y865620D01*
X1625340Y859460D01*
X1624620Y853160D01*
X1624620Y846840D01*
X1625340Y840540D01*
X1626780Y834380D01*
X1628899Y828400D01*
X1631699Y822720D01*
X1635120Y817400D01*
X1639139Y812500D01*
X1643680Y808080D01*
X1648700Y804220D01*
X1654120Y800939D01*
X1659880Y798319D01*
X1665900Y796360D01*
X1672100Y795100D01*
G37*
G36*
X669760Y823139D02*
G01*
X674960Y823139D01*
X677460Y823420D01*
X679599Y824160D01*
X681540Y825380D01*
X683139Y826979D01*
X684360Y828920D01*
X685120Y831060D01*
X685400Y833560D01*
X685400Y839340D01*
X669760Y839340D01*
G37*
G36*
X669760Y861340D02*
G01*
X685400Y861340D01*
X685400Y867120D01*
X685120Y869620D01*
X684360Y871760D01*
X683139Y873700D01*
X681540Y875300D01*
X679599Y876520D01*
X677460Y877260D01*
X674960Y877540D01*
X669760Y877540D01*
G37*
G36*
X115420Y954700D02*
G01*
X115420Y980380D01*
X89740Y980380D01*
X92220Y975879D01*
X96080Y970440D01*
X100520Y965480D01*
X105480Y961040D01*
X110920Y957180D01*
G37*
G36*
X169620Y954700D02*
G01*
X174120Y957180D01*
X179560Y961040D01*
X184520Y965480D01*
X188960Y970440D01*
X192820Y975879D01*
X195300Y980380D01*
X169620Y980380D01*
G37*
G36*
X430379Y954700D02*
G01*
X430379Y980380D01*
X404700Y980380D01*
X407180Y975879D01*
X411040Y970440D01*
X415480Y965480D01*
X420439Y961040D01*
X425880Y957180D01*
G37*
G36*
X484580Y954700D02*
G01*
X489080Y957180D01*
X494520Y961040D01*
X499480Y965480D01*
X503920Y970440D01*
X507780Y975879D01*
X510260Y980380D01*
X484580Y980380D01*
G37*
G36*
X1810380Y954700D02*
G01*
X1810380Y980380D01*
X1784700Y980380D01*
X1787180Y975879D01*
X1791040Y970440D01*
X1795480Y965480D01*
X1800440Y961040D01*
X1805880Y957180D01*
G37*
G36*
X1495420Y954700D02*
G01*
X1495420Y980380D01*
X1469740Y980380D01*
X1472220Y975879D01*
X1476080Y970440D01*
X1480520Y965480D01*
X1485480Y961040D01*
X1490920Y957180D01*
G37*
G36*
X1549620Y954700D02*
G01*
X1554120Y957180D01*
X1559560Y961040D01*
X1564520Y965480D01*
X1568959Y970440D01*
X1572820Y975879D01*
X1575300Y980380D01*
X1549620Y980380D01*
G37*
G36*
X1864580Y954700D02*
G01*
X1869079Y957180D01*
X1874520Y961040D01*
X1879480Y965480D01*
X1883920Y970440D01*
X1887780Y975879D01*
X1890260Y980380D01*
X1864580Y980380D01*
G37*
G36*
X169620Y1034580D02*
G01*
X195300Y1034580D01*
X192820Y1039080D01*
X188960Y1044520D01*
X184520Y1049480D01*
X179560Y1053920D01*
X174120Y1057780D01*
X169620Y1060260D01*
G37*
G36*
X89740Y1034580D02*
G01*
X115420Y1034580D01*
X115420Y1060260D01*
X110920Y1057780D01*
X105480Y1053920D01*
X100520Y1049480D01*
X96080Y1044520D01*
X92220Y1039080D01*
G37*
G36*
X1549620Y1034580D02*
G01*
X1575300Y1034580D01*
X1572820Y1039080D01*
X1568959Y1044520D01*
X1564520Y1049480D01*
X1559560Y1053920D01*
X1554120Y1057780D01*
X1549620Y1060260D01*
G37*
G36*
X484580Y1034580D02*
G01*
X510260Y1034580D01*
X507780Y1039080D01*
X503920Y1044520D01*
X499480Y1049480D01*
X494520Y1053920D01*
X489080Y1057780D01*
X484580Y1060260D01*
G37*
G36*
X1864580Y1034580D02*
G01*
X1890260Y1034580D01*
X1887780Y1039080D01*
X1883920Y1044520D01*
X1879480Y1049480D01*
X1874520Y1053920D01*
X1869079Y1057780D01*
X1864580Y1060260D01*
G37*
G36*
X404700Y1034580D02*
G01*
X430379Y1034580D01*
X430379Y1060260D01*
X425880Y1057780D01*
X420439Y1053920D01*
X415480Y1049480D01*
X411040Y1044520D01*
X407180Y1039080D01*
G37*
G36*
X1784700Y1034580D02*
G01*
X1810380Y1034580D01*
X1810380Y1060260D01*
X1805880Y1057780D01*
X1800440Y1053920D01*
X1795480Y1049480D01*
X1791040Y1044520D01*
X1787180Y1039080D01*
G37*
G36*
X1469740Y1034580D02*
G01*
X1495420Y1034580D01*
X1495420Y1060260D01*
X1490920Y1057780D01*
X1485480Y1053920D01*
X1480520Y1049480D01*
X1476080Y1044520D01*
X1472220Y1039080D01*
G37*

%LPD*%
G36*
X695240Y125980D02*
G01*
X693720Y126280D01*
X692420Y127160D01*
X674400Y145180D01*
X673520Y146480D01*
X673220Y148000D01*
X673220Y190580D01*
X673520Y192120D01*
X674400Y193420D01*
X692420Y211420D01*
X693720Y212300D01*
X695240Y212600D01*
X905800Y212600D01*
X906460Y212880D01*
X915759Y222180D01*
X1088860Y378960D01*
X1090100Y379739D01*
X1091540Y380000D01*
X1490280Y379960D01*
X1519980Y375840D01*
X1521220Y375460D01*
X1522260Y374700D01*
X1526399Y370580D01*
X1527260Y369280D01*
X1527560Y367740D01*
X1527560Y234980D01*
X1527380Y233760D01*
X1526819Y232640D01*
X1525940Y231759D01*
X1511060Y220780D01*
X1509940Y220200D01*
X1508680Y220000D01*
X1100400Y220000D01*
X1099720Y219720D01*
X1008379Y127180D01*
X1007080Y126300D01*
X1005520Y125980D01*
G37*

%LPD*%
D10*
X300000Y850000D02*
G01*
X600000Y850340D01*
X652598Y705274D02*
G01*
X585995Y705274D01*
X490000Y800000D01*
X490000Y850216D01*
D11*
X802600Y248619D02*
G01*
X802600Y301880D01*
X802159Y302320D01*
D12*
X239790Y313380D02*
G01*
X243170Y310000D01*
X510630Y310000D01*
X600630Y400000D01*
X604720Y395910D01*
X604720Y393310D01*
D10*
X239790Y403940D02*
G01*
X331250Y495400D01*
X331250Y498690D01*
D13*
X1053160Y556330D02*
G01*
X1053160Y607170D01*
X1052370Y607960D01*
X1053540Y606790D01*
X1053540Y603940D01*
D11*
X776570Y302320D02*
G01*
X776968Y337264D01*
D10*
X680320Y392520D02*
G01*
X680320Y423100D01*
X681210Y424000D01*
X606520Y498690D01*
X406049Y498690D01*
D14*
X677680Y302198D02*
G01*
X633946Y301410D01*
X750980Y302320D02*
G01*
X677680Y302198D01*
D13*
X749659Y530000D02*
G01*
X814960Y559060D01*
X814000Y613870D02*
G01*
X814000Y560020D01*
X814960Y559060D01*
D10*
X690160Y507480D02*
G01*
X690160Y587400D01*
X689997Y614724D01*
D15*
X716290Y480290D02*
G01*
X716290Y481350D01*
X690160Y507480D01*
X877440Y314810D02*
G01*
X877400Y314770D01*
X877400Y248619D01*
D14*
X776574Y341203D02*
G01*
X776570Y380080D01*
D15*
X679370Y400000D02*
G01*
X731060Y400000D01*
X750980Y380080D01*
D14*
X776570Y380080D02*
G01*
X750980Y380080D01*
D11*
X802159Y380080D02*
G01*
X802159Y412400D01*
X822830Y433070D01*
X838580Y433070D01*
D16*
G01*
X659315Y850340D03*
G01*
X600004Y850340D03*
D17*
G01*
X330628Y500000D03*
G01*
X409372Y500000D03*
G01*
X600628Y400000D03*
G01*
X679372Y400000D03*
D18*
G01*
X750980Y302320D03*
G01*
X776570Y302320D03*
G01*
X802159Y302320D03*
G01*
X802159Y380080D03*
G01*
X776570Y380080D03*
G01*
X750980Y380080D03*
D19*
G01*
X690344Y530000D03*
G01*
X749655Y530000D03*
D20*
G01*
X273110Y400550D03*
G01*
X273110Y310000D03*
G01*
X273110Y219450D03*
D21*
G01*
X506967Y310000D03*
D22*
G01*
X652550Y705270D03*
G01*
X689950Y614720D03*
G01*
X727360Y705270D03*
D23*
G01*
X877410Y248619D03*
G01*
X802610Y248619D03*
G01*
X840010Y151380D03*
D24*
G01*
X814000Y668990D03*
G01*
X814000Y613870D03*
G01*
X1052370Y663080D03*
G01*
X1052370Y607960D03*
D25*
G01*
X1522520Y692520D03*
G01*
X1522520Y1007480D03*
G01*
X1837480Y1007480D03*
G01*
X1837480Y692520D03*
D26*
G01*
X1680000Y850000D03*
D25*
G01*
X457480Y1007480D03*
G01*
X457480Y692520D03*
G01*
X142520Y692520D03*
G01*
X142520Y1007480D03*
D26*
G01*
X300000Y850000D03*
D25*
G01*
X1272520Y457480D03*
G01*
X1587480Y457480D03*
G01*
X1587480Y142520D03*
G01*
X1272520Y142520D03*
D26*
G01*
X1430000Y300000D03*
D27*
G01*
X814960Y559060D03*
G01*
X1053160Y556330D03*
G01*
X838580Y433070D03*
G01*
X716290Y480290D03*
D28*
G01*
X877440Y314810D03*
D27*
G01*
X677680Y302200D03*
G01*
X633950Y301410D03*
G01*
X75000Y500000D03*
G01*
X75000Y450000D03*
G01*
X75000Y400000D03*
G01*
X75000Y350000D03*
G01*
X75000Y300000D03*
G01*
X75000Y250000D03*
G01*
X125000Y500000D03*
G01*
X125000Y450000D03*
G01*
X125000Y400000D03*
G01*
X125000Y350000D03*
G01*
X125000Y300000D03*
G01*
X125000Y250000D03*
G01*
X275000Y75000D03*
G01*
X350000Y75000D03*
G01*
X425000Y75000D03*
G01*
X500000Y75000D03*
G01*
X575000Y75000D03*
G01*
X650000Y75000D03*
G01*
X725000Y75000D03*
G01*
X800000Y75000D03*
G01*
X875000Y75000D03*
G01*
X950000Y75000D03*
G01*
X1025000Y75000D03*
G01*
X1100000Y75000D03*
G01*
X125000Y1175000D03*
G01*
X175000Y1175000D03*
G01*
X225000Y1175000D03*
G01*
X275000Y1175000D03*
G01*
X325000Y1175000D03*
G01*
X375000Y1175000D03*
G01*
X425000Y1175000D03*
G01*
X475000Y1175000D03*
G01*
X525000Y1175000D03*
G01*
X575000Y1175000D03*
G01*
X125000Y1125000D03*
G01*
X175000Y1125000D03*
G01*
X225000Y1125000D03*
G01*
X275000Y1125000D03*
G01*
X325000Y1125000D03*
G01*
X375000Y1125000D03*
G01*
X425000Y1125000D03*
G01*
X475000Y1125000D03*
G01*
X525000Y1125000D03*
G01*
X575000Y1125000D03*
G01*
X225000Y1075000D03*
G01*
X275000Y1075000D03*
G01*
X325000Y1075000D03*
G01*
X375000Y1075000D03*
G01*
X325000Y1025000D03*
G01*
X275000Y1025000D03*
G01*
X225000Y1025000D03*
G01*
X375000Y1025000D03*
G01*
X375000Y975000D03*
G01*
X325000Y975000D03*
G01*
X275000Y975000D03*
G01*
X225000Y975000D03*
G01*
X175000Y925000D03*
G01*
X125000Y925000D03*
G01*
X125000Y875000D03*
G01*
X175000Y875000D03*
G01*
X175000Y825000D03*
G01*
X125000Y825000D03*
G01*
X125000Y775000D03*
G01*
X175000Y775000D03*
G01*
X225000Y775000D03*
G01*
X225000Y725000D03*
G01*
X275000Y725000D03*
G01*
X325000Y725000D03*
G01*
X375000Y725000D03*
G01*
X375000Y675000D03*
G01*
X325000Y675000D03*
G01*
X275000Y675000D03*
G01*
X225000Y675000D03*
G01*
X575000Y1075000D03*
G01*
X525000Y1075000D03*
G01*
X575000Y1025000D03*
G01*
X575000Y975000D03*
G01*
X575000Y925000D03*
G01*
X525000Y975000D03*
G01*
X525000Y925000D03*
G01*
X225000Y625000D03*
G01*
X275000Y625000D03*
G01*
X325000Y625000D03*
G01*
X375000Y625000D03*
G01*
X1175000Y75000D03*
G01*
X1350000Y75000D03*
G01*
X1400000Y75000D03*
G01*
X1450000Y75000D03*
G01*
X1500000Y75000D03*
G01*
X1500000Y125000D03*
G01*
X1450000Y125000D03*
G01*
X1400000Y125000D03*
G01*
X1350000Y125000D03*
G01*
X1350000Y175000D03*
G01*
X1400000Y175000D03*
G01*
X1450000Y175000D03*
G01*
X1500000Y175000D03*
G01*
X1175000Y125000D03*
G01*
X1175000Y175000D03*
G01*
X1125000Y175000D03*
G01*
X1125000Y125000D03*
G01*
X1675000Y75000D03*
G01*
X1725000Y75000D03*
G01*
X1725000Y125000D03*
G01*
X1675000Y125000D03*
G01*
X1675000Y175000D03*
G01*
X1725000Y175000D03*
G01*
X1725000Y225000D03*
G01*
X1675000Y225000D03*
G01*
X1675000Y275000D03*
G01*
X1725000Y275000D03*
G01*
X1725000Y325000D03*
G01*
X1675000Y325000D03*
G01*
X1675000Y375000D03*
G01*
X1725000Y375000D03*
G01*
X1725000Y425000D03*
G01*
X1675000Y425000D03*
G01*
X1675000Y475000D03*
G01*
X1725000Y475000D03*
G01*
X1625000Y325000D03*
G01*
X1625000Y275000D03*
G01*
X1625000Y225000D03*
G01*
X1575000Y325000D03*
G01*
X1575000Y275000D03*
G01*
X1500000Y475000D03*
G01*
X1450000Y475000D03*
G01*
X1400000Y475000D03*
G01*
X1350000Y475000D03*
G01*
X1350000Y425000D03*
G01*
X1400000Y425000D03*
G01*
X1450000Y425000D03*
G01*
X1500000Y425000D03*
G01*
X1175000Y425000D03*
G01*
X1175000Y475000D03*
G01*
X1125000Y475000D03*
G01*
X1125000Y425000D03*
G01*
X1075000Y425000D03*
G01*
X1075000Y475000D03*
G01*
X1175000Y550000D03*
G01*
X1125000Y550000D03*
G01*
X1025000Y475000D03*
G01*
X1025000Y425000D03*
G01*
X975000Y425000D03*
G01*
X975000Y475000D03*
G01*
X925000Y475000D03*
G01*
X925000Y425000D03*
G01*
X925000Y525000D03*
G01*
X925000Y575000D03*
G01*
X925000Y625000D03*
G01*
X925000Y675000D03*
G01*
X975000Y675000D03*
G01*
X975000Y625000D03*
G01*
X975000Y575000D03*
G01*
X975000Y525000D03*
G01*
X525000Y625000D03*
G01*
X575000Y625000D03*
G01*
X625000Y625000D03*
G01*
X625000Y575000D03*
G01*
X575000Y575000D03*
G01*
X525000Y575000D03*
G01*
X275000Y125000D03*
G01*
X350000Y125000D03*
G01*
X425000Y125000D03*
G01*
X500000Y125000D03*
G01*
X575000Y125000D03*
G01*
X575000Y175000D03*
G01*
X500000Y175000D03*
G01*
X425000Y175000D03*
G01*
X350000Y175000D03*
G01*
X1500000Y900000D03*
G01*
X1500000Y850000D03*
G01*
X1500000Y800000D03*
G01*
X1550000Y900000D03*
G01*
X1550000Y850000D03*
G01*
X1550000Y800000D03*
G01*
X1625000Y725000D03*
G01*
X1675000Y725000D03*
G01*
X1725000Y725000D03*
G01*
X1625000Y675000D03*
G01*
X1675000Y675000D03*
G01*
X1725000Y675000D03*
G01*
X1800000Y800000D03*
G01*
X1850000Y800000D03*
G01*
X1800000Y850000D03*
G01*
X1850000Y850000D03*
G01*
X1800000Y900000D03*
G01*
X1850000Y900000D03*
G01*
X1725000Y1050000D03*
G01*
X1725000Y1000000D03*
G01*
X1675000Y1050000D03*
G01*
X1675000Y1000000D03*
G01*
X1625000Y1050000D03*
G01*
X1625000Y1000000D03*
G01*
X375000Y775000D03*
G01*
X475000Y925000D03*
G01*
X425000Y925000D03*
G01*
X375000Y925000D03*
G01*
X425000Y775000D03*
G01*
X711000Y851000D03*
G01*
X770000Y708000D03*
G01*
X1050000Y723000D03*
G01*
X181000Y221000D03*
M02*
