G04 Layer: BottomLayer*
G04 EasyEDA v6.5.44, 2024-07-31 14:11:33*
G04 0a0e6e5985404cbc94c0c78cb0e903e1,401f954c81374b6587e5d63e119e93f9,10*
G04 Gerber Generator version 0.2*
G04 Scale: 100 percent, Rotated: No, Reflected: No *
G04 Dimensions in inches *
G04 leading zeros omitted , absolute positions ,3 integer and 6 decimal *
%FSLAX36Y36*%
%MOIN*%

%ADD10C,0.0300*%
%ADD11C,0.0984*%
%ADD12C,0.0906*%
%ADD13C,0.0250*%
%ADD14C,0.0240*%
%ADD15C,0.0136*%

%LPD*%
G36*
X50180Y10200D02*
G01*
X44960Y10560D01*
X40240Y11439D01*
X35680Y12900D01*
X31300Y14900D01*
X27220Y17400D01*
X23440Y20400D01*
X20080Y23800D01*
X17140Y27599D01*
X14680Y31740D01*
X12740Y36120D01*
X11339Y40720D01*
X10500Y45439D01*
X10200Y50420D01*
X10200Y1199580D01*
X10560Y1205040D01*
X11439Y1209760D01*
X12900Y1214320D01*
X14900Y1218700D01*
X17400Y1222780D01*
X20400Y1226560D01*
X23800Y1229920D01*
X27599Y1232860D01*
X31740Y1235320D01*
X36120Y1237260D01*
X40720Y1238660D01*
X45439Y1239500D01*
X50420Y1239800D01*
X1949580Y1239800D01*
X1955040Y1239440D01*
X1959760Y1238560D01*
X1964319Y1237100D01*
X1968700Y1235100D01*
X1972780Y1232600D01*
X1976560Y1229600D01*
X1979920Y1226200D01*
X1982860Y1222400D01*
X1985320Y1218260D01*
X1987260Y1213880D01*
X1988660Y1209280D01*
X1989500Y1204560D01*
X1989800Y1199580D01*
X1989800Y50420D01*
X1989440Y44960D01*
X1988560Y40240D01*
X1987100Y35680D01*
X1985100Y31300D01*
X1982600Y27220D01*
X1979600Y23440D01*
X1976200Y20080D01*
X1972400Y17140D01*
X1968260Y14680D01*
X1963880Y12740D01*
X1959280Y11339D01*
X1954560Y10500D01*
X1949580Y10200D01*
G37*

%LPC*%
G36*
X1850400Y48860D02*
G01*
X1857180Y49200D01*
X1863899Y50199D01*
X1870500Y51840D01*
X1876900Y54140D01*
X1883040Y57040D01*
X1888860Y60540D01*
X1894319Y64580D01*
X1899360Y69140D01*
X1903920Y74180D01*
X1907960Y79640D01*
X1911459Y85460D01*
X1914360Y91600D01*
X1916660Y98000D01*
X1918300Y104600D01*
X1919300Y111320D01*
X1919640Y118100D01*
X1919300Y124900D01*
X1918300Y131620D01*
X1916660Y138220D01*
X1914360Y144620D01*
X1911459Y150760D01*
X1907960Y156580D01*
X1903920Y162040D01*
X1899360Y167079D01*
X1894319Y171640D01*
X1888860Y175680D01*
X1883040Y179180D01*
X1876900Y182079D01*
X1870500Y184380D01*
X1863899Y186020D01*
X1857180Y187020D01*
X1850400Y187360D01*
X1843600Y187020D01*
X1836879Y186020D01*
X1830280Y184380D01*
X1823880Y182079D01*
X1817740Y179180D01*
X1811920Y175680D01*
X1806459Y171640D01*
X1801420Y167079D01*
X1796860Y162040D01*
X1792820Y156580D01*
X1789319Y150760D01*
X1786420Y144620D01*
X1784120Y138220D01*
X1782480Y131620D01*
X1781480Y124900D01*
X1781140Y118100D01*
X1781480Y111320D01*
X1782480Y104600D01*
X1784120Y98000D01*
X1786420Y91600D01*
X1789319Y85460D01*
X1792820Y79640D01*
X1796860Y74180D01*
X1801420Y69140D01*
X1806459Y64580D01*
X1811920Y60540D01*
X1817740Y57040D01*
X1823880Y54140D01*
X1830280Y51840D01*
X1836879Y50199D01*
X1843600Y49200D01*
G37*
G36*
X118120Y48860D02*
G01*
X124900Y49200D01*
X131620Y50199D01*
X138220Y51840D01*
X144620Y54140D01*
X150760Y57040D01*
X156580Y60540D01*
X162040Y64580D01*
X167079Y69140D01*
X171640Y74180D01*
X175680Y79640D01*
X179180Y85460D01*
X182079Y91600D01*
X184380Y98000D01*
X186020Y104600D01*
X187020Y111320D01*
X187360Y118100D01*
X187020Y124900D01*
X186020Y131620D01*
X184380Y138220D01*
X182079Y144620D01*
X179180Y150760D01*
X175680Y156580D01*
X171640Y162040D01*
X167079Y167079D01*
X162040Y171640D01*
X156580Y175680D01*
X150760Y179180D01*
X144620Y182079D01*
X138220Y184380D01*
X131620Y186020D01*
X124900Y187020D01*
X118120Y187360D01*
X111320Y187020D01*
X104600Y186020D01*
X98000Y184380D01*
X91600Y182079D01*
X85460Y179180D01*
X79640Y175680D01*
X74180Y171640D01*
X69140Y167079D01*
X64580Y162040D01*
X60540Y156580D01*
X57040Y150760D01*
X54140Y144620D01*
X51840Y138220D01*
X50199Y131620D01*
X49200Y124900D01*
X48860Y118100D01*
X49200Y111320D01*
X50199Y104600D01*
X51840Y98000D01*
X54140Y91600D01*
X57040Y85460D01*
X60540Y79640D01*
X64580Y74180D01*
X69140Y69140D01*
X74180Y64580D01*
X79640Y60540D01*
X85460Y57040D01*
X91600Y54140D01*
X98000Y51840D01*
X104600Y50199D01*
X111320Y49200D01*
G37*
G36*
X1245420Y89740D02*
G01*
X1245420Y115420D01*
X1219740Y115420D01*
X1222220Y110920D01*
X1226080Y105480D01*
X1230520Y100520D01*
X1235480Y96080D01*
X1240920Y92220D01*
G37*
G36*
X1560380Y89740D02*
G01*
X1560380Y115420D01*
X1534700Y115420D01*
X1537180Y110920D01*
X1541040Y105480D01*
X1545480Y100520D01*
X1550440Y96080D01*
X1555880Y92220D01*
G37*
G36*
X1299620Y89740D02*
G01*
X1304120Y92220D01*
X1309560Y96080D01*
X1314520Y100520D01*
X1318959Y105480D01*
X1322820Y110920D01*
X1325300Y115420D01*
X1299620Y115420D01*
G37*
G36*
X1614580Y89740D02*
G01*
X1619079Y92220D01*
X1624520Y96080D01*
X1629480Y100520D01*
X1633920Y105480D01*
X1637780Y110920D01*
X1640260Y115420D01*
X1614580Y115420D01*
G37*
G36*
X1534700Y169620D02*
G01*
X1560380Y169620D01*
X1560380Y195300D01*
X1555880Y192820D01*
X1550440Y188960D01*
X1545480Y184520D01*
X1541040Y179560D01*
X1537180Y174120D01*
G37*
G36*
X1299620Y169620D02*
G01*
X1325300Y169620D01*
X1322820Y174120D01*
X1318959Y179560D01*
X1314520Y184520D01*
X1309560Y188960D01*
X1304120Y192820D01*
X1299620Y195300D01*
G37*
G36*
X1219740Y169620D02*
G01*
X1245420Y169620D01*
X1245420Y195300D01*
X1240920Y192820D01*
X1235480Y188960D01*
X1230520Y184520D01*
X1226080Y179560D01*
X1222220Y174120D01*
G37*
G36*
X1614580Y169620D02*
G01*
X1640260Y169620D01*
X1637780Y174120D01*
X1633920Y179560D01*
X1629480Y184520D01*
X1624520Y188960D01*
X1619079Y192820D01*
X1614580Y195300D01*
G37*
G36*
X1430000Y244540D02*
G01*
X1436320Y244899D01*
X1442560Y245980D01*
X1448640Y247760D01*
X1454480Y250219D01*
X1459980Y253340D01*
X1465120Y257060D01*
X1469780Y261340D01*
X1473920Y266120D01*
X1477500Y271360D01*
X1480460Y276960D01*
X1482760Y282860D01*
X1484360Y288980D01*
X1485260Y295260D01*
X1485440Y301580D01*
X1484900Y307900D01*
X1483640Y314100D01*
X1481680Y320120D01*
X1479060Y325880D01*
X1475780Y331300D01*
X1471920Y336320D01*
X1467500Y340860D01*
X1462600Y344880D01*
X1457280Y348300D01*
X1451600Y351100D01*
X1445620Y353220D01*
X1439460Y354660D01*
X1433160Y355379D01*
X1426840Y355379D01*
X1420540Y354660D01*
X1414379Y353220D01*
X1408400Y351100D01*
X1402720Y348300D01*
X1397400Y344880D01*
X1392500Y340860D01*
X1388080Y336320D01*
X1384220Y331300D01*
X1380940Y325880D01*
X1378320Y320120D01*
X1376360Y314100D01*
X1375100Y307900D01*
X1374560Y301580D01*
X1374740Y295260D01*
X1375640Y288980D01*
X1377240Y282860D01*
X1379540Y276960D01*
X1382500Y271360D01*
X1386080Y266120D01*
X1390220Y261340D01*
X1394880Y257060D01*
X1400020Y253340D01*
X1405520Y250219D01*
X1411360Y247760D01*
X1417440Y245980D01*
X1423680Y244899D01*
G37*
G36*
X634900Y278740D02*
G01*
X638720Y279240D01*
X642400Y280360D01*
X645840Y282100D01*
X648940Y284380D01*
X651600Y287160D01*
X652740Y288860D01*
X653800Y289920D01*
X655160Y290520D01*
X656640Y290580D01*
X658040Y290100D01*
X659180Y289140D01*
X661300Y286500D01*
X664200Y283960D01*
X667460Y281940D01*
X671040Y280500D01*
X674800Y279700D01*
X678640Y279540D01*
X682460Y280020D01*
X686140Y281140D01*
X689580Y282880D01*
X692660Y285160D01*
X695340Y287940D01*
X697480Y291140D01*
X699060Y294640D01*
X700040Y298360D01*
X700360Y302200D01*
X700040Y306040D01*
X699060Y309760D01*
X697480Y313260D01*
X695340Y316440D01*
X692660Y319220D01*
X689580Y321520D01*
X686140Y323240D01*
X682460Y324380D01*
X678640Y324860D01*
X674800Y324700D01*
X671040Y323880D01*
X667460Y322460D01*
X664200Y320439D01*
X661300Y317900D01*
X658620Y314540D01*
X657480Y313560D01*
X656080Y313080D01*
X654599Y313140D01*
X653240Y313740D01*
X652180Y314800D01*
X651600Y315660D01*
X648940Y318440D01*
X645840Y320720D01*
X642400Y322460D01*
X638720Y323579D01*
X634900Y324080D01*
X631060Y323920D01*
X627300Y323100D01*
X623740Y321659D01*
X620460Y319640D01*
X617560Y317100D01*
X615160Y314120D01*
X613280Y310760D01*
X612000Y307120D01*
X611340Y303340D01*
X611340Y299480D01*
X612000Y295700D01*
X613280Y292060D01*
X615160Y288700D01*
X617560Y285720D01*
X620460Y283180D01*
X623740Y281160D01*
X627300Y279720D01*
X631060Y278900D01*
G37*
G36*
X875360Y289700D02*
G01*
X879520Y289700D01*
X883620Y290400D01*
X887560Y291740D01*
X891220Y293720D01*
X894500Y296280D01*
X897320Y299340D01*
X899599Y302820D01*
X901260Y306640D01*
X902280Y310660D01*
X902640Y314980D01*
X902640Y319020D01*
X902440Y322340D01*
X901560Y326400D01*
X901300Y327239D01*
X900040Y330280D01*
X899640Y331060D01*
X897380Y334560D01*
X895180Y337040D01*
X827220Y405000D01*
X826360Y406300D01*
X826040Y407819D01*
X826340Y409340D01*
X827200Y410640D01*
X828480Y411520D01*
X830020Y411820D01*
X835699Y410560D01*
X839539Y410400D01*
X843360Y410900D01*
X847039Y412020D01*
X850480Y413760D01*
X853560Y416040D01*
X856240Y418820D01*
X858379Y422000D01*
X859960Y425520D01*
X860939Y429240D01*
X861260Y433060D01*
X860939Y436900D01*
X859960Y440620D01*
X858379Y444140D01*
X856240Y447320D01*
X853560Y450100D01*
X850480Y452380D01*
X847039Y454120D01*
X843360Y455240D01*
X839539Y455740D01*
X835699Y455580D01*
X831940Y454760D01*
X828360Y453320D01*
X825100Y451300D01*
X822200Y448760D01*
X819780Y445780D01*
X817900Y442420D01*
X816620Y438780D01*
X815980Y435000D01*
X815980Y431140D01*
X816620Y427360D01*
X817180Y425800D01*
X817400Y424300D01*
X817039Y422800D01*
X816140Y421560D01*
X814840Y420740D01*
X813340Y420480D01*
X811840Y420780D01*
X810580Y421640D01*
X734220Y498000D01*
X730920Y500780D01*
X727360Y502920D01*
X723480Y504420D01*
X719400Y505280D01*
X715240Y505460D01*
X711120Y504940D01*
X707140Y503760D01*
X703400Y501920D01*
X700020Y499500D01*
X697080Y496560D01*
X694659Y493180D01*
X692820Y489440D01*
X691640Y485460D01*
X691120Y481340D01*
X691300Y477180D01*
X692159Y473100D01*
X693660Y469219D01*
X695800Y465660D01*
X698580Y462360D01*
X852600Y308340D01*
X853439Y307100D01*
X855300Y302820D01*
X857560Y299340D01*
X860380Y296280D01*
X863660Y293720D01*
X867320Y291740D01*
X871260Y290400D01*
G37*
G36*
X1614580Y404700D02*
G01*
X1619079Y407180D01*
X1624520Y411040D01*
X1629480Y415480D01*
X1633920Y420439D01*
X1637780Y425880D01*
X1640260Y430379D01*
X1614580Y430379D01*
G37*
G36*
X1560380Y404700D02*
G01*
X1560380Y430379D01*
X1534700Y430379D01*
X1537180Y425880D01*
X1541040Y420439D01*
X1545480Y415480D01*
X1550440Y411040D01*
X1555880Y407180D01*
G37*
G36*
X1245420Y404700D02*
G01*
X1245420Y430379D01*
X1219740Y430379D01*
X1222220Y425880D01*
X1226080Y420439D01*
X1230520Y415480D01*
X1235480Y411040D01*
X1240920Y407180D01*
G37*
G36*
X1299620Y404700D02*
G01*
X1304120Y407180D01*
X1309560Y411040D01*
X1314520Y415480D01*
X1318959Y420439D01*
X1322820Y425880D01*
X1325300Y430379D01*
X1299620Y430379D01*
G37*
G36*
X1219740Y484580D02*
G01*
X1245420Y484580D01*
X1245420Y510260D01*
X1240920Y507780D01*
X1235480Y503920D01*
X1230520Y499480D01*
X1226080Y494520D01*
X1222220Y489080D01*
G37*
G36*
X1534700Y484580D02*
G01*
X1560380Y484580D01*
X1560380Y510260D01*
X1555880Y507780D01*
X1550440Y503920D01*
X1545480Y499480D01*
X1541040Y494520D01*
X1537180Y489080D01*
G37*
G36*
X1614580Y484580D02*
G01*
X1640260Y484580D01*
X1637780Y489080D01*
X1633920Y494520D01*
X1629480Y499480D01*
X1624520Y503920D01*
X1619079Y507780D01*
X1614580Y510260D01*
G37*
G36*
X1299620Y484580D02*
G01*
X1325300Y484580D01*
X1322820Y489080D01*
X1318959Y494520D01*
X1314520Y499480D01*
X1309560Y503920D01*
X1304120Y507780D01*
X1299620Y510260D01*
G37*
G36*
X1054120Y533660D02*
G01*
X1057940Y534160D01*
X1061620Y535280D01*
X1065060Y537020D01*
X1068140Y539300D01*
X1070820Y542080D01*
X1072960Y545260D01*
X1074540Y548780D01*
X1075520Y552500D01*
X1075840Y556320D01*
X1075520Y560160D01*
X1074540Y563880D01*
X1072960Y567400D01*
X1070820Y570580D01*
X1068140Y573360D01*
X1065060Y575640D01*
X1061620Y577380D01*
X1057940Y578500D01*
X1054120Y579000D01*
X1050280Y578840D01*
X1046520Y578020D01*
X1042940Y576580D01*
X1039680Y574560D01*
X1036780Y572020D01*
X1034360Y569040D01*
X1032480Y565680D01*
X1031200Y562040D01*
X1030560Y558260D01*
X1030560Y554400D01*
X1031200Y550620D01*
X1032480Y546980D01*
X1034360Y543620D01*
X1036780Y540640D01*
X1039680Y538100D01*
X1042940Y536080D01*
X1046520Y534640D01*
X1050280Y533820D01*
G37*
G36*
X815920Y536400D02*
G01*
X819740Y536880D01*
X823420Y538020D01*
X826860Y539740D01*
X829940Y542040D01*
X832620Y544800D01*
X834760Y548000D01*
X836340Y551500D01*
X837320Y555220D01*
X837640Y559060D01*
X837320Y562900D01*
X836340Y566620D01*
X834760Y570120D01*
X832620Y573320D01*
X829940Y576080D01*
X826860Y578380D01*
X823420Y580100D01*
X819740Y581240D01*
X815920Y581720D01*
X812080Y581560D01*
X808319Y580760D01*
X804740Y579320D01*
X801480Y577300D01*
X798580Y574760D01*
X796160Y571760D01*
X794280Y568400D01*
X793000Y564780D01*
X792360Y560980D01*
X792360Y557140D01*
X793000Y553340D01*
X794280Y549720D01*
X796160Y546360D01*
X798580Y543360D01*
X801480Y540820D01*
X804740Y538800D01*
X808319Y537360D01*
X812080Y536560D01*
G37*
G36*
X115420Y639740D02*
G01*
X115420Y665420D01*
X89740Y665420D01*
X92220Y660920D01*
X96080Y655480D01*
X100520Y650520D01*
X105480Y646080D01*
X110920Y642220D01*
G37*
G36*
X430379Y639740D02*
G01*
X430379Y665420D01*
X404700Y665420D01*
X407180Y660920D01*
X411040Y655480D01*
X415480Y650520D01*
X420439Y646080D01*
X425880Y642220D01*
G37*
G36*
X169620Y639740D02*
G01*
X174120Y642220D01*
X179560Y646080D01*
X184520Y650520D01*
X188960Y655480D01*
X192820Y660920D01*
X195300Y665420D01*
X169620Y665420D01*
G37*
G36*
X1549620Y639740D02*
G01*
X1554120Y642220D01*
X1559560Y646080D01*
X1564520Y650520D01*
X1568959Y655480D01*
X1572820Y660920D01*
X1575300Y665420D01*
X1549620Y665420D01*
G37*
G36*
X484580Y639740D02*
G01*
X489080Y642220D01*
X494520Y646080D01*
X499480Y650520D01*
X503920Y655480D01*
X507780Y660920D01*
X510260Y665420D01*
X484580Y665420D01*
G37*
G36*
X1495420Y639740D02*
G01*
X1495420Y665420D01*
X1469740Y665420D01*
X1472220Y660920D01*
X1476080Y655480D01*
X1480520Y650520D01*
X1485480Y646080D01*
X1490920Y642220D01*
G37*
G36*
X1810380Y639740D02*
G01*
X1810380Y665420D01*
X1784700Y665420D01*
X1787180Y660920D01*
X1791040Y655480D01*
X1795480Y650520D01*
X1800440Y646080D01*
X1805880Y642220D01*
G37*
G36*
X1864580Y639740D02*
G01*
X1869079Y642220D01*
X1874520Y646080D01*
X1879480Y650520D01*
X1883920Y655480D01*
X1887780Y660920D01*
X1890260Y665420D01*
X1864580Y665420D01*
G37*
G36*
X169620Y719620D02*
G01*
X195300Y719620D01*
X192820Y724120D01*
X188960Y729560D01*
X184520Y734520D01*
X179560Y738960D01*
X174120Y742820D01*
X169620Y745300D01*
G37*
G36*
X89740Y719620D02*
G01*
X115420Y719620D01*
X115420Y745300D01*
X110920Y742820D01*
X105480Y738960D01*
X100520Y734520D01*
X96080Y729560D01*
X92220Y724120D01*
G37*
G36*
X484580Y719620D02*
G01*
X510260Y719620D01*
X507780Y724120D01*
X503920Y729560D01*
X499480Y734520D01*
X494520Y738960D01*
X489080Y742820D01*
X484580Y745300D01*
G37*
G36*
X404700Y719620D02*
G01*
X430379Y719620D01*
X430379Y745300D01*
X425880Y742820D01*
X420439Y738960D01*
X415480Y734520D01*
X411040Y729560D01*
X407180Y724120D01*
G37*
G36*
X1864580Y719620D02*
G01*
X1890260Y719620D01*
X1887780Y724120D01*
X1883920Y729560D01*
X1879480Y734520D01*
X1874520Y738960D01*
X1869079Y742820D01*
X1864580Y745300D01*
G37*
G36*
X1549620Y719620D02*
G01*
X1575300Y719620D01*
X1572820Y724120D01*
X1568959Y729560D01*
X1564520Y734520D01*
X1559560Y738960D01*
X1554120Y742820D01*
X1549620Y745300D01*
G37*
G36*
X1469740Y719620D02*
G01*
X1495420Y719620D01*
X1495420Y745300D01*
X1490920Y742820D01*
X1485480Y738960D01*
X1480520Y734520D01*
X1476080Y729560D01*
X1472220Y724120D01*
G37*
G36*
X1784700Y719620D02*
G01*
X1810380Y719620D01*
X1810380Y745300D01*
X1805880Y742820D01*
X1800440Y738960D01*
X1795480Y734520D01*
X1791040Y729560D01*
X1787180Y724120D01*
G37*
G36*
X301580Y794560D02*
G01*
X307900Y795100D01*
X314100Y796360D01*
X320120Y798319D01*
X325880Y800939D01*
X331300Y804220D01*
X336320Y808080D01*
X340860Y812500D01*
X344880Y817400D01*
X348300Y822720D01*
X351100Y828400D01*
X353220Y834380D01*
X354660Y840540D01*
X355379Y846840D01*
X355379Y853160D01*
X354660Y859460D01*
X353220Y865620D01*
X351100Y871600D01*
X348300Y877280D01*
X344880Y882600D01*
X340860Y887500D01*
X336320Y891919D01*
X331300Y895780D01*
X325880Y899060D01*
X320120Y901680D01*
X314100Y903640D01*
X307900Y904900D01*
X301580Y905440D01*
X295260Y905260D01*
X288980Y904360D01*
X282860Y902760D01*
X276960Y900460D01*
X271360Y897500D01*
X266120Y893920D01*
X261340Y889780D01*
X257060Y885120D01*
X253340Y879980D01*
X250219Y874479D01*
X247760Y868640D01*
X245980Y862560D01*
X244899Y856320D01*
X244540Y850000D01*
X244899Y843680D01*
X245980Y837440D01*
X247760Y831360D01*
X250219Y825520D01*
X253340Y820020D01*
X257060Y814880D01*
X261340Y810220D01*
X266120Y806080D01*
X271360Y802500D01*
X276960Y799539D01*
X282860Y797240D01*
X288980Y795639D01*
X295260Y794740D01*
G37*
G36*
X1678420Y794560D02*
G01*
X1684740Y794740D01*
X1691020Y795639D01*
X1697140Y797240D01*
X1703040Y799539D01*
X1708640Y802500D01*
X1713880Y806080D01*
X1718660Y810220D01*
X1722940Y814880D01*
X1726660Y820020D01*
X1729780Y825520D01*
X1732240Y831360D01*
X1734019Y837440D01*
X1735100Y843680D01*
X1735460Y850000D01*
X1735100Y856320D01*
X1734019Y862560D01*
X1732240Y868640D01*
X1729780Y874479D01*
X1726660Y879980D01*
X1722940Y885120D01*
X1718660Y889780D01*
X1713880Y893920D01*
X1708640Y897500D01*
X1703040Y900460D01*
X1697140Y902760D01*
X1691020Y904360D01*
X1684740Y905260D01*
X1678420Y905440D01*
X1672100Y904900D01*
X1665900Y903640D01*
X1659880Y901680D01*
X1654120Y899060D01*
X1648700Y895780D01*
X1643680Y891919D01*
X1639139Y887500D01*
X1635120Y882600D01*
X1631699Y877280D01*
X1628899Y871600D01*
X1626780Y865620D01*
X1625340Y859460D01*
X1624620Y853160D01*
X1624620Y846840D01*
X1625340Y840540D01*
X1626780Y834380D01*
X1628899Y828400D01*
X1631699Y822720D01*
X1635120Y817400D01*
X1639139Y812500D01*
X1643680Y808080D01*
X1648700Y804220D01*
X1654120Y800939D01*
X1659880Y798319D01*
X1665900Y796360D01*
X1672100Y795100D01*
G37*
G36*
X115420Y954700D02*
G01*
X115420Y980380D01*
X89740Y980380D01*
X92220Y975879D01*
X96080Y970440D01*
X100520Y965480D01*
X105480Y961040D01*
X110920Y957180D01*
G37*
G36*
X169620Y954700D02*
G01*
X174120Y957180D01*
X179560Y961040D01*
X184520Y965480D01*
X188960Y970440D01*
X192820Y975879D01*
X195300Y980380D01*
X169620Y980380D01*
G37*
G36*
X484580Y954700D02*
G01*
X489080Y957180D01*
X494520Y961040D01*
X499480Y965480D01*
X503920Y970440D01*
X507780Y975879D01*
X510260Y980380D01*
X484580Y980380D01*
G37*
G36*
X430379Y954700D02*
G01*
X430379Y980380D01*
X404700Y980380D01*
X407180Y975879D01*
X411040Y970440D01*
X415480Y965480D01*
X420439Y961040D01*
X425880Y957180D01*
G37*
G36*
X1549620Y954700D02*
G01*
X1554120Y957180D01*
X1559560Y961040D01*
X1564520Y965480D01*
X1568959Y970440D01*
X1572820Y975879D01*
X1575300Y980380D01*
X1549620Y980380D01*
G37*
G36*
X1810380Y954700D02*
G01*
X1810380Y980380D01*
X1784700Y980380D01*
X1787180Y975879D01*
X1791040Y970440D01*
X1795480Y965480D01*
X1800440Y961040D01*
X1805880Y957180D01*
G37*
G36*
X1495420Y954700D02*
G01*
X1495420Y980380D01*
X1469740Y980380D01*
X1472220Y975879D01*
X1476080Y970440D01*
X1480520Y965480D01*
X1485480Y961040D01*
X1490920Y957180D01*
G37*
G36*
X1864580Y954700D02*
G01*
X1869079Y957180D01*
X1874520Y961040D01*
X1879480Y965480D01*
X1883920Y970440D01*
X1887780Y975879D01*
X1890260Y980380D01*
X1864580Y980380D01*
G37*
G36*
X89740Y1034580D02*
G01*
X115420Y1034580D01*
X115420Y1060260D01*
X110920Y1057780D01*
X105480Y1053920D01*
X100520Y1049480D01*
X96080Y1044520D01*
X92220Y1039080D01*
G37*
G36*
X169620Y1034580D02*
G01*
X195300Y1034580D01*
X192820Y1039080D01*
X188960Y1044520D01*
X184520Y1049480D01*
X179560Y1053920D01*
X174120Y1057780D01*
X169620Y1060260D01*
G37*
G36*
X484580Y1034580D02*
G01*
X510260Y1034580D01*
X507780Y1039080D01*
X503920Y1044520D01*
X499480Y1049480D01*
X494520Y1053920D01*
X489080Y1057780D01*
X484580Y1060260D01*
G37*
G36*
X1549620Y1034580D02*
G01*
X1575300Y1034580D01*
X1572820Y1039080D01*
X1568959Y1044520D01*
X1564520Y1049480D01*
X1559560Y1053920D01*
X1554120Y1057780D01*
X1549620Y1060260D01*
G37*
G36*
X404700Y1034580D02*
G01*
X430379Y1034580D01*
X430379Y1060260D01*
X425880Y1057780D01*
X420439Y1053920D01*
X415480Y1049480D01*
X411040Y1044520D01*
X407180Y1039080D01*
G37*
G36*
X1864580Y1034580D02*
G01*
X1890260Y1034580D01*
X1887780Y1039080D01*
X1883920Y1044520D01*
X1879480Y1049480D01*
X1874520Y1053920D01*
X1869079Y1057780D01*
X1864580Y1060260D01*
G37*
G36*
X1784700Y1034580D02*
G01*
X1810380Y1034580D01*
X1810380Y1060260D01*
X1805880Y1057780D01*
X1800440Y1053920D01*
X1795480Y1049480D01*
X1791040Y1044520D01*
X1787180Y1039080D01*
G37*
G36*
X1469740Y1034580D02*
G01*
X1495420Y1034580D01*
X1495420Y1060260D01*
X1490920Y1057780D01*
X1485480Y1053920D01*
X1480520Y1049480D01*
X1476080Y1044520D01*
X1472220Y1039080D01*
G37*

%LPD*%
D10*
X716290Y480290D02*
G01*
X877440Y319140D01*
X877440Y314810D01*
D11*
G01*
X1522520Y692520D03*
G01*
X1522520Y1007480D03*
G01*
X1837480Y1007480D03*
G01*
X1837480Y692520D03*
D12*
G01*
X1680000Y850000D03*
D11*
G01*
X457480Y1007480D03*
G01*
X457480Y692520D03*
G01*
X142520Y692520D03*
G01*
X142520Y1007480D03*
D12*
G01*
X300000Y850000D03*
D11*
G01*
X1272520Y457480D03*
G01*
X1587480Y457480D03*
G01*
X1587480Y142520D03*
G01*
X1272520Y142520D03*
D12*
G01*
X1430000Y300000D03*
D13*
G01*
X814960Y559060D03*
G01*
X1053160Y556330D03*
G01*
X838580Y433070D03*
G01*
X716290Y480290D03*
D14*
G01*
X877440Y314810D03*
D13*
G01*
X677680Y302200D03*
G01*
X633950Y301410D03*
G01*
X75000Y500000D03*
G01*
X75000Y450000D03*
G01*
X75000Y400000D03*
G01*
X75000Y350000D03*
G01*
X75000Y300000D03*
G01*
X75000Y250000D03*
G01*
X125000Y500000D03*
G01*
X125000Y450000D03*
G01*
X125000Y400000D03*
G01*
X125000Y350000D03*
G01*
X125000Y300000D03*
G01*
X125000Y250000D03*
G01*
X275000Y75000D03*
G01*
X350000Y75000D03*
G01*
X425000Y75000D03*
G01*
X500000Y75000D03*
G01*
X575000Y75000D03*
G01*
X650000Y75000D03*
G01*
X725000Y75000D03*
G01*
X800000Y75000D03*
G01*
X875000Y75000D03*
G01*
X950000Y75000D03*
G01*
X1025000Y75000D03*
G01*
X1100000Y75000D03*
G01*
X125000Y1175000D03*
G01*
X175000Y1175000D03*
G01*
X225000Y1175000D03*
G01*
X275000Y1175000D03*
G01*
X325000Y1175000D03*
G01*
X375000Y1175000D03*
G01*
X425000Y1175000D03*
G01*
X475000Y1175000D03*
G01*
X525000Y1175000D03*
G01*
X575000Y1175000D03*
G01*
X125000Y1125000D03*
G01*
X175000Y1125000D03*
G01*
X225000Y1125000D03*
G01*
X275000Y1125000D03*
G01*
X325000Y1125000D03*
G01*
X375000Y1125000D03*
G01*
X425000Y1125000D03*
G01*
X475000Y1125000D03*
G01*
X525000Y1125000D03*
G01*
X575000Y1125000D03*
G01*
X225000Y1075000D03*
G01*
X275000Y1075000D03*
G01*
X325000Y1075000D03*
G01*
X375000Y1075000D03*
G01*
X325000Y1025000D03*
G01*
X275000Y1025000D03*
G01*
X225000Y1025000D03*
G01*
X375000Y1025000D03*
G01*
X375000Y975000D03*
G01*
X325000Y975000D03*
G01*
X275000Y975000D03*
G01*
X225000Y975000D03*
G01*
X175000Y925000D03*
G01*
X125000Y925000D03*
G01*
X125000Y875000D03*
G01*
X175000Y875000D03*
G01*
X175000Y825000D03*
G01*
X125000Y825000D03*
G01*
X125000Y775000D03*
G01*
X175000Y775000D03*
G01*
X225000Y775000D03*
G01*
X225000Y725000D03*
G01*
X275000Y725000D03*
G01*
X325000Y725000D03*
G01*
X375000Y725000D03*
G01*
X375000Y675000D03*
G01*
X325000Y675000D03*
G01*
X275000Y675000D03*
G01*
X225000Y675000D03*
G01*
X575000Y1075000D03*
G01*
X525000Y1075000D03*
G01*
X575000Y1025000D03*
G01*
X575000Y975000D03*
G01*
X575000Y925000D03*
G01*
X525000Y975000D03*
G01*
X525000Y925000D03*
G01*
X225000Y625000D03*
G01*
X275000Y625000D03*
G01*
X325000Y625000D03*
G01*
X375000Y625000D03*
G01*
X1175000Y75000D03*
G01*
X1350000Y75000D03*
G01*
X1400000Y75000D03*
G01*
X1450000Y75000D03*
G01*
X1500000Y75000D03*
G01*
X1500000Y125000D03*
G01*
X1450000Y125000D03*
G01*
X1400000Y125000D03*
G01*
X1350000Y125000D03*
G01*
X1350000Y175000D03*
G01*
X1400000Y175000D03*
G01*
X1450000Y175000D03*
G01*
X1500000Y175000D03*
G01*
X1175000Y125000D03*
G01*
X1175000Y175000D03*
G01*
X1125000Y175000D03*
G01*
X1125000Y125000D03*
G01*
X1675000Y75000D03*
G01*
X1725000Y75000D03*
G01*
X1725000Y125000D03*
G01*
X1675000Y125000D03*
G01*
X1675000Y175000D03*
G01*
X1725000Y175000D03*
G01*
X1725000Y225000D03*
G01*
X1675000Y225000D03*
G01*
X1675000Y275000D03*
G01*
X1725000Y275000D03*
G01*
X1725000Y325000D03*
G01*
X1675000Y325000D03*
G01*
X1675000Y375000D03*
G01*
X1725000Y375000D03*
G01*
X1725000Y425000D03*
G01*
X1675000Y425000D03*
G01*
X1675000Y475000D03*
G01*
X1725000Y475000D03*
G01*
X1625000Y325000D03*
G01*
X1625000Y275000D03*
G01*
X1625000Y225000D03*
G01*
X1575000Y325000D03*
G01*
X1575000Y275000D03*
G01*
X1500000Y475000D03*
G01*
X1450000Y475000D03*
G01*
X1400000Y475000D03*
G01*
X1350000Y475000D03*
G01*
X1350000Y425000D03*
G01*
X1400000Y425000D03*
G01*
X1450000Y425000D03*
G01*
X1500000Y425000D03*
G01*
X1175000Y425000D03*
G01*
X1175000Y475000D03*
G01*
X1125000Y475000D03*
G01*
X1125000Y425000D03*
G01*
X1075000Y425000D03*
G01*
X1075000Y475000D03*
G01*
X1175000Y550000D03*
G01*
X1125000Y550000D03*
G01*
X1025000Y475000D03*
G01*
X1025000Y425000D03*
G01*
X975000Y425000D03*
G01*
X975000Y475000D03*
G01*
X925000Y475000D03*
G01*
X925000Y425000D03*
G01*
X925000Y525000D03*
G01*
X925000Y575000D03*
G01*
X925000Y625000D03*
G01*
X925000Y675000D03*
G01*
X975000Y675000D03*
G01*
X975000Y625000D03*
G01*
X975000Y575000D03*
G01*
X975000Y525000D03*
G01*
X525000Y625000D03*
G01*
X575000Y625000D03*
G01*
X625000Y625000D03*
G01*
X625000Y575000D03*
G01*
X575000Y575000D03*
G01*
X525000Y575000D03*
G01*
X275000Y125000D03*
G01*
X350000Y125000D03*
G01*
X425000Y125000D03*
G01*
X500000Y125000D03*
G01*
X575000Y125000D03*
G01*
X575000Y175000D03*
G01*
X500000Y175000D03*
G01*
X425000Y175000D03*
G01*
X350000Y175000D03*
G01*
X1500000Y900000D03*
G01*
X1500000Y850000D03*
G01*
X1500000Y800000D03*
G01*
X1550000Y900000D03*
G01*
X1550000Y850000D03*
G01*
X1550000Y800000D03*
G01*
X1625000Y725000D03*
G01*
X1675000Y725000D03*
G01*
X1725000Y725000D03*
G01*
X1625000Y675000D03*
G01*
X1675000Y675000D03*
G01*
X1725000Y675000D03*
G01*
X1800000Y800000D03*
G01*
X1850000Y800000D03*
G01*
X1800000Y850000D03*
G01*
X1850000Y850000D03*
G01*
X1800000Y900000D03*
G01*
X1850000Y900000D03*
G01*
X1725000Y1050000D03*
G01*
X1725000Y1000000D03*
G01*
X1675000Y1050000D03*
G01*
X1675000Y1000000D03*
G01*
X1625000Y1050000D03*
G01*
X1625000Y1000000D03*
G01*
X375000Y775000D03*
G01*
X475000Y925000D03*
G01*
X425000Y925000D03*
G01*
X375000Y925000D03*
G01*
X425000Y775000D03*
G01*
X711000Y851000D03*
G01*
X770000Y708000D03*
G01*
X1050000Y723000D03*
G01*
X181000Y221000D03*
M02*
