G04 Layer: TopSilkscreenLayer*
G04 EasyEDA v6.5.44, 2024-07-31 14:11:33*
G04 0a0e6e5985404cbc94c0c78cb0e903e1,401f954c81374b6587e5d63e119e93f9,10*
G04 Gerber Generator version 0.2*
G04 Scale: 100 percent, Rotated: No, Reflected: No *
G04 Dimensions in inches *
G04 leading zeros omitted , absolute positions ,3 integer and 6 decimal *
%FSLAX36Y36*%
%MOIN*%

%ADD10C,0.0060*%
%ADD11C,0.0100*%
%ADD12C,0.0118*%

%LPD*%
G36*
X905400Y1044200D02*
G01*
X903199Y1044060D01*
X901140Y1043620D01*
X899200Y1042900D01*
X897400Y1041919D01*
X895780Y1040680D01*
X894320Y1039180D01*
X893060Y1037440D01*
X892000Y1035480D01*
X891140Y1033280D01*
X890520Y1030860D01*
X890140Y1028220D01*
X890000Y1025400D01*
X894200Y1025400D01*
X894400Y1028760D01*
X895000Y1031740D01*
X895980Y1034340D01*
X897280Y1036520D01*
X898920Y1038259D01*
X900819Y1039539D01*
X903000Y1040340D01*
X905400Y1040600D01*
X907840Y1040340D01*
X910040Y1039539D01*
X911960Y1038259D01*
X913600Y1036520D01*
X914920Y1034340D01*
X915900Y1031740D01*
X916500Y1028760D01*
X916700Y1025400D01*
X916500Y1022000D01*
X915900Y1018960D01*
X914920Y1016280D01*
X913600Y1014040D01*
X911960Y1012240D01*
X910040Y1010900D01*
X907840Y1010080D01*
X905400Y1009800D01*
X903000Y1010080D01*
X900819Y1010900D01*
X898920Y1012240D01*
X897280Y1014040D01*
X895980Y1016280D01*
X895000Y1018960D01*
X894400Y1022000D01*
X894200Y1025400D01*
X890000Y1025400D01*
X890120Y1022800D01*
X890440Y1020360D01*
X890960Y1018080D01*
X891700Y1015980D01*
X892600Y1014080D01*
X893700Y1012360D01*
X894960Y1010819D01*
X896380Y1009520D01*
X897940Y1008420D01*
X899620Y1007540D01*
X901460Y1006900D01*
X903400Y1006500D01*
X904240Y1004700D01*
X905320Y1003040D01*
X906640Y1001580D01*
X908180Y1000320D01*
X909960Y999300D01*
X911940Y998540D01*
X914120Y998060D01*
X916500Y997900D01*
X918020Y997960D01*
X920600Y998400D01*
X921500Y998700D01*
X920800Y1002000D01*
X919120Y1001580D01*
X917000Y1001400D01*
X914020Y1001720D01*
X911460Y1002680D01*
X909360Y1004260D01*
X907800Y1006500D01*
X909700Y1006940D01*
X911480Y1007620D01*
X913139Y1008520D01*
X914659Y1009620D01*
X916040Y1010939D01*
X917280Y1012460D01*
X918340Y1014180D01*
X919240Y1016080D01*
X919960Y1018160D01*
X920480Y1020400D01*
X920800Y1022820D01*
X920900Y1025400D01*
X920759Y1028220D01*
X920380Y1030860D01*
X919760Y1033280D01*
X918900Y1035480D01*
X917840Y1037440D01*
X916560Y1039180D01*
X915100Y1040680D01*
X913460Y1041919D01*
X911660Y1042900D01*
X909700Y1043620D01*
X907620Y1044060D01*
G37*
G36*
X1100300Y1044200D02*
G01*
X1097160Y1043820D01*
X1094400Y1042740D01*
X1091940Y1041080D01*
X1089700Y1038900D01*
X1092000Y1036600D01*
X1093720Y1038280D01*
X1095600Y1039659D01*
X1097620Y1040560D01*
X1099800Y1040900D01*
X1102920Y1040340D01*
X1105100Y1038760D01*
X1106380Y1036380D01*
X1106800Y1033400D01*
X1106700Y1031780D01*
X1106360Y1030120D01*
X1105800Y1028400D01*
X1105020Y1026620D01*
X1104000Y1024780D01*
X1102740Y1022880D01*
X1101240Y1020879D01*
X1099480Y1018800D01*
X1097480Y1016640D01*
X1095220Y1014360D01*
X1089900Y1009500D01*
X1089900Y1007000D01*
X1112500Y1007000D01*
X1112500Y1010500D01*
X1100580Y1010480D01*
X1096100Y1010200D01*
X1100280Y1014340D01*
X1102160Y1016360D01*
X1105420Y1020320D01*
X1106780Y1022280D01*
X1107980Y1024200D01*
X1108960Y1026120D01*
X1109760Y1028000D01*
X1110320Y1029880D01*
X1110680Y1031740D01*
X1110800Y1033600D01*
X1110620Y1035920D01*
X1110080Y1038000D01*
X1109200Y1039820D01*
X1107980Y1041340D01*
X1106480Y1042560D01*
X1104680Y1043460D01*
X1102620Y1044020D01*
G37*
G36*
X1142300Y1044200D02*
G01*
X1140640Y1044080D01*
X1139080Y1043680D01*
X1137640Y1043040D01*
X1136320Y1042140D01*
X1135160Y1040980D01*
X1134120Y1039560D01*
X1133220Y1037880D01*
X1132480Y1035920D01*
X1131880Y1033700D01*
X1131460Y1031200D01*
X1131180Y1028439D01*
X1131100Y1025400D01*
X1135000Y1025400D01*
X1135140Y1029160D01*
X1135540Y1032380D01*
X1136180Y1035060D01*
X1137040Y1037200D01*
X1138100Y1038840D01*
X1139340Y1040000D01*
X1140760Y1040680D01*
X1142300Y1040900D01*
X1143880Y1040680D01*
X1145280Y1040000D01*
X1146520Y1038840D01*
X1147560Y1037200D01*
X1148380Y1035060D01*
X1149000Y1032380D01*
X1149380Y1029160D01*
X1149500Y1025400D01*
X1149380Y1021600D01*
X1149000Y1018340D01*
X1148380Y1015639D01*
X1147560Y1013460D01*
X1146520Y1011800D01*
X1145280Y1010620D01*
X1143880Y1009920D01*
X1142300Y1009700D01*
X1140760Y1009920D01*
X1139340Y1010620D01*
X1138100Y1011800D01*
X1137040Y1013460D01*
X1136180Y1015639D01*
X1135540Y1018340D01*
X1135140Y1021600D01*
X1135000Y1025400D01*
X1131100Y1025400D01*
X1131180Y1022340D01*
X1131460Y1019539D01*
X1131880Y1017039D01*
X1132480Y1014780D01*
X1133220Y1012800D01*
X1134120Y1011100D01*
X1135160Y1009659D01*
X1136320Y1008480D01*
X1137640Y1007560D01*
X1139080Y1006919D01*
X1140640Y1006520D01*
X1142300Y1006400D01*
X1143960Y1006520D01*
X1145520Y1006919D01*
X1146960Y1007560D01*
X1148280Y1008480D01*
X1149440Y1009659D01*
X1150480Y1011100D01*
X1151380Y1012800D01*
X1152120Y1014780D01*
X1152720Y1017039D01*
X1153140Y1019539D01*
X1153420Y1022340D01*
X1153500Y1025400D01*
X1153420Y1028439D01*
X1153140Y1031200D01*
X1152720Y1033700D01*
X1152120Y1035920D01*
X1151380Y1037880D01*
X1150480Y1039560D01*
X1149440Y1040980D01*
X1148280Y1042140D01*
X1146960Y1043040D01*
X1145520Y1043680D01*
X1143960Y1044080D01*
G37*
G36*
X929000Y1043600D02*
G01*
X929000Y1007000D01*
X949300Y1007000D01*
X949300Y1010500D01*
X933100Y1010500D01*
X933100Y1043600D01*
G37*
G36*
X1059400Y1043600D02*
G01*
X1071200Y1007000D01*
X1075900Y1007000D01*
X1087600Y1043600D01*
X1083400Y1043600D01*
X1074680Y1014380D01*
X1073700Y1011300D01*
X1073500Y1011300D01*
X1069900Y1023400D01*
X1063700Y1043600D01*
G37*
G36*
X965300Y1034700D02*
G01*
X962180Y1034360D01*
X959340Y1033520D01*
X956840Y1032380D01*
X954800Y1031200D01*
X956500Y1028300D01*
X958160Y1029400D01*
X960120Y1030360D01*
X962300Y1031040D01*
X964700Y1031300D01*
X967540Y1030680D01*
X969320Y1029040D01*
X970200Y1026700D01*
X970400Y1024000D01*
X966360Y1023460D01*
X962900Y1022740D01*
X960020Y1021840D01*
X957700Y1020720D01*
X955920Y1019380D01*
X954680Y1017800D01*
X953940Y1015980D01*
X953734Y1014200D01*
X957600Y1014200D01*
X957760Y1015520D01*
X958259Y1016720D01*
X959140Y1017780D01*
X960440Y1018720D01*
X962180Y1019539D01*
X964400Y1020240D01*
X967120Y1020840D01*
X970400Y1021300D01*
X970400Y1013400D01*
X968439Y1011760D01*
X966540Y1010620D01*
X964620Y1009920D01*
X962600Y1009700D01*
X960680Y1009940D01*
X959080Y1010720D01*
X958000Y1012099D01*
X957600Y1014200D01*
X953734Y1014200D01*
X953700Y1013900D01*
X954300Y1010660D01*
X955960Y1008319D01*
X958420Y1006880D01*
X961500Y1006400D01*
X964000Y1006700D01*
X966340Y1007520D01*
X968560Y1008760D01*
X970600Y1010300D01*
X970800Y1010300D01*
X971100Y1007000D01*
X974500Y1007000D01*
X974500Y1023700D01*
X974380Y1026060D01*
X974000Y1028199D01*
X973319Y1030080D01*
X972380Y1031680D01*
X971120Y1032960D01*
X969520Y1033900D01*
X967600Y1034500D01*
G37*
G36*
X990900Y1034700D02*
G01*
X987020Y1034120D01*
X984120Y1032520D01*
X982320Y1030140D01*
X981700Y1027200D01*
X982420Y1024240D01*
X984280Y1022080D01*
X986840Y1020520D01*
X989700Y1019300D01*
X992000Y1018480D01*
X994020Y1017400D01*
X995460Y1015960D01*
X996000Y1014000D01*
X995660Y1012240D01*
X994620Y1010819D01*
X992880Y1009860D01*
X990400Y1009500D01*
X988020Y1009740D01*
X985939Y1010440D01*
X984060Y1011480D01*
X982300Y1012800D01*
X980200Y1010100D01*
X982320Y1008600D01*
X984760Y1007420D01*
X987440Y1006660D01*
X990300Y1006400D01*
X992500Y1006560D01*
X994419Y1007020D01*
X996060Y1007760D01*
X997420Y1008720D01*
X998500Y1009880D01*
X999280Y1011200D01*
X999740Y1012660D01*
X999900Y1014200D01*
X999160Y1017460D01*
X997220Y1019700D01*
X994539Y1021260D01*
X991600Y1022500D01*
X989380Y1023340D01*
X987480Y1024340D01*
X986180Y1025600D01*
X985699Y1027300D01*
X986000Y1028860D01*
X986960Y1030180D01*
X988560Y1031060D01*
X990900Y1031400D01*
X992680Y1031220D01*
X994260Y1030720D01*
X995720Y1029960D01*
X997099Y1029000D01*
X999100Y1031700D01*
X997440Y1032880D01*
X995480Y1033840D01*
X993300Y1034479D01*
G37*
G36*
X1016500Y1034700D02*
G01*
X1014200Y1034440D01*
X1012000Y1033700D01*
X1009940Y1032500D01*
X1008120Y1030860D01*
X1006600Y1028820D01*
X1005420Y1026380D01*
X1004659Y1023600D01*
X1004576Y1022600D01*
X1008400Y1022600D01*
X1009360Y1026300D01*
X1011180Y1029060D01*
X1013640Y1030800D01*
X1016500Y1031400D01*
X1019460Y1030840D01*
X1021640Y1029180D01*
X1023020Y1026420D01*
X1023500Y1022600D01*
X1004576Y1022600D01*
X1004400Y1020500D01*
X1004659Y1017340D01*
X1005400Y1014539D01*
X1006580Y1012120D01*
X1008139Y1010120D01*
X1010020Y1008520D01*
X1012200Y1007360D01*
X1014620Y1006640D01*
X1017200Y1006400D01*
X1019860Y1006620D01*
X1022180Y1007180D01*
X1024240Y1008040D01*
X1026100Y1009100D01*
X1024599Y1011800D01*
X1023060Y1010860D01*
X1021420Y1010180D01*
X1019640Y1009740D01*
X1017700Y1009599D01*
X1015759Y1009780D01*
X1014020Y1010320D01*
X1012460Y1011180D01*
X1011160Y1012360D01*
X1010080Y1013800D01*
X1009260Y1015500D01*
X1008740Y1017440D01*
X1008500Y1019599D01*
X1026900Y1019599D01*
X1027080Y1020759D01*
X1027099Y1022000D01*
X1026919Y1024780D01*
X1026380Y1027280D01*
X1025520Y1029440D01*
X1024320Y1031280D01*
X1022800Y1032740D01*
X1020980Y1033820D01*
X1018880Y1034479D01*
G37*
G36*
X1045500Y1034700D02*
G01*
X1043259Y1034300D01*
X1041200Y1033160D01*
X1039360Y1031360D01*
X1037800Y1029000D01*
X1037700Y1029000D01*
X1037300Y1034000D01*
X1034000Y1034000D01*
X1034000Y1007000D01*
X1038000Y1007000D01*
X1038000Y1024599D01*
X1039580Y1027580D01*
X1041340Y1029560D01*
X1043199Y1030660D01*
X1045000Y1031000D01*
X1046280Y1030920D01*
X1047500Y1030600D01*
X1048300Y1034100D01*
X1046979Y1034560D01*
G37*
G36*
X1121800Y1012800D02*
G01*
X1120600Y1012560D01*
X1119620Y1011900D01*
X1118940Y1010860D01*
X1118700Y1009500D01*
X1118940Y1008220D01*
X1119620Y1007240D01*
X1120600Y1006620D01*
X1121800Y1006400D01*
X1123000Y1006620D01*
X1123980Y1007240D01*
X1124660Y1008220D01*
X1124900Y1009500D01*
X1124660Y1010860D01*
X1123980Y1011900D01*
X1123000Y1012560D01*
G37*
D10*
X850005Y1133611D02*
G01*
X850005Y1077211D01*
X850005Y1133611D02*
G01*
X874205Y1133611D01*
X882205Y1130911D01*
X884905Y1128211D01*
X887604Y1122911D01*
X887604Y1117511D01*
X884905Y1112111D01*
X882205Y1109411D01*
X874205Y1106711D01*
X850005Y1106711D02*
G01*
X874205Y1106711D01*
X882205Y1104111D01*
X884905Y1101411D01*
X887604Y1096011D01*
X887604Y1088011D01*
X884905Y1082611D01*
X882205Y1079911D01*
X874205Y1077211D01*
X850005Y1077211D01*
X905305Y1114811D02*
G01*
X905305Y1088011D01*
X908005Y1079911D01*
X913405Y1077211D01*
X921405Y1077211D01*
X926805Y1079911D01*
X934805Y1088011D01*
X934805Y1114811D02*
G01*
X934805Y1077211D01*
X952505Y1114811D02*
G01*
X952505Y1077211D01*
X952505Y1098711D02*
G01*
X955205Y1106711D01*
X960605Y1112111D01*
X966005Y1114811D01*
X974004Y1114811D01*
X991705Y1133611D02*
G01*
X991705Y1077211D01*
X1018605Y1114811D02*
G01*
X991705Y1088011D01*
X1002505Y1098711D02*
G01*
X1021305Y1077211D01*
X1039004Y1098711D02*
G01*
X1071205Y1098711D01*
X1071205Y1104111D01*
X1068505Y1109411D01*
X1065805Y1112111D01*
X1060505Y1114811D01*
X1052405Y1114811D01*
X1047005Y1112111D01*
X1041705Y1106711D01*
X1039004Y1098711D01*
X1039004Y1093311D01*
X1041705Y1085311D01*
X1047005Y1079911D01*
X1052405Y1077211D01*
X1060505Y1077211D01*
X1065805Y1079911D01*
X1071205Y1085311D01*
X1088905Y1133611D02*
G01*
X1088905Y1077211D01*
X1088905Y1077211D02*
G01*
X1121105Y1077211D01*
X1171005Y1114811D02*
G01*
X1171005Y1077211D01*
X1171005Y1106711D02*
G01*
X1165705Y1112111D01*
X1160305Y1114811D01*
X1152305Y1114811D01*
X1146905Y1112111D01*
X1141505Y1106711D01*
X1138805Y1098711D01*
X1138805Y1093311D01*
X1141505Y1085311D01*
X1146905Y1079911D01*
X1152305Y1077211D01*
X1160305Y1077211D01*
X1165705Y1079911D01*
X1171005Y1085311D01*
X1188805Y1133611D02*
G01*
X1188805Y1077211D01*
X1188805Y1106711D02*
G01*
X1194105Y1112111D01*
X1199505Y1114811D01*
X1207605Y1114811D01*
X1212905Y1112111D01*
X1218305Y1106711D01*
X1221005Y1098711D01*
X1221005Y1093311D01*
X1218305Y1085311D01*
X1212905Y1079911D01*
X1207605Y1077211D01*
X1199505Y1077211D01*
X1194105Y1079911D01*
X1188805Y1085311D01*
X1322000Y561400D02*
G01*
X1322000Y518500D01*
X1322000Y518500D02*
G01*
X1346500Y518500D01*
X1376399Y561400D02*
G01*
X1360000Y518500D01*
X1376399Y561400D02*
G01*
X1392800Y518500D01*
X1366200Y532800D02*
G01*
X1386600Y532800D01*
X1434900Y555300D02*
G01*
X1430800Y559400D01*
X1424700Y561400D01*
X1416500Y561400D01*
X1410400Y559400D01*
X1406300Y555300D01*
X1406300Y551200D01*
X1408300Y547100D01*
X1410400Y545000D01*
X1414500Y543000D01*
X1426699Y538900D01*
X1430800Y536900D01*
X1432900Y534800D01*
X1434900Y530700D01*
X1434900Y524600D01*
X1430800Y520500D01*
X1424700Y518500D01*
X1416500Y518500D01*
X1410400Y520500D01*
X1406300Y524600D01*
X1448400Y561400D02*
G01*
X1448400Y518500D01*
X1448400Y561400D02*
G01*
X1475000Y561400D01*
X1448400Y541000D02*
G01*
X1464800Y541000D01*
X1448400Y518500D02*
G01*
X1475000Y518500D01*
X1488500Y561400D02*
G01*
X1488500Y518500D01*
X1488500Y561400D02*
G01*
X1506900Y561400D01*
X1513000Y559400D01*
X1515100Y557300D01*
X1517100Y553200D01*
X1517100Y549100D01*
X1515100Y545000D01*
X1513000Y543000D01*
X1506900Y541000D01*
X1488500Y541000D01*
X1502800Y541000D02*
G01*
X1517100Y518500D01*
X644599Y1042300D02*
G01*
X640500Y1046400D01*
X634400Y1048400D01*
X626200Y1048400D01*
X620100Y1046400D01*
X616000Y1042300D01*
X616000Y1038199D01*
X618000Y1034100D01*
X620100Y1032000D01*
X624200Y1030000D01*
X636500Y1025900D01*
X640500Y1023900D01*
X642600Y1021800D01*
X644599Y1017700D01*
X644599Y1011600D01*
X640500Y1007500D01*
X634400Y1005500D01*
X626200Y1005500D01*
X620100Y1007500D01*
X616000Y1011600D01*
X658100Y1048400D02*
G01*
X658100Y1005500D01*
X702300Y1038199D02*
G01*
X700300Y1042300D01*
X696200Y1046400D01*
X692099Y1048400D01*
X683900Y1048400D01*
X679800Y1046400D01*
X675699Y1042300D01*
X673700Y1038199D01*
X671600Y1032000D01*
X671600Y1021800D01*
X673700Y1015699D01*
X675699Y1011600D01*
X679800Y1007500D01*
X683900Y1005500D01*
X692099Y1005500D01*
X696200Y1007500D01*
X700300Y1011600D01*
X702300Y1015699D01*
X702300Y1021800D01*
X692099Y1021800D02*
G01*
X702300Y1021800D01*
X1336600Y793000D02*
G01*
X1379500Y809400D01*
X1336600Y825699D02*
G01*
X1379500Y809400D01*
X1342700Y867900D02*
G01*
X1338600Y863800D01*
X1336600Y857600D01*
X1336600Y849500D01*
X1338600Y843300D01*
X1342700Y839200D01*
X1346800Y839200D01*
X1350900Y841300D01*
X1353000Y843300D01*
X1355000Y847400D01*
X1359100Y859700D01*
X1361100Y863800D01*
X1363200Y865800D01*
X1367300Y867900D01*
X1373400Y867900D01*
X1377500Y863800D01*
X1379500Y857600D01*
X1379500Y849500D01*
X1377500Y843300D01*
X1373400Y839200D01*
X1342700Y910000D02*
G01*
X1338600Y905900D01*
X1336600Y899800D01*
X1336600Y891600D01*
X1338600Y885500D01*
X1342700Y881400D01*
X1346800Y881400D01*
X1350900Y883400D01*
X1353000Y885500D01*
X1355000Y889500D01*
X1359100Y901800D01*
X1361100Y905900D01*
X1363200Y908000D01*
X1367300Y910000D01*
X1373400Y910000D01*
X1377500Y905900D01*
X1379500Y899800D01*
X1379500Y891600D01*
X1377500Y885500D01*
X1373400Y881400D01*
X1434100Y796000D02*
G01*
X1434100Y832800D01*
X1423899Y872900D02*
G01*
X1430000Y870900D01*
X1434100Y866800D01*
X1436200Y860600D01*
X1436200Y858600D01*
X1434100Y852500D01*
X1430000Y848400D01*
X1423899Y846300D01*
X1421900Y846300D01*
X1415700Y848400D01*
X1411600Y852500D01*
X1409600Y858600D01*
X1409600Y860600D01*
X1411600Y866800D01*
X1415700Y870900D01*
X1423899Y872900D01*
X1434100Y872900D01*
X1444400Y870900D01*
X1450500Y866800D01*
X1452500Y860600D01*
X1452500Y856500D01*
X1450500Y850400D01*
X1446399Y848400D01*
X1409600Y886400D02*
G01*
X1452500Y902800D01*
X1409600Y919100D02*
G01*
X1452500Y902800D01*
X629660Y935740D02*
G01*
X629660Y892840D01*
X629660Y935740D02*
G01*
X648060Y935740D01*
X654160Y933740D01*
X656260Y931640D01*
X658259Y927540D01*
X658259Y923439D01*
X656260Y919340D01*
X654160Y917340D01*
X648060Y915340D01*
X629660Y915340D01*
X643960Y915340D02*
G01*
X658259Y892840D01*
X696360Y935740D02*
G01*
X675860Y935740D01*
X673860Y917340D01*
X675860Y919340D01*
X682060Y921440D01*
X688160Y921440D01*
X694260Y919340D01*
X698360Y915340D01*
X700460Y909140D01*
X700460Y905040D01*
X698360Y898940D01*
X694260Y894840D01*
X688160Y892840D01*
X682060Y892840D01*
X675860Y894840D01*
X673860Y896840D01*
X671760Y900939D01*
X338052Y600152D02*
G01*
X338052Y557252D01*
X338052Y600152D02*
G01*
X356452Y600152D01*
X362552Y598152D01*
X364652Y596052D01*
X366652Y591952D01*
X366652Y587852D01*
X364652Y583752D01*
X362552Y581752D01*
X356452Y579752D01*
X338052Y579752D01*
X352352Y579752D02*
G01*
X366652Y557252D01*
X384251Y600152D02*
G01*
X406751Y600152D01*
X394552Y583752D01*
X400652Y583752D01*
X404752Y581752D01*
X406751Y579752D01*
X408852Y573552D01*
X408852Y569452D01*
X406751Y563352D01*
X402652Y559252D01*
X396552Y557252D01*
X390452Y557252D01*
X384251Y559252D01*
X382252Y561252D01*
X380152Y565352D01*
X479891Y454766D02*
G01*
X479891Y411866D01*
X479891Y454766D02*
G01*
X498292Y454766D01*
X504392Y452766D01*
X506492Y450666D01*
X508492Y446566D01*
X508492Y442466D01*
X506492Y438366D01*
X504392Y436366D01*
X498292Y434366D01*
X479891Y434366D01*
X494191Y434366D02*
G01*
X508492Y411866D01*
X542492Y454766D02*
G01*
X521992Y426166D01*
X552692Y426166D01*
X542492Y454766D02*
G01*
X542492Y411866D01*
X829850Y508744D02*
G01*
X825750Y506744D01*
X821650Y502644D01*
X819550Y498544D01*
X817550Y492344D01*
X817550Y482144D01*
X819550Y476044D01*
X821650Y471944D01*
X825750Y467844D01*
X829850Y465844D01*
X838050Y465844D01*
X842050Y467844D01*
X846150Y471944D01*
X848250Y476044D01*
X850250Y482144D01*
X850250Y492344D01*
X848250Y498544D01*
X846150Y502644D01*
X842050Y506744D01*
X838050Y508744D01*
X829850Y508744D01*
X835950Y473944D02*
G01*
X848250Y461744D01*
X888349Y502644D02*
G01*
X886250Y506744D01*
X880150Y508744D01*
X876050Y508744D01*
X869950Y506744D01*
X865849Y500544D01*
X863750Y490344D01*
X863750Y480144D01*
X865849Y471944D01*
X869950Y467844D01*
X876050Y465844D01*
X878050Y465844D01*
X884250Y467844D01*
X888349Y471944D01*
X890350Y478044D01*
X890350Y480144D01*
X888349Y486244D01*
X884250Y490344D01*
X878050Y492344D01*
X876050Y492344D01*
X869950Y490344D01*
X865849Y486244D01*
X863750Y480144D01*
X590000Y575400D02*
G01*
X590000Y532500D01*
X590000Y575400D02*
G01*
X608400Y575400D01*
X614500Y573400D01*
X616600Y571300D01*
X618600Y567200D01*
X618600Y563100D01*
X616600Y559000D01*
X614500Y557000D01*
X608400Y555000D01*
X590000Y555000D01*
X604300Y555000D02*
G01*
X618600Y532500D01*
X632100Y567200D02*
G01*
X636200Y569300D01*
X642400Y575400D01*
X642400Y532500D01*
X360000Y165400D02*
G01*
X360000Y134700D01*
X362000Y128600D01*
X366100Y124500D01*
X372299Y122500D01*
X376400Y122500D01*
X382500Y124500D01*
X386599Y128600D01*
X388600Y134700D01*
X388600Y165400D01*
X406200Y165400D02*
G01*
X428700Y165400D01*
X416500Y149000D01*
X422600Y149000D01*
X426700Y147000D01*
X428700Y145000D01*
X430800Y138800D01*
X430800Y134700D01*
X428700Y128600D01*
X424600Y124500D01*
X418500Y122500D01*
X412400Y122500D01*
X406200Y124500D01*
X404200Y126500D01*
X402100Y130600D01*
X672644Y800304D02*
G01*
X668544Y798304D01*
X664444Y794204D01*
X662343Y790104D01*
X660344Y783904D01*
X660344Y773704D01*
X662343Y767604D01*
X664444Y763503D01*
X668544Y759404D01*
X672644Y757403D01*
X680844Y757403D01*
X684843Y759404D01*
X688944Y763503D01*
X691044Y767604D01*
X693044Y773704D01*
X693044Y783904D01*
X691044Y790104D01*
X688944Y794204D01*
X684843Y798304D01*
X680844Y800304D01*
X672644Y800304D01*
X678744Y765504D02*
G01*
X691044Y753304D01*
X706544Y792104D02*
G01*
X710644Y794204D01*
X716844Y800304D01*
X716844Y757403D01*
X703376Y197094D02*
G01*
X699276Y195095D01*
X695176Y190995D01*
X693075Y186895D01*
X691076Y180695D01*
X691076Y170494D01*
X693075Y164395D01*
X695176Y160295D01*
X699276Y156195D01*
X703376Y154095D01*
X711576Y154095D01*
X715575Y156195D01*
X719676Y160295D01*
X721776Y164395D01*
X723776Y170494D01*
X723776Y180695D01*
X721776Y186895D01*
X719676Y190995D01*
X715575Y195095D01*
X711576Y197094D01*
X703376Y197094D01*
X709476Y162295D02*
G01*
X721776Y150095D01*
X747576Y197094D02*
G01*
X741376Y195095D01*
X739376Y190995D01*
X739376Y186895D01*
X741376Y182795D01*
X745476Y180695D01*
X753676Y178695D01*
X759776Y176595D01*
X763876Y172595D01*
X765976Y168495D01*
X765976Y162295D01*
X763876Y158195D01*
X761876Y156195D01*
X755676Y154095D01*
X747576Y154095D01*
X741376Y156195D01*
X739376Y158195D01*
X737276Y162295D01*
X737276Y168495D01*
X739376Y172595D01*
X743476Y176595D01*
X749576Y178695D01*
X757776Y180695D01*
X761876Y182795D01*
X763876Y186895D01*
X763876Y190995D01*
X761876Y195095D01*
X755676Y197094D01*
X747576Y197094D01*
X885057Y662346D02*
G01*
X889158Y664445D01*
X893258Y668546D01*
X895258Y672546D01*
X895258Y680746D01*
X893258Y684846D01*
X889158Y688946D01*
X885057Y691046D01*
X878858Y693045D01*
X868657Y693045D01*
X862557Y691046D01*
X858458Y688946D01*
X854358Y684846D01*
X852358Y680746D01*
X852358Y672546D01*
X854358Y668546D01*
X858458Y664445D01*
X862557Y662346D01*
X887058Y648846D02*
G01*
X889158Y644746D01*
X895258Y638646D01*
X852358Y638646D01*
X895258Y612846D02*
G01*
X893258Y619046D01*
X887058Y623046D01*
X876858Y625146D01*
X870758Y625146D01*
X860458Y623046D01*
X854358Y619046D01*
X852358Y612846D01*
X852358Y608746D01*
X854358Y602646D01*
X860458Y598546D01*
X870758Y596546D01*
X876858Y596546D01*
X887058Y598546D01*
X893258Y602646D01*
X895258Y608746D01*
X895258Y612846D01*
X976198Y638248D02*
G01*
X972098Y636148D01*
X967998Y632048D01*
X965998Y628048D01*
X965998Y619848D01*
X967998Y615748D01*
X972098Y611648D01*
X976198Y609548D01*
X982398Y607548D01*
X992598Y607548D01*
X998698Y609548D01*
X1002798Y611648D01*
X1006898Y615748D01*
X1008897Y619848D01*
X1008897Y628048D01*
X1006898Y632048D01*
X1002798Y636148D01*
X998698Y638248D01*
X974198Y651748D02*
G01*
X972098Y655848D01*
X965998Y661948D01*
X1008897Y661948D01*
X974198Y675448D02*
G01*
X972098Y679548D01*
X965998Y685648D01*
X1008897Y685648D01*
D11*
X2226462Y1036620D02*
G01*
X2644560Y1036620D01*
X2644560Y662980D01*
X2231327Y662980D01*
X2478077Y662992D02*
G01*
X2478077Y633095D01*
X2550901Y633095D01*
X2550901Y662992D01*
X2550067Y1036637D02*
G01*
X2550067Y1066535D01*
X2477242Y1066535D01*
X2477242Y1036637D01*
X2231332Y634414D02*
G01*
X1910314Y634414D01*
X2230000Y1070000D02*
G01*
X1910314Y1070000D01*
X1878818Y651434D02*
G01*
X1878818Y576378D01*
X1910314Y576378D01*
X1910314Y1121653D01*
X1878818Y1121653D01*
X1878818Y1048566D01*
X1565508Y653165D02*
G01*
X1794510Y653165D01*
X1794500Y1046850D02*
G01*
X1565500Y1046850D01*
X1878818Y966394D02*
G01*
X1878818Y733606D01*
X1485118Y962773D02*
G01*
X1485118Y737227D01*
X2230000Y1070000D02*
G01*
X2183500Y630949D01*
X2231332Y1067484D02*
G01*
X2231332Y634414D01*
X2180000Y1070000D02*
G01*
X2133500Y630949D01*
X2181332Y1067484D02*
G01*
X2181332Y634414D01*
X2130000Y1070000D02*
G01*
X2083500Y630949D01*
X2131332Y1067484D02*
G01*
X2131332Y634414D01*
X2080000Y1070000D02*
G01*
X2033500Y630949D01*
X2081331Y1067484D02*
G01*
X2081331Y634414D01*
X2030000Y1070000D02*
G01*
X1983500Y630949D01*
X2031331Y1067484D02*
G01*
X2031331Y634414D01*
X1980000Y1066535D02*
G01*
X1980000Y633465D01*
X1978668Y1069051D02*
G01*
X1932168Y630000D01*
X-246462Y663379D02*
G01*
X-664560Y663379D01*
X-664560Y1037020D01*
X-251327Y1037020D01*
X-498076Y1037008D02*
G01*
X-498076Y1066905D01*
X-570901Y1066905D01*
X-570901Y1037008D01*
X-570067Y663363D02*
G01*
X-570067Y633465D01*
X-497242Y633465D01*
X-497242Y663363D01*
X-251332Y1065586D02*
G01*
X69686Y1065586D01*
X-250000Y630000D02*
G01*
X69686Y630000D01*
X101182Y1048566D02*
G01*
X101182Y1123622D01*
X69686Y1123622D01*
X69686Y578347D01*
X101182Y578347D01*
X101182Y651434D01*
X414492Y1046835D02*
G01*
X185490Y1046835D01*
X185500Y653150D02*
G01*
X414500Y653150D01*
X101182Y733606D02*
G01*
X101182Y966394D01*
X494882Y737227D02*
G01*
X494882Y962773D01*
X-250000Y630000D02*
G01*
X-203500Y1069051D01*
X-251332Y632516D02*
G01*
X-251332Y1065586D01*
X-200000Y630000D02*
G01*
X-153500Y1069051D01*
X-201332Y632516D02*
G01*
X-201332Y1065586D01*
X-150000Y630000D02*
G01*
X-103500Y1069051D01*
X-151332Y632516D02*
G01*
X-151332Y1065586D01*
X-100000Y630000D02*
G01*
X-53500Y1069051D01*
X-101332Y632516D02*
G01*
X-101332Y1065586D01*
X-50000Y630000D02*
G01*
X-3500Y1069051D01*
X-51332Y632516D02*
G01*
X-51332Y1065586D01*
X0Y633465D02*
G01*
X0Y1066535D01*
X1332Y630949D02*
G01*
X47832Y1070000D01*
D10*
X646440Y824332D02*
G01*
X684191Y824332D01*
X684191Y876348D01*
X646440Y876348D01*
X612880Y824332D02*
G01*
X575129Y824332D01*
X575129Y876348D01*
X612880Y876348D01*
X351252Y536106D02*
G01*
X300664Y536106D01*
X300664Y463894D01*
X351252Y463894D01*
X388748Y536106D02*
G01*
X439336Y536106D01*
X439336Y463894D01*
X388748Y463894D01*
X621252Y436106D02*
G01*
X570664Y436106D01*
X570664Y363894D01*
X621252Y363894D01*
X658747Y436106D02*
G01*
X709336Y436106D01*
X709336Y363894D01*
X658747Y363894D01*
X818944Y304739D02*
G01*
X818944Y377669D01*
X734204Y304739D02*
G01*
X734204Y377669D01*
X703220Y556008D02*
G01*
X665468Y556008D01*
X665468Y503992D01*
X703220Y503992D01*
X736780Y556008D02*
G01*
X774531Y556008D01*
X774531Y503992D01*
X736780Y503992D01*
X451905Y440953D02*
G01*
X451905Y179046D01*
X336047Y179046D01*
X336047Y440953D01*
X451905Y440953D01*
D11*
X664917Y632439D02*
G01*
X630901Y632439D01*
X630901Y632439D02*
G01*
X630901Y671810D01*
X702317Y687557D02*
G01*
X677595Y687557D01*
X749011Y632439D02*
G01*
X714995Y632439D01*
X749011Y632439D02*
G01*
X749011Y671810D01*
D10*
X779525Y234491D02*
G01*
X779525Y165499D01*
X820532Y165499D01*
X900485Y234491D02*
G01*
X900485Y165499D01*
X859477Y165499D01*
X822076Y234491D02*
G01*
X857934Y234491D01*
D11*
X798265Y696157D02*
G01*
X829762Y696157D01*
X786066Y652466D02*
G01*
X786066Y683961D01*
X841958Y652466D02*
G01*
X841958Y683961D01*
X785836Y629793D02*
G01*
X785836Y598297D01*
X798035Y586099D02*
G01*
X829530Y586099D01*
X841727Y629793D02*
G01*
X841727Y598297D01*
X1036635Y690247D02*
G01*
X1068132Y690247D01*
X1024436Y646556D02*
G01*
X1024436Y678051D01*
X1080328Y646556D02*
G01*
X1080328Y678051D01*
X1024207Y623883D02*
G01*
X1024207Y592387D01*
X1036405Y580189D02*
G01*
X1067900Y580189D01*
X1080097Y623883D02*
G01*
X1080097Y592387D01*
X1616620Y-246462D02*
G01*
X1616620Y-664560D01*
X1242980Y-664560D01*
X1242980Y-251327D01*
X1242992Y-498076D02*
G01*
X1213095Y-498076D01*
X1213095Y-570901D01*
X1242992Y-570901D01*
X1616637Y-570067D02*
G01*
X1646535Y-570067D01*
X1646535Y-497242D01*
X1616637Y-497242D01*
X1214414Y-251332D02*
G01*
X1214414Y69686D01*
X1650000Y-250000D02*
G01*
X1650000Y69686D01*
X1231434Y101182D02*
G01*
X1156378Y101182D01*
X1156378Y69686D01*
X1701653Y69686D01*
X1701653Y101182D01*
X1628565Y101182D01*
X1233165Y414492D02*
G01*
X1233165Y185490D01*
X1626850Y185500D02*
G01*
X1626850Y414500D01*
X1546394Y101182D02*
G01*
X1313606Y101182D01*
X1542773Y494882D02*
G01*
X1317227Y494882D01*
X1650000Y-250000D02*
G01*
X1210949Y-203500D01*
X1647484Y-251332D02*
G01*
X1214414Y-251332D01*
X1650000Y-200000D02*
G01*
X1210949Y-153500D01*
X1647484Y-201332D02*
G01*
X1214414Y-201332D01*
X1650000Y-150000D02*
G01*
X1210949Y-103500D01*
X1647484Y-151332D02*
G01*
X1214414Y-151332D01*
X1650000Y-100000D02*
G01*
X1210949Y-53500D01*
X1647484Y-101332D02*
G01*
X1214414Y-101332D01*
X1650000Y-50000D02*
G01*
X1210949Y-3500D01*
X1647484Y-51332D02*
G01*
X1214414Y-51332D01*
X1646535Y0D02*
G01*
X1213465Y0D01*
X1649051Y1332D02*
G01*
X1210000Y47832D01*
G75*
G01*
X798035Y586097D02*
G02*
X785837Y598295I0J12198D01*
G75*
G01*
X841729Y598295D02*
G02*
X829530Y586097I-12198J0D01*
G75*
G01*
X786066Y683959D02*
G02*
X798265Y696157I12198J0D01*
G75*
G01*
X829760Y696157D02*
G02*
X841958Y683959I0J-12198D01*
G75*
G01*
X1036405Y580187D02*
G02*
X1024207Y592385I0J12198D01*
G75*
G01*
X1080099Y592385D02*
G02*
X1067900Y580187I-12198J0D01*
G75*
G01*
X1024436Y678049D02*
G02*
X1036635Y690247I12198J0D01*
G75*
G01*
X1068130Y690247D02*
G02*
X1080328Y678049I0J-12198D01*
D12*
G75*
G01
X731910Y296320D02*
G03X731910Y296320I-5910J0D01*
M02*
