M48
INCH,LZ
;FILE_FORMAT=2:4
;TYPE=PLATED
;Layer: PTH_Through_Via
;EasyEDA v6.5.44, 2024-07-31 14:11:33
;0a0e6e5985404cbc94c0c78cb0e903e1,401f954c81374b6587e5d63e119e93f9,10
;Gerber Generator version 0.2
;Holesize 1 = 0.0140 inch
T01C0.0140
%
G05
G90
T01
X008150Y005591
X010532Y005563
X008386Y004331
X007163Y004803
X008774Y003148
X006777Y003022
X006340Y003014
X000750Y005000
X000750Y004500
X000750Y004000
X000750Y003500
X000750Y003000
X000750Y002500
X001250Y005000
X001250Y004500
X001250Y004000
X001250Y003500
X001250Y003000
X001250Y002500
X002750Y000750
X003500Y000750
X004250Y000750
X005000Y000750
X005750Y000750
X006500Y000750
X007250Y000750
X008000Y000750
X008750Y000750
X009500Y000750
X010250Y000750
X011000Y000750
X001250Y011750
X001750Y011750
X002250Y011750
X002750Y011750
X003250Y011750
X003750Y011750
X004250Y011750
X004750Y011750
X005250Y011750
X005750Y011750
X001250Y011250
X001750Y011250
X002250Y011250
X002750Y011250
X003250Y011250
X003750Y011250
X004250Y011250
X004750Y011250
X005250Y011250
X005750Y011250
X002250Y010750
X002750Y010750
X003250Y010750
X003750Y010750
X003250Y010250
X002750Y010250
X002250Y010250
X003750Y010250
X003750Y009750
X003250Y009750
X002750Y009750
X002250Y009750
X001750Y009250
X001250Y009250
X001250Y008750
X001750Y008750
X001750Y008250
X001250Y008250
X001250Y007750
X001750Y007750
X002250Y007750
X002250Y007250
X002750Y007250
X003250Y007250
X003750Y007250
X003750Y006750
X003250Y006750
X002750Y006750
X002250Y006750
X005750Y010750
X005250Y010750
X005750Y010250
X005750Y009750
X005750Y009250
X005250Y009750
X005250Y009250
X002250Y006250
X002750Y006250
X003250Y006250
X003750Y006250
X011750Y000750
X013500Y000750
X014000Y000750
X014500Y000750
X015000Y000750
X015000Y001250
X014500Y001250
X014000Y001250
X013500Y001250
X013500Y001750
X014000Y001750
X014500Y001750
X015000Y001750
X011750Y001250
X011750Y001750
X011250Y001750
X011250Y001250
X016750Y000750
X017250Y000750
X017250Y001250
X016750Y001250
X016750Y001750
X017250Y001750
X017250Y002250
X016750Y002250
X016750Y002750
X017250Y002750
X017250Y003250
X016750Y003250
X016750Y003750
X017250Y003750
X017250Y004250
X016750Y004250
X016750Y004750
X017250Y004750
X016250Y003250
X016250Y002750
X016250Y002250
X015750Y003250
X015750Y002750
X015000Y004750
X014500Y004750
X014000Y004750
X013500Y004750
X013500Y004250
X014000Y004250
X014500Y004250
X015000Y004250
X011750Y004250
X011750Y004750
X011250Y004750
X011250Y004250
X010750Y004250
X010750Y004750
X011750Y005500
X011250Y005500
X010250Y004750
X010250Y004250
X009750Y004250
X009750Y004750
X009250Y004750
X009250Y004250
X009250Y005250
X009250Y005750
X009250Y006250
X009250Y006750
X009750Y006750
X009750Y006250
X009750Y005750
X009750Y005250
X005250Y006250
X005750Y006250
X006250Y006250
X006250Y005750
X005750Y005750
X005250Y005750
X002750Y001250
X003500Y001250
X004250Y001250
X005000Y001250
X005750Y001250
X005750Y001750
X005000Y001750
X004250Y001750
X003500Y001750
X015000Y009000
X015000Y008500
X015000Y008000
X015500Y009000
X015500Y008500
X015500Y008000
X016250Y007250
X016750Y007250
X017250Y007250
X016250Y006750
X016750Y006750
X017250Y006750
X018000Y008000
X018500Y008000
X018000Y008500
X018500Y008500
X018000Y009000
X018500Y009000
X017250Y010500
X017250Y010000
X016750Y010500
X016750Y010000
X016250Y010500
X016250Y010000
X003750Y007750
X004750Y009250
X004250Y009250
X003750Y009250
X004250Y007750
X007110Y008510
X007700Y007080
X010500Y007230
X001810Y002210
M30
