G04 Layer: TopPasteMaskLayer*
G04 EasyEDA v6.5.44, 2024-07-31 14:11:33*
G04 0a0e6e5985404cbc94c0c78cb0e903e1,401f954c81374b6587e5d63e119e93f9,10*
G04 Gerber Generator version 0.2*
G04 Scale: 100 percent, Rotated: No, Reflected: No *
G04 Dimensions in inches *
G04 leading zeros omitted , absolute positions ,3 integer and 6 decimal *
%FSLAX36Y36*%
%MOIN*%

%AMMACRO1*21,1,$1,$2,0,0,$3*%
%ADD10R,0.0143X0.0167*%
%ADD11R,0.0984X0.0433*%
%ADD12MACRO1,0.1417X0.0921X90.0000*%
%ADD13R,0.0315X0.0394*%
%ADD14R,0.0236X0.0421*%
%ADD15R,0.0354X0.0315*%

%LPD*%
G36*
X645220Y868060D02*
G01*
X643240Y866080D01*
X643240Y857120D01*
X657820Y857120D01*
X657820Y844120D01*
X643240Y844120D01*
X643240Y834599D01*
X645220Y832620D01*
X676700Y832620D01*
X678680Y834599D01*
X678680Y866080D01*
X676700Y868060D01*
G37*
G36*
X582620Y868060D02*
G01*
X580640Y866080D01*
X580640Y834599D01*
X582620Y832620D01*
X614100Y832620D01*
X616080Y834599D01*
X616080Y843560D01*
X601520Y843560D01*
X601520Y856560D01*
X616080Y856560D01*
X616080Y866080D01*
X614100Y868060D01*
G37*
G36*
X389680Y527160D02*
G01*
X387720Y525200D01*
X387920Y508660D01*
X405240Y508660D01*
X405240Y490940D01*
X387520Y490940D01*
X387720Y474799D01*
X389680Y472840D01*
X434960Y472840D01*
X436940Y474799D01*
X436940Y525200D01*
X434960Y527160D01*
G37*
G36*
X305040Y527160D02*
G01*
X303080Y525200D01*
X303080Y474799D01*
X305040Y472840D01*
X350319Y472840D01*
X352280Y474799D01*
X352080Y490940D01*
X334760Y490940D01*
X334760Y508660D01*
X352280Y508660D01*
X352280Y525200D01*
X350319Y527160D01*
G37*
G36*
X659680Y427160D02*
G01*
X657720Y425200D01*
X657920Y408660D01*
X675240Y408660D01*
X675240Y390940D01*
X657520Y390940D01*
X657720Y374799D01*
X659680Y372840D01*
X704960Y372840D01*
X706940Y374799D01*
X706940Y425200D01*
X704960Y427160D01*
G37*
G36*
X575040Y427160D02*
G01*
X573080Y425200D01*
X573080Y374799D01*
X575040Y372840D01*
X620320Y372840D01*
X622280Y374799D01*
X622080Y390940D01*
X604760Y390940D01*
X604760Y408660D01*
X622280Y408660D01*
X622280Y425200D01*
X620320Y427160D01*
G37*
G36*
X672960Y547720D02*
G01*
X670980Y545740D01*
X670980Y514260D01*
X672960Y512280D01*
X704440Y512280D01*
X706420Y514260D01*
X706420Y523220D01*
X691860Y523220D01*
X691860Y536220D01*
X706420Y536220D01*
X706420Y545740D01*
X704440Y547720D01*
G37*
G36*
X735560Y547720D02*
G01*
X733580Y545740D01*
X733580Y536780D01*
X748160Y536780D01*
X748160Y523780D01*
X733580Y523780D01*
X733580Y514260D01*
X735560Y512280D01*
X767039Y512280D01*
X769020Y514260D01*
X769020Y545740D01*
X767039Y547720D01*
G37*
D10*
G01*
X750980Y302320D03*
G01*
X776570Y302320D03*
G01*
X802159Y302320D03*
G01*
X802159Y380080D03*
G01*
X776570Y380080D03*
G01*
X750980Y380080D03*
D11*
G01*
X273110Y400550D03*
G01*
X273110Y310000D03*
G01*
X273110Y219450D03*
D12*
G01*
X506967Y310000D03*
D13*
G01*
X652550Y705270D03*
G01*
X689950Y614720D03*
G01*
X727360Y705270D03*
D14*
G01*
X877410Y248619D03*
G01*
X802610Y248619D03*
G01*
X840010Y151380D03*
D15*
G01*
X814000Y668990D03*
G01*
X814000Y613870D03*
G01*
X1052370Y663080D03*
G01*
X1052370Y607960D03*
M02*
