G04 Layer: TopSolderMaskLayer*
G04 EasyEDA v6.5.44, 2024-07-31 14:11:33*
G04 0a0e6e5985404cbc94c0c78cb0e903e1,401f954c81374b6587e5d63e119e93f9,10*
G04 Gerber Generator version 0.2*
G04 Scale: 100 percent, Rotated: No, Reflected: No *
G04 Dimensions in inches *
G04 leading zeros omitted , absolute positions ,3 integer and 6 decimal *
%FSLAX36Y36*%
%MOIN*%

%AMMACRO1*4,1,8,-0.0167,-0.019,-0.0179,-0.0178,-0.0179,0.0178,-0.0167,0.019,0.0167,0.019,0.0179,0.0178,0.0179,-0.0178,0.0167,-0.019,-0.0167,-0.019,0*%
%AMMACRO2*4,1,8,-0.0231,-0.0291,-0.0243,-0.0279,-0.0243,0.0279,-0.0231,0.0291,0.0231,0.0291,0.0243,0.0279,0.0243,-0.0279,0.0231,-0.0291,-0.0231,-0.0291,0*%
%AMMACRO3*4,1,8,-0.008,-0.0104,-0.0092,-0.0092,-0.0092,0.0092,-0.008,0.0104,0.008,0.0104,0.0092,0.0092,0.0092,-0.0092,0.008,-0.0104,-0.008,-0.0104,0*%
%AMMACRO4*4,1,8,-0.05,-0.0237,-0.0512,-0.0225,-0.0512,0.0225,-0.05,0.0237,0.05,0.0237,0.0512,0.0225,0.0512,-0.0225,0.05,-0.0237,-0.05,-0.0237,0*%
%AMMACRO5*4,1,8,-0.0469,-0.0729,-0.0481,-0.0717,-0.0481,0.0717,-0.0469,0.0729,0.0469,0.0729,0.0481,0.0717,0.0481,-0.0717,0.0469,-0.0729,-0.0469,-0.0729,0*%
%AMMACRO6*4,1,8,-0.0166,-0.0217,-0.0177,-0.0205,-0.0177,0.0205,-0.0166,0.0217,0.0166,0.0217,0.0177,0.0205,0.0177,-0.0205,0.0166,-0.0217,-0.0166,-0.0217,0*%
%AMMACRO7*4,1,8,-0.0126,-0.0231,-0.0138,-0.0219,-0.0138,0.0219,-0.0126,0.0231,0.0126,0.0231,0.0138,0.0219,0.0138,-0.0219,0.0126,-0.0231,-0.0126,-0.0231,0*%
%AMMACRO8*4,1,8,-0.0185,-0.0177,-0.0197,-0.0166,-0.0197,0.0166,-0.0185,0.0177,0.0185,0.0177,0.0197,0.0166,0.0197,-0.0166,0.0185,-0.0177,-0.0185,-0.0177,0*%
%ADD10C,0.1024*%
%ADD11C,0.0946*%
%ADD12MACRO1*%
%ADD13MACRO2*%
%ADD14MACRO3*%
%ADD15MACRO4*%
%ADD16MACRO5*%
%ADD17MACRO6*%
%ADD18MACRO7*%
%ADD19MACRO8*%

%LPD*%
D10*
G01*
X1522520Y692520D03*
G01*
X1522520Y1007480D03*
G01*
X1837480Y1007480D03*
G01*
X1837480Y692520D03*
D11*
G01*
X1680000Y850000D03*
D10*
G01*
X457480Y1007480D03*
G01*
X457480Y692520D03*
G01*
X142520Y692520D03*
G01*
X142520Y1007480D03*
D11*
G01*
X300000Y850000D03*
D12*
G01*
X659315Y850339D03*
G01*
X600004Y850339D03*
D13*
G01*
X330627Y500000D03*
G01*
X409372Y500000D03*
G01*
X600628Y400000D03*
G01*
X679372Y400000D03*
D14*
G01*
X750984Y302324D03*
G01*
X776574Y302324D03*
G01*
X802163Y302324D03*
G01*
X802163Y380084D03*
G01*
X776574Y380084D03*
G01*
X750984Y380084D03*
D12*
G01*
X690344Y530000D03*
G01*
X749655Y530000D03*
D15*
G01*
X273111Y400550D03*
G01*
X273111Y310000D03*
G01*
X273111Y219450D03*
D16*
G01*
X506968Y310000D03*
D17*
G01*
X652554Y705274D03*
G01*
X689954Y614722D03*
G01*
X727358Y705273D03*
D18*
G01*
X877405Y248622D03*
G01*
X802605Y248622D03*
G01*
X840005Y151378D03*
D19*
G01*
X814004Y668991D03*
G01*
X814004Y613873D03*
G01*
X1052374Y663081D03*
G01*
X1052374Y607963D03*
D10*
G01*
X1272520Y457480D03*
G01*
X1587480Y457480D03*
G01*
X1587480Y142520D03*
G01*
X1272520Y142520D03*
D11*
G01*
X1430000Y300000D03*
M02*
