G04 Layer: InnerLayer1*
G04 EasyEDA v6.5.44, 2024-07-31 14:11:33*
G04 0a0e6e5985404cbc94c0c78cb0e903e1,401f954c81374b6587e5d63e119e93f9,10*
G04 Gerber Generator version 0.2*
G04 Scale: 100 percent, Rotated: No, Reflected: No *
G04 Dimensions in inches *
G04 leading zeros omitted , absolute positions ,3 integer and 6 decimal *
%FSLAX36Y36*%
%MOIN*%

%ADD10C,0.0984*%
%ADD11C,0.0906*%
%ADD12C,0.0250*%
%ADD13C,0.0240*%

%LPD*%
G36*
X50000Y0D02*
G01*
X48000Y40D01*
X46005Y160D01*
X44015Y360D01*
X42035Y639D01*
X40067Y997D01*
X38116Y1433D01*
X36183Y1947D01*
X34273Y2538D01*
X32388Y3205D01*
X30531Y3946D01*
X28705Y4762D01*
X26913Y5649D01*
X25158Y6608D01*
X23443Y7635D01*
X21770Y8732D01*
X20142Y9894D01*
X18563Y11120D01*
X17033Y12407D01*
X15556Y13756D01*
X14135Y15162D01*
X12770Y16624D01*
X11465Y18140D01*
X10222Y19706D01*
X9043Y21321D01*
X7929Y22980D01*
X6882Y24685D01*
X5904Y26429D01*
X4997Y28212D01*
X4162Y30029D01*
X3400Y31877D01*
X2712Y33755D01*
X2101Y35659D01*
X1566Y37586D01*
X1108Y39533D01*
X729Y41496D01*
X428Y43473D01*
X207Y45460D01*
X65Y47455D01*
X2Y49454D01*
X0Y50000D01*
X0Y1200000D01*
X40Y1201999D01*
X160Y1203995D01*
X360Y1205985D01*
X639Y1207965D01*
X997Y1209933D01*
X1433Y1211884D01*
X1947Y1213817D01*
X2538Y1215727D01*
X3205Y1217612D01*
X3946Y1219469D01*
X4762Y1221295D01*
X5649Y1223087D01*
X6608Y1224842D01*
X7635Y1226557D01*
X8732Y1228230D01*
X9894Y1229858D01*
X11120Y1231437D01*
X12407Y1232967D01*
X13756Y1234444D01*
X15162Y1235865D01*
X16624Y1237230D01*
X18140Y1238535D01*
X19706Y1239778D01*
X21321Y1240957D01*
X22980Y1242071D01*
X24685Y1243118D01*
X26429Y1244096D01*
X28212Y1245003D01*
X30029Y1245838D01*
X31877Y1246600D01*
X33755Y1247288D01*
X35659Y1247899D01*
X37586Y1248434D01*
X39533Y1248892D01*
X41496Y1249271D01*
X43473Y1249572D01*
X45460Y1249793D01*
X47455Y1249935D01*
X49454Y1249997D01*
X50000Y1250000D01*
X1950000Y1250000D01*
X1951999Y1249960D01*
X1953995Y1249840D01*
X1955985Y1249640D01*
X1957965Y1249361D01*
X1959933Y1249003D01*
X1961884Y1248567D01*
X1963817Y1248053D01*
X1965727Y1247462D01*
X1967612Y1246795D01*
X1969469Y1246054D01*
X1971295Y1245238D01*
X1973086Y1244351D01*
X1974841Y1243392D01*
X1976557Y1242364D01*
X1978230Y1241268D01*
X1979858Y1240106D01*
X1981437Y1238880D01*
X1982966Y1237592D01*
X1984444Y1236244D01*
X1985865Y1234838D01*
X1987230Y1233376D01*
X1988535Y1231860D01*
X1989778Y1230294D01*
X1990957Y1228679D01*
X1992071Y1227019D01*
X1993118Y1225315D01*
X1994096Y1223570D01*
X1995003Y1221788D01*
X1995838Y1219971D01*
X1996600Y1218123D01*
X1997288Y1216245D01*
X1997899Y1214341D01*
X1998434Y1212414D01*
X1998891Y1210467D01*
X1999271Y1208504D01*
X1999572Y1206527D01*
X1999793Y1204540D01*
X1999935Y1202545D01*
X1999997Y1200546D01*
X2000000Y1200000D01*
X2000000Y50000D01*
X1999960Y48000D01*
X1999840Y46005D01*
X1999640Y44015D01*
X1999361Y42035D01*
X1999002Y40067D01*
X1998567Y38116D01*
X1998053Y36183D01*
X1997461Y34273D01*
X1996795Y32388D01*
X1996054Y30531D01*
X1995238Y28705D01*
X1994351Y26913D01*
X1993392Y25158D01*
X1992364Y23443D01*
X1991268Y21770D01*
X1990106Y20142D01*
X1988880Y18563D01*
X1987592Y17033D01*
X1986244Y15556D01*
X1984838Y14135D01*
X1983376Y12770D01*
X1981860Y11465D01*
X1980294Y10222D01*
X1978679Y9043D01*
X1977019Y7929D01*
X1975315Y6882D01*
X1973570Y5904D01*
X1971788Y4997D01*
X1969971Y4162D01*
X1968123Y3400D01*
X1966245Y2712D01*
X1964341Y2101D01*
X1962414Y1566D01*
X1960466Y1108D01*
X1958504Y729D01*
X1956527Y428D01*
X1954540Y207D01*
X1952545Y65D01*
X1950546Y2D01*
X1950000Y0D01*
G37*

%LPC*%
G36*
X1850278Y53056D02*
G01*
X1850500Y53056D01*
X1852709Y53097D01*
X1852935Y53105D01*
X1855140Y53229D01*
X1855363Y53246D01*
X1857562Y53452D01*
X1857786Y53478D01*
X1859977Y53766D01*
X1860197Y53800D01*
X1862374Y54170D01*
X1862594Y54211D01*
X1864755Y54662D01*
X1864973Y54711D01*
X1867117Y55243D01*
X1867338Y55302D01*
X1869460Y55914D01*
X1869672Y55979D01*
X1871770Y56669D01*
X1871982Y56744D01*
X1874052Y57512D01*
X1874259Y57593D01*
X1876301Y58438D01*
X1876508Y58529D01*
X1878514Y59450D01*
X1878718Y59547D01*
X1880690Y60542D01*
X1880887Y60647D01*
X1882820Y61715D01*
X1883016Y61829D01*
X1884907Y62969D01*
X1885094Y63086D01*
X1886942Y64295D01*
X1887129Y64423D01*
X1888930Y65701D01*
X1889112Y65835D01*
X1890864Y67180D01*
X1891037Y67318D01*
X1892738Y68727D01*
X1892909Y68874D01*
X1894556Y70346D01*
X1894721Y70499D01*
X1896311Y72031D01*
X1896468Y72189D01*
X1898000Y73779D01*
X1898154Y73944D01*
X1899626Y75591D01*
X1899773Y75762D01*
X1901182Y77463D01*
X1901320Y77636D01*
X1902665Y79388D01*
X1902799Y79570D01*
X1904077Y81371D01*
X1904205Y81558D01*
X1905414Y83406D01*
X1905531Y83593D01*
X1906671Y85484D01*
X1906785Y85680D01*
X1907853Y87613D01*
X1907957Y87810D01*
X1908953Y89782D01*
X1909050Y89985D01*
X1909971Y91992D01*
X1910062Y92199D01*
X1910907Y94240D01*
X1910988Y94448D01*
X1911756Y96518D01*
X1911831Y96730D01*
X1912521Y98828D01*
X1912586Y99040D01*
X1913197Y101161D01*
X1913257Y101382D01*
X1913788Y103527D01*
X1913838Y103744D01*
X1914289Y105906D01*
X1914330Y106126D01*
X1914700Y108303D01*
X1914733Y108523D01*
X1915021Y110713D01*
X1915048Y110938D01*
X1915254Y113137D01*
X1915271Y113360D01*
X1915395Y115565D01*
X1915403Y115791D01*
X1915444Y117998D01*
X1915444Y118221D01*
X1915403Y120429D01*
X1915395Y120655D01*
X1915271Y122860D01*
X1915254Y123082D01*
X1915048Y125282D01*
X1915021Y125507D01*
X1914733Y127697D01*
X1914700Y127917D01*
X1914330Y130094D01*
X1914289Y130314D01*
X1913838Y132476D01*
X1913788Y132693D01*
X1913257Y134837D01*
X1913197Y135058D01*
X1912586Y137180D01*
X1912521Y137392D01*
X1911831Y139490D01*
X1911756Y139702D01*
X1910988Y141772D01*
X1910907Y141980D01*
X1910062Y144021D01*
X1909971Y144228D01*
X1909050Y146235D01*
X1908953Y146438D01*
X1907957Y148410D01*
X1907853Y148607D01*
X1906785Y150540D01*
X1906671Y150736D01*
X1905531Y152627D01*
X1905414Y152814D01*
X1904205Y154662D01*
X1904077Y154849D01*
X1902799Y156650D01*
X1902665Y156832D01*
X1901320Y158584D01*
X1901182Y158757D01*
X1899773Y160458D01*
X1899626Y160629D01*
X1898154Y162276D01*
X1898000Y162441D01*
X1896468Y164030D01*
X1896311Y164189D01*
X1894721Y165721D01*
X1894556Y165874D01*
X1892909Y167346D01*
X1892738Y167493D01*
X1891037Y168902D01*
X1890864Y169040D01*
X1889112Y170385D01*
X1888930Y170519D01*
X1887129Y171797D01*
X1886942Y171925D01*
X1885094Y173134D01*
X1884907Y173251D01*
X1883016Y174391D01*
X1882820Y174505D01*
X1880887Y175573D01*
X1880690Y175676D01*
X1878718Y176673D01*
X1878514Y176770D01*
X1876508Y177691D01*
X1876301Y177781D01*
X1874259Y178627D01*
X1874052Y178708D01*
X1871982Y179476D01*
X1871770Y179551D01*
X1869672Y180241D01*
X1869460Y180306D01*
X1867338Y180918D01*
X1867117Y180977D01*
X1864973Y181508D01*
X1864755Y181558D01*
X1862594Y182009D01*
X1862374Y182049D01*
X1860197Y182420D01*
X1859977Y182453D01*
X1857786Y182742D01*
X1857562Y182768D01*
X1855363Y182974D01*
X1855140Y182991D01*
X1852935Y183115D01*
X1852709Y183123D01*
X1850500Y183164D01*
X1850278Y183164D01*
X1848071Y183123D01*
X1847845Y183115D01*
X1845640Y182991D01*
X1845417Y182974D01*
X1843218Y182768D01*
X1842992Y182742D01*
X1840803Y182453D01*
X1840583Y182420D01*
X1838406Y182049D01*
X1838186Y182009D01*
X1836024Y181558D01*
X1835807Y181508D01*
X1833663Y180977D01*
X1833442Y180918D01*
X1831320Y180306D01*
X1831108Y180241D01*
X1829010Y179551D01*
X1828798Y179476D01*
X1826728Y178708D01*
X1826519Y178627D01*
X1824479Y177781D01*
X1824272Y177691D01*
X1822264Y176770D01*
X1822062Y176673D01*
X1820089Y175676D01*
X1819892Y175572D01*
X1817960Y174503D01*
X1817766Y174392D01*
X1815874Y173252D01*
X1815686Y173134D01*
X1813838Y171925D01*
X1813651Y171797D01*
X1811850Y170519D01*
X1811668Y170385D01*
X1809916Y169040D01*
X1809743Y168902D01*
X1808042Y167493D01*
X1807871Y167346D01*
X1806224Y165874D01*
X1806059Y165721D01*
X1804469Y164189D01*
X1804310Y164030D01*
X1802778Y162441D01*
X1802626Y162276D01*
X1801154Y160629D01*
X1801007Y160458D01*
X1799598Y158757D01*
X1799460Y158584D01*
X1798115Y156832D01*
X1797981Y156650D01*
X1796703Y154849D01*
X1796575Y154662D01*
X1795366Y152814D01*
X1795248Y152626D01*
X1794108Y150734D01*
X1793996Y150540D01*
X1792928Y148608D01*
X1792823Y148410D01*
X1791827Y146438D01*
X1791730Y146235D01*
X1790809Y144228D01*
X1790718Y144021D01*
X1789873Y141980D01*
X1789792Y141772D01*
X1789024Y139702D01*
X1788949Y139490D01*
X1788259Y137392D01*
X1788194Y137180D01*
X1787581Y135058D01*
X1787523Y134837D01*
X1786992Y132693D01*
X1786942Y132476D01*
X1786491Y130314D01*
X1786450Y130094D01*
X1786080Y127917D01*
X1786047Y127697D01*
X1785757Y125507D01*
X1785732Y125282D01*
X1785526Y123082D01*
X1785509Y122860D01*
X1785385Y120655D01*
X1785377Y120429D01*
X1785336Y118221D01*
X1785336Y117998D01*
X1785377Y115791D01*
X1785385Y115565D01*
X1785509Y113360D01*
X1785526Y113137D01*
X1785732Y110938D01*
X1785757Y110713D01*
X1786047Y108523D01*
X1786080Y108303D01*
X1786450Y106126D01*
X1786491Y105906D01*
X1786942Y103744D01*
X1786992Y103527D01*
X1787523Y101382D01*
X1787581Y101161D01*
X1788194Y99040D01*
X1788259Y98828D01*
X1788949Y96730D01*
X1789024Y96518D01*
X1789792Y94448D01*
X1789873Y94240D01*
X1790718Y92199D01*
X1790809Y91992D01*
X1791730Y89985D01*
X1791827Y89782D01*
X1792823Y87810D01*
X1792927Y87613D01*
X1793995Y85680D01*
X1794109Y85484D01*
X1795249Y83593D01*
X1795366Y83406D01*
X1796575Y81558D01*
X1796703Y81371D01*
X1797981Y79570D01*
X1798115Y79388D01*
X1799460Y77636D01*
X1799598Y77463D01*
X1801007Y75762D01*
X1801154Y75591D01*
X1802626Y73944D01*
X1802778Y73779D01*
X1804310Y72189D01*
X1804469Y72031D01*
X1806059Y70499D01*
X1806224Y70346D01*
X1807871Y68874D01*
X1808042Y68727D01*
X1809743Y67318D01*
X1809916Y67180D01*
X1811668Y65835D01*
X1811850Y65701D01*
X1813651Y64423D01*
X1813838Y64295D01*
X1815686Y63086D01*
X1815874Y62968D01*
X1817766Y61828D01*
X1817960Y61716D01*
X1819892Y60648D01*
X1820089Y60542D01*
X1822062Y59547D01*
X1822264Y59450D01*
X1824272Y58529D01*
X1824479Y58438D01*
X1826519Y57593D01*
X1826728Y57512D01*
X1828798Y56744D01*
X1829010Y56669D01*
X1831108Y55979D01*
X1831320Y55914D01*
X1833442Y55302D01*
X1833663Y55243D01*
X1835807Y54711D01*
X1836024Y54662D01*
X1838186Y54211D01*
X1838406Y54170D01*
X1840583Y53800D01*
X1840803Y53766D01*
X1842992Y53478D01*
X1843218Y53452D01*
X1845417Y53246D01*
X1845640Y53229D01*
X1847845Y53105D01*
X1848071Y53097D01*
G37*
G36*
X117998Y53056D02*
G01*
X118221Y53056D01*
X120429Y53097D01*
X120655Y53105D01*
X122860Y53229D01*
X123082Y53246D01*
X125282Y53452D01*
X125507Y53478D01*
X127697Y53766D01*
X127917Y53800D01*
X130094Y54170D01*
X130314Y54211D01*
X132476Y54662D01*
X132693Y54711D01*
X134837Y55243D01*
X135058Y55302D01*
X137180Y55914D01*
X137392Y55979D01*
X139490Y56669D01*
X139702Y56744D01*
X141772Y57512D01*
X141980Y57593D01*
X144021Y58438D01*
X144228Y58529D01*
X146235Y59450D01*
X146438Y59547D01*
X148410Y60542D01*
X148608Y60648D01*
X150540Y61716D01*
X150734Y61828D01*
X152626Y62968D01*
X152814Y63086D01*
X154662Y64295D01*
X154849Y64423D01*
X156650Y65701D01*
X156832Y65835D01*
X158584Y67180D01*
X158757Y67318D01*
X160458Y68727D01*
X160629Y68874D01*
X162276Y70346D01*
X162441Y70499D01*
X164030Y72031D01*
X164189Y72189D01*
X165721Y73779D01*
X165874Y73944D01*
X167346Y75591D01*
X167493Y75762D01*
X168902Y77463D01*
X169040Y77636D01*
X170385Y79388D01*
X170519Y79570D01*
X171797Y81371D01*
X171925Y81558D01*
X173134Y83406D01*
X173251Y83593D01*
X174391Y85484D01*
X174505Y85680D01*
X175573Y87613D01*
X175676Y87810D01*
X176673Y89782D01*
X176770Y89985D01*
X177691Y91992D01*
X177781Y92199D01*
X178627Y94240D01*
X178708Y94448D01*
X179476Y96518D01*
X179551Y96730D01*
X180241Y98828D01*
X180306Y99040D01*
X180918Y101161D01*
X180977Y101382D01*
X181508Y103527D01*
X181558Y103744D01*
X182009Y105906D01*
X182049Y106126D01*
X182420Y108303D01*
X182453Y108523D01*
X182742Y110713D01*
X182768Y110938D01*
X182974Y113137D01*
X182991Y113360D01*
X183115Y115565D01*
X183123Y115791D01*
X183164Y117998D01*
X183164Y118221D01*
X183123Y120429D01*
X183115Y120655D01*
X182991Y122860D01*
X182974Y123082D01*
X182768Y125282D01*
X182742Y125507D01*
X182453Y127697D01*
X182420Y127917D01*
X182049Y130094D01*
X182009Y130314D01*
X181558Y132476D01*
X181508Y132693D01*
X180977Y134837D01*
X180918Y135058D01*
X180306Y137180D01*
X180241Y137392D01*
X179551Y139490D01*
X179476Y139702D01*
X178708Y141772D01*
X178627Y141980D01*
X177781Y144021D01*
X177691Y144228D01*
X176770Y146235D01*
X176673Y146438D01*
X175676Y148410D01*
X175572Y148608D01*
X174503Y150540D01*
X174392Y150734D01*
X173252Y152626D01*
X173134Y152814D01*
X171925Y154662D01*
X171797Y154849D01*
X170519Y156650D01*
X170385Y156832D01*
X169040Y158584D01*
X168902Y158757D01*
X167493Y160458D01*
X167346Y160629D01*
X165874Y162276D01*
X165721Y162441D01*
X164189Y164030D01*
X164030Y164189D01*
X162441Y165721D01*
X162276Y165874D01*
X160629Y167346D01*
X160458Y167493D01*
X158757Y168902D01*
X158584Y169040D01*
X156832Y170385D01*
X156650Y170519D01*
X154849Y171797D01*
X154662Y171925D01*
X152814Y173134D01*
X152626Y173252D01*
X150734Y174392D01*
X150540Y174503D01*
X148608Y175572D01*
X148410Y175676D01*
X146438Y176673D01*
X146235Y176770D01*
X144228Y177691D01*
X144021Y177781D01*
X141980Y178627D01*
X141772Y178708D01*
X139702Y179476D01*
X139490Y179551D01*
X137392Y180241D01*
X137180Y180306D01*
X135058Y180918D01*
X134837Y180977D01*
X132693Y181508D01*
X132476Y181558D01*
X130314Y182009D01*
X130094Y182049D01*
X127917Y182420D01*
X127697Y182453D01*
X125507Y182742D01*
X125282Y182768D01*
X123082Y182974D01*
X122860Y182991D01*
X120655Y183115D01*
X120429Y183123D01*
X118221Y183164D01*
X117998Y183164D01*
X115791Y183123D01*
X115565Y183115D01*
X113360Y182991D01*
X113137Y182974D01*
X110938Y182768D01*
X110713Y182742D01*
X108523Y182453D01*
X108303Y182420D01*
X106126Y182049D01*
X105906Y182009D01*
X103744Y181558D01*
X103527Y181508D01*
X101382Y180977D01*
X101161Y180918D01*
X99040Y180306D01*
X98828Y180241D01*
X96730Y179551D01*
X96518Y179476D01*
X94448Y178708D01*
X94240Y178627D01*
X92199Y177781D01*
X91992Y177691D01*
X89985Y176770D01*
X89782Y176673D01*
X87810Y175676D01*
X87612Y175572D01*
X85680Y174503D01*
X85486Y174392D01*
X83594Y173252D01*
X83406Y173134D01*
X81558Y171925D01*
X81371Y171797D01*
X79570Y170519D01*
X79388Y170385D01*
X77636Y169040D01*
X77463Y168902D01*
X75762Y167493D01*
X75591Y167346D01*
X73944Y165874D01*
X73779Y165721D01*
X72189Y164189D01*
X72031Y164030D01*
X70499Y162441D01*
X70346Y162276D01*
X68874Y160629D01*
X68727Y160458D01*
X67318Y158757D01*
X67180Y158584D01*
X65835Y156832D01*
X65701Y156650D01*
X64423Y154849D01*
X64295Y154662D01*
X63086Y152814D01*
X62968Y152626D01*
X61828Y150734D01*
X61716Y150540D01*
X60648Y148608D01*
X60542Y148410D01*
X59547Y146438D01*
X59450Y146235D01*
X58529Y144228D01*
X58438Y144021D01*
X57593Y141980D01*
X57512Y141772D01*
X56744Y139702D01*
X56669Y139490D01*
X55979Y137392D01*
X55914Y137180D01*
X55302Y135058D01*
X55243Y134837D01*
X54711Y132693D01*
X54662Y132476D01*
X54211Y130314D01*
X54170Y130094D01*
X53800Y127917D01*
X53766Y127697D01*
X53478Y125507D01*
X53452Y125282D01*
X53246Y123082D01*
X53229Y122860D01*
X53105Y120655D01*
X53097Y120429D01*
X53056Y118221D01*
X53056Y117998D01*
X53097Y115791D01*
X53105Y115565D01*
X53229Y113360D01*
X53246Y113137D01*
X53452Y110938D01*
X53478Y110713D01*
X53766Y108523D01*
X53800Y108303D01*
X54170Y106126D01*
X54211Y105906D01*
X54662Y103744D01*
X54711Y103527D01*
X55243Y101382D01*
X55302Y101161D01*
X55914Y99040D01*
X55979Y98828D01*
X56669Y96730D01*
X56744Y96518D01*
X57512Y94448D01*
X57593Y94240D01*
X58438Y92199D01*
X58529Y91992D01*
X59450Y89985D01*
X59547Y89782D01*
X60542Y87810D01*
X60647Y87613D01*
X61715Y85680D01*
X61829Y85484D01*
X62969Y83593D01*
X63086Y83406D01*
X64295Y81558D01*
X64423Y81371D01*
X65701Y79570D01*
X65835Y79388D01*
X67180Y77636D01*
X67318Y77463D01*
X68727Y75762D01*
X68874Y75591D01*
X70346Y73944D01*
X70499Y73779D01*
X72031Y72189D01*
X72189Y72031D01*
X73779Y70499D01*
X73944Y70346D01*
X75591Y68874D01*
X75762Y68727D01*
X77463Y67318D01*
X77636Y67180D01*
X79388Y65835D01*
X79570Y65701D01*
X81371Y64423D01*
X81558Y64295D01*
X83406Y63086D01*
X83594Y62968D01*
X85486Y61828D01*
X85680Y61716D01*
X87612Y60648D01*
X87810Y60542D01*
X89782Y59547D01*
X89985Y59450D01*
X91992Y58529D01*
X92199Y58438D01*
X94240Y57593D01*
X94448Y57512D01*
X96518Y56744D01*
X96730Y56669D01*
X98828Y55979D01*
X99040Y55914D01*
X101161Y55302D01*
X101382Y55243D01*
X103527Y54711D01*
X103744Y54662D01*
X105906Y54211D01*
X106126Y54170D01*
X108303Y53800D01*
X108523Y53766D01*
X110713Y53478D01*
X110938Y53452D01*
X113137Y53246D01*
X113360Y53229D01*
X115565Y53105D01*
X115791Y53097D01*
G37*
G36*
X1297126Y92987D02*
G01*
X1297396Y93117D01*
X1299259Y94100D01*
X1301083Y95153D01*
X1302866Y96275D01*
X1304604Y97464D01*
X1306296Y98718D01*
X1307940Y100036D01*
X1309531Y101415D01*
X1311069Y102853D01*
X1312552Y104350D01*
X1313976Y105902D01*
X1315340Y107506D01*
X1316642Y109162D01*
X1317880Y110866D01*
X1319052Y112616D01*
X1320157Y114408D01*
X1321192Y116243D01*
X1322053Y117914D01*
X1297126Y117914D01*
G37*
G36*
X1612086Y92987D02*
G01*
X1612356Y93117D01*
X1614219Y94100D01*
X1616043Y95153D01*
X1617826Y96275D01*
X1619564Y97464D01*
X1621256Y98718D01*
X1622900Y100036D01*
X1624490Y101415D01*
X1626029Y102853D01*
X1627512Y104350D01*
X1628936Y105902D01*
X1630300Y107506D01*
X1631602Y109162D01*
X1632840Y110866D01*
X1634012Y112616D01*
X1635117Y114408D01*
X1636151Y116243D01*
X1637013Y117914D01*
X1612086Y117914D01*
G37*
G36*
X1247914Y92993D02*
G01*
X1247914Y117914D01*
X1222992Y117914D01*
X1223356Y117174D01*
X1224357Y115321D01*
X1225427Y113507D01*
X1226566Y111735D01*
X1227771Y110008D01*
X1229041Y108328D01*
X1230375Y106698D01*
X1231769Y105119D01*
X1233222Y103595D01*
X1234733Y102127D01*
X1236298Y100718D01*
X1237916Y99369D01*
X1239584Y98082D01*
X1241299Y96861D01*
X1243060Y95706D01*
X1244864Y94618D01*
X1246707Y93600D01*
G37*
G36*
X1562874Y92993D02*
G01*
X1562874Y117914D01*
X1537952Y117914D01*
X1538316Y117174D01*
X1539317Y115321D01*
X1540387Y113507D01*
X1541526Y111735D01*
X1542731Y110008D01*
X1544001Y108328D01*
X1545335Y106698D01*
X1546729Y105119D01*
X1548182Y103595D01*
X1549693Y102127D01*
X1551258Y100718D01*
X1552876Y99369D01*
X1554544Y98082D01*
X1556259Y96861D01*
X1558020Y95706D01*
X1559824Y94618D01*
X1561667Y93600D01*
G37*
G36*
X1297126Y167125D02*
G01*
X1322053Y167125D01*
X1321192Y168797D01*
X1320157Y170631D01*
X1319052Y172424D01*
X1317880Y174174D01*
X1316642Y175878D01*
X1315340Y177534D01*
X1313976Y179137D01*
X1312552Y180690D01*
X1311069Y182186D01*
X1309531Y183625D01*
X1307940Y185004D01*
X1306296Y186322D01*
X1304604Y187576D01*
X1302866Y188765D01*
X1301083Y189887D01*
X1299259Y190940D01*
X1297396Y191923D01*
X1297126Y192053D01*
G37*
G36*
X1222992Y167125D02*
G01*
X1247914Y167125D01*
X1247914Y192047D01*
X1246707Y191439D01*
X1244864Y190422D01*
X1243060Y189334D01*
X1241299Y188179D01*
X1239584Y186957D01*
X1237916Y185671D01*
X1236298Y184322D01*
X1234733Y182913D01*
X1233222Y181445D01*
X1231769Y179921D01*
X1230375Y178342D01*
X1229041Y176712D01*
X1227771Y175032D01*
X1226566Y173305D01*
X1225427Y171533D01*
X1224357Y169719D01*
X1223356Y167866D01*
G37*
G36*
X1612086Y167125D02*
G01*
X1637013Y167125D01*
X1636151Y168797D01*
X1635117Y170631D01*
X1634012Y172424D01*
X1632840Y174174D01*
X1631602Y175878D01*
X1630300Y177534D01*
X1628936Y179137D01*
X1627512Y180690D01*
X1626029Y182186D01*
X1624490Y183625D01*
X1622900Y185004D01*
X1621256Y186322D01*
X1619564Y187576D01*
X1617826Y188765D01*
X1616043Y189887D01*
X1614219Y190940D01*
X1612356Y191923D01*
X1612086Y192053D01*
G37*
G36*
X1537952Y167125D02*
G01*
X1562874Y167125D01*
X1562874Y192047D01*
X1561667Y191439D01*
X1559824Y190422D01*
X1558020Y189334D01*
X1556259Y188179D01*
X1554544Y186957D01*
X1552876Y185671D01*
X1551258Y184322D01*
X1549693Y182913D01*
X1548182Y181445D01*
X1546729Y179921D01*
X1545335Y178342D01*
X1544001Y176712D01*
X1542731Y175032D01*
X1541526Y173305D01*
X1540387Y171533D01*
X1539317Y169719D01*
X1538316Y167866D01*
G37*
G36*
X1429492Y248627D02*
G01*
X1431522Y248647D01*
X1433550Y248747D01*
X1435572Y248928D01*
X1437585Y249188D01*
X1439587Y249527D01*
X1441573Y249945D01*
X1443542Y250441D01*
X1445489Y251015D01*
X1447412Y251665D01*
X1449308Y252391D01*
X1451174Y253191D01*
X1453007Y254064D01*
X1454804Y255009D01*
X1456562Y256024D01*
X1458278Y257107D01*
X1459951Y258258D01*
X1461577Y259473D01*
X1463153Y260753D01*
X1464678Y262093D01*
X1466148Y263493D01*
X1467562Y264950D01*
X1468918Y266461D01*
X1470212Y268025D01*
X1471444Y269638D01*
X1472611Y271299D01*
X1473711Y273005D01*
X1474744Y274753D01*
X1475706Y276540D01*
X1476598Y278364D01*
X1477416Y280222D01*
X1478160Y282111D01*
X1478830Y284028D01*
X1479422Y285969D01*
X1479938Y287933D01*
X1480376Y289915D01*
X1480735Y291913D01*
X1481014Y293924D01*
X1481215Y295944D01*
X1481335Y297970D01*
X1481376Y300000D01*
X1481335Y302030D01*
X1481215Y304056D01*
X1481014Y306076D01*
X1480735Y308087D01*
X1480376Y310085D01*
X1479938Y312067D01*
X1479422Y314031D01*
X1478830Y315972D01*
X1478160Y317889D01*
X1477416Y319778D01*
X1476598Y321636D01*
X1475706Y323459D01*
X1474744Y325247D01*
X1473711Y326995D01*
X1472611Y328701D01*
X1471444Y330362D01*
X1470212Y331975D01*
X1468918Y333539D01*
X1467562Y335050D01*
X1466148Y336507D01*
X1464678Y337907D01*
X1463153Y339247D01*
X1461577Y340526D01*
X1459951Y341742D01*
X1458278Y342893D01*
X1456562Y343975D01*
X1454804Y344991D01*
X1453007Y345936D01*
X1451174Y346809D01*
X1449308Y347609D01*
X1447412Y348335D01*
X1445489Y348985D01*
X1443542Y349559D01*
X1441573Y350055D01*
X1439587Y350473D01*
X1437585Y350812D01*
X1435572Y351072D01*
X1433550Y351253D01*
X1431522Y351353D01*
X1429492Y351373D01*
X1427463Y351313D01*
X1425438Y351173D01*
X1423420Y350952D01*
X1421412Y350653D01*
X1419418Y350274D01*
X1417440Y349816D01*
X1415482Y349281D01*
X1413546Y348669D01*
X1411636Y347981D01*
X1409755Y347218D01*
X1407905Y346382D01*
X1406090Y345473D01*
X1404312Y344492D01*
X1402575Y343442D01*
X1400880Y342326D01*
X1399230Y341141D01*
X1397629Y339894D01*
X1396078Y338584D01*
X1394580Y337214D01*
X1393137Y335786D01*
X1391753Y334301D01*
X1390427Y332764D01*
X1389164Y331175D01*
X1387964Y329537D01*
X1386830Y327853D01*
X1385763Y326126D01*
X1384766Y324358D01*
X1383839Y322552D01*
X1382983Y320711D01*
X1382202Y318837D01*
X1381496Y316934D01*
X1380864Y315005D01*
X1380310Y313052D01*
X1379833Y311078D01*
X1379435Y309088D01*
X1379115Y307083D01*
X1378875Y305067D01*
X1378715Y303044D01*
X1378634Y301015D01*
X1378634Y298985D01*
X1378715Y296956D01*
X1378875Y294933D01*
X1379115Y292917D01*
X1379435Y290912D01*
X1379833Y288922D01*
X1380310Y286948D01*
X1380864Y284995D01*
X1381496Y283066D01*
X1382202Y281163D01*
X1382983Y279289D01*
X1383839Y277448D01*
X1384766Y275642D01*
X1385763Y273874D01*
X1386830Y272147D01*
X1387964Y270463D01*
X1389164Y268825D01*
X1390427Y267236D01*
X1391753Y265699D01*
X1393137Y264214D01*
X1394580Y262786D01*
X1396078Y261416D01*
X1397629Y260106D01*
X1399230Y258858D01*
X1400880Y257673D01*
X1402575Y256557D01*
X1404312Y255508D01*
X1406090Y254527D01*
X1407905Y253618D01*
X1409755Y252781D01*
X1411636Y252018D01*
X1413546Y251331D01*
X1415482Y250719D01*
X1417440Y250183D01*
X1419418Y249726D01*
X1421412Y249347D01*
X1423420Y249048D01*
X1425438Y248827D01*
X1427463Y248687D01*
G37*
G36*
X633638Y282813D02*
G01*
X634868Y282833D01*
X636094Y282934D01*
X637310Y283117D01*
X638512Y283379D01*
X639694Y283720D01*
X640849Y284139D01*
X641977Y284633D01*
X643068Y285200D01*
X644119Y285839D01*
X645126Y286545D01*
X646084Y287317D01*
X646989Y288150D01*
X647837Y289041D01*
X648623Y289986D01*
X649347Y290981D01*
X650003Y292021D01*
X650588Y293103D01*
X651101Y294221D01*
X651538Y295371D01*
X651899Y296546D01*
X652181Y297744D01*
X652384Y298957D01*
X652505Y300181D01*
X652546Y301410D01*
X652505Y302639D01*
X652384Y303863D01*
X652181Y305076D01*
X651899Y306274D01*
X651538Y307449D01*
X651101Y308599D01*
X650588Y309717D01*
X650003Y310799D01*
X649347Y311839D01*
X648623Y312834D01*
X647837Y313779D01*
X646989Y314670D01*
X646084Y315503D01*
X645126Y316275D01*
X644119Y316981D01*
X643068Y317620D01*
X641977Y318187D01*
X640849Y318681D01*
X639694Y319100D01*
X638512Y319441D01*
X637310Y319703D01*
X636094Y319886D01*
X634868Y319987D01*
X633638Y320007D01*
X632410Y319946D01*
X631188Y319804D01*
X629979Y319582D01*
X628786Y319280D01*
X627617Y318900D01*
X626474Y318443D01*
X625365Y317912D01*
X624293Y317309D01*
X623263Y316636D01*
X622281Y315897D01*
X621349Y315094D01*
X620472Y314232D01*
X619654Y313313D01*
X618898Y312343D01*
X618209Y311324D01*
X617588Y310263D01*
X617038Y309162D01*
X616563Y308028D01*
X616164Y306864D01*
X615842Y305677D01*
X615600Y304471D01*
X615437Y303252D01*
X615356Y302025D01*
X615356Y300795D01*
X615437Y299568D01*
X615600Y298349D01*
X615842Y297143D01*
X616164Y295956D01*
X616563Y294792D01*
X617038Y293658D01*
X617588Y292557D01*
X618209Y291496D01*
X618898Y290477D01*
X619654Y289507D01*
X620472Y288588D01*
X621349Y287726D01*
X622281Y286923D01*
X623263Y286184D01*
X624293Y285511D01*
X625365Y284908D01*
X626474Y284377D01*
X627617Y283920D01*
X628786Y283540D01*
X629979Y283238D01*
X631188Y283016D01*
X632410Y282874D01*
G37*
G36*
X677372Y283601D02*
G01*
X678602Y283621D01*
X679828Y283722D01*
X681044Y283905D01*
X682246Y284167D01*
X683428Y284508D01*
X684584Y284927D01*
X685711Y285421D01*
X686802Y285988D01*
X687853Y286627D01*
X688860Y287333D01*
X689818Y288105D01*
X690723Y288938D01*
X691571Y289829D01*
X692358Y290774D01*
X693081Y291769D01*
X693737Y292809D01*
X694322Y293891D01*
X694835Y295009D01*
X695271Y296159D01*
X695633Y297334D01*
X695915Y298532D01*
X696118Y299745D01*
X696239Y300969D01*
X696280Y302198D01*
X696239Y303427D01*
X696118Y304651D01*
X695915Y305864D01*
X695633Y307062D01*
X695271Y308237D01*
X694835Y309387D01*
X694322Y310505D01*
X693737Y311587D01*
X693081Y312627D01*
X692358Y313622D01*
X691571Y314567D01*
X690723Y315458D01*
X689818Y316291D01*
X688860Y317063D01*
X687853Y317769D01*
X686802Y318408D01*
X685711Y318975D01*
X684584Y319469D01*
X683428Y319888D01*
X682246Y320229D01*
X681044Y320491D01*
X679828Y320674D01*
X678602Y320775D01*
X677372Y320795D01*
X676144Y320734D01*
X674922Y320591D01*
X673713Y320370D01*
X672520Y320068D01*
X671351Y319688D01*
X670207Y319231D01*
X669098Y318700D01*
X668027Y318097D01*
X666997Y317424D01*
X666015Y316685D01*
X665083Y315882D01*
X664205Y315020D01*
X663388Y314101D01*
X662632Y313131D01*
X661943Y312112D01*
X661322Y311051D01*
X660772Y309950D01*
X660297Y308816D01*
X659898Y307652D01*
X659576Y306465D01*
X659334Y305259D01*
X659171Y304040D01*
X659090Y302813D01*
X659090Y301583D01*
X659171Y300356D01*
X659334Y299137D01*
X659576Y297931D01*
X659898Y296744D01*
X660297Y295580D01*
X660772Y294446D01*
X661322Y293345D01*
X661943Y292284D01*
X662632Y291265D01*
X663388Y290295D01*
X664205Y289376D01*
X665083Y288514D01*
X666015Y287711D01*
X666997Y286972D01*
X668027Y286299D01*
X669098Y285696D01*
X670207Y285165D01*
X671351Y284708D01*
X672520Y284328D01*
X673713Y284026D01*
X674922Y283804D01*
X676144Y283662D01*
G37*
G36*
X876833Y296716D02*
G01*
X878043Y296716D01*
X879250Y296797D01*
X880449Y296958D01*
X881634Y297199D01*
X882801Y297519D01*
X883943Y297915D01*
X885057Y298388D01*
X886137Y298933D01*
X887176Y299550D01*
X888175Y300234D01*
X889124Y300984D01*
X890021Y301795D01*
X890862Y302665D01*
X891643Y303589D01*
X892360Y304562D01*
X893011Y305582D01*
X893593Y306643D01*
X894102Y307740D01*
X894537Y308869D01*
X894895Y310024D01*
X895175Y311201D01*
X895377Y312394D01*
X895498Y313597D01*
X895538Y314806D01*
X895498Y316015D01*
X895377Y317218D01*
X895175Y318411D01*
X894895Y319588D01*
X894537Y320743D01*
X894102Y321872D01*
X893593Y322969D01*
X893011Y324030D01*
X892360Y325050D01*
X891643Y326023D01*
X890862Y326947D01*
X890021Y327817D01*
X889124Y328628D01*
X888175Y329378D01*
X887176Y330062D01*
X886137Y330679D01*
X885057Y331224D01*
X883943Y331697D01*
X882801Y332093D01*
X881634Y332413D01*
X880449Y332654D01*
X879250Y332815D01*
X878043Y332896D01*
X876833Y332896D01*
X875626Y332815D01*
X874427Y332654D01*
X873242Y332413D01*
X872075Y332093D01*
X870933Y331697D01*
X869819Y331224D01*
X868739Y330679D01*
X867699Y330062D01*
X866701Y329378D01*
X865752Y328628D01*
X864855Y327817D01*
X864014Y326947D01*
X863233Y326023D01*
X862516Y325050D01*
X861865Y324030D01*
X861283Y322969D01*
X860774Y321872D01*
X860339Y320743D01*
X859980Y319588D01*
X859701Y318411D01*
X859499Y317218D01*
X859378Y316015D01*
X859338Y314806D01*
X859378Y313597D01*
X859499Y312394D01*
X859701Y311201D01*
X859980Y310024D01*
X860339Y308869D01*
X860774Y307740D01*
X861283Y306643D01*
X861865Y305582D01*
X862516Y304562D01*
X863233Y303589D01*
X864014Y302665D01*
X864855Y301795D01*
X865752Y300984D01*
X866701Y300234D01*
X867699Y299550D01*
X868739Y298933D01*
X869819Y298388D01*
X870933Y297915D01*
X872075Y297519D01*
X873242Y297199D01*
X874427Y296958D01*
X875626Y296797D01*
G37*
G36*
X1612086Y407947D02*
G01*
X1612356Y408076D01*
X1614219Y409060D01*
X1616043Y410113D01*
X1617826Y411235D01*
X1619564Y412424D01*
X1621256Y413678D01*
X1622900Y414996D01*
X1624490Y416375D01*
X1626029Y417814D01*
X1627512Y419310D01*
X1628936Y420862D01*
X1630300Y422466D01*
X1631602Y424122D01*
X1632840Y425826D01*
X1634012Y427575D01*
X1635117Y429369D01*
X1636151Y431203D01*
X1637013Y432874D01*
X1612086Y432874D01*
G37*
G36*
X1297126Y407947D02*
G01*
X1297396Y408076D01*
X1299259Y409060D01*
X1301083Y410113D01*
X1302866Y411235D01*
X1304604Y412424D01*
X1306296Y413678D01*
X1307940Y414996D01*
X1309531Y416375D01*
X1311069Y417814D01*
X1312552Y419310D01*
X1313976Y420862D01*
X1315340Y422466D01*
X1316642Y424122D01*
X1317880Y425826D01*
X1319052Y427575D01*
X1320157Y429369D01*
X1321192Y431203D01*
X1322053Y432874D01*
X1297126Y432874D01*
G37*
G36*
X1562874Y407953D02*
G01*
X1562874Y432874D01*
X1537952Y432874D01*
X1538316Y432134D01*
X1539317Y430281D01*
X1540387Y428467D01*
X1541526Y426695D01*
X1542731Y424968D01*
X1544001Y423288D01*
X1545335Y421658D01*
X1546729Y420079D01*
X1548182Y418555D01*
X1549693Y417087D01*
X1551258Y415678D01*
X1552876Y414328D01*
X1554544Y413043D01*
X1556259Y411821D01*
X1558020Y410666D01*
X1559824Y409578D01*
X1561667Y408560D01*
G37*
G36*
X1247914Y407953D02*
G01*
X1247914Y432874D01*
X1222992Y432874D01*
X1223356Y432134D01*
X1224357Y430281D01*
X1225427Y428467D01*
X1226566Y426695D01*
X1227771Y424968D01*
X1229041Y423288D01*
X1230375Y421658D01*
X1231769Y420079D01*
X1233222Y418555D01*
X1234733Y417087D01*
X1236298Y415678D01*
X1237916Y414328D01*
X1239584Y413043D01*
X1241299Y411821D01*
X1243060Y410666D01*
X1244864Y409578D01*
X1246707Y408560D01*
G37*
G36*
X838272Y414473D02*
G01*
X839502Y414493D01*
X840728Y414594D01*
X841944Y414777D01*
X843146Y415039D01*
X844328Y415379D01*
X845484Y415799D01*
X846611Y416293D01*
X847702Y416860D01*
X848753Y417498D01*
X849760Y418205D01*
X850718Y418977D01*
X851623Y419810D01*
X852471Y420700D01*
X853258Y421646D01*
X853981Y422641D01*
X854637Y423681D01*
X855222Y424763D01*
X855735Y425881D01*
X856172Y427031D01*
X856533Y428206D01*
X856815Y429403D01*
X857018Y430617D01*
X857139Y431841D01*
X857180Y433070D01*
X857139Y434299D01*
X857018Y435523D01*
X856815Y436736D01*
X856533Y437934D01*
X856172Y439109D01*
X855735Y440259D01*
X855222Y441377D01*
X854637Y442459D01*
X853981Y443499D01*
X853258Y444494D01*
X852471Y445439D01*
X851623Y446330D01*
X850718Y447162D01*
X849760Y447935D01*
X848753Y448641D01*
X847702Y449280D01*
X846611Y449846D01*
X845484Y450341D01*
X844328Y450760D01*
X843146Y451101D01*
X841944Y451363D01*
X840728Y451546D01*
X839502Y451647D01*
X838272Y451667D01*
X837044Y451606D01*
X835822Y451464D01*
X834613Y451242D01*
X833420Y450940D01*
X832251Y450560D01*
X831108Y450103D01*
X829999Y449572D01*
X828927Y448969D01*
X827897Y448296D01*
X826915Y447557D01*
X825983Y446754D01*
X825106Y445892D01*
X824288Y444973D01*
X823532Y444003D01*
X822843Y442984D01*
X822222Y441923D01*
X821671Y440822D01*
X821197Y439688D01*
X820798Y438524D01*
X820476Y437337D01*
X820234Y436131D01*
X820070Y434912D01*
X819990Y433685D01*
X819990Y432455D01*
X820070Y431228D01*
X820234Y430009D01*
X820476Y428803D01*
X820798Y427616D01*
X821197Y426452D01*
X821671Y425317D01*
X822222Y424217D01*
X822843Y423156D01*
X823532Y422137D01*
X824288Y421167D01*
X825106Y420248D01*
X825983Y419386D01*
X826915Y418583D01*
X827897Y417844D01*
X828927Y417171D01*
X829999Y416567D01*
X831108Y416037D01*
X832251Y415580D01*
X833420Y415200D01*
X834613Y414898D01*
X835822Y414676D01*
X837044Y414534D01*
G37*
G36*
X715984Y461689D02*
G01*
X717214Y461709D01*
X718439Y461810D01*
X719656Y461993D01*
X720858Y462254D01*
X722039Y462596D01*
X723195Y463015D01*
X724323Y463509D01*
X725414Y464076D01*
X726465Y464715D01*
X727472Y465421D01*
X728430Y466193D01*
X729335Y467025D01*
X730183Y467917D01*
X730970Y468862D01*
X731693Y469857D01*
X732349Y470897D01*
X732934Y471978D01*
X733447Y473097D01*
X733884Y474247D01*
X734245Y475422D01*
X734526Y476620D01*
X734730Y477832D01*
X734851Y479057D01*
X734892Y480286D01*
X734851Y481515D01*
X734730Y482739D01*
X734526Y483952D01*
X734245Y485150D01*
X733884Y486325D01*
X733447Y487475D01*
X732934Y488593D01*
X732349Y489675D01*
X731693Y490715D01*
X730970Y491710D01*
X730183Y492655D01*
X729335Y493546D01*
X728430Y494379D01*
X727472Y495150D01*
X726465Y495857D01*
X725414Y496496D01*
X724323Y497063D01*
X723195Y497557D01*
X722039Y497976D01*
X720858Y498317D01*
X719656Y498579D01*
X718439Y498762D01*
X717214Y498863D01*
X715984Y498883D01*
X714756Y498822D01*
X713533Y498680D01*
X712325Y498457D01*
X711132Y498156D01*
X709963Y497776D01*
X708820Y497319D01*
X707711Y496788D01*
X706639Y496185D01*
X705609Y495512D01*
X704627Y494773D01*
X703695Y493970D01*
X702818Y493108D01*
X702000Y492189D01*
X701244Y491218D01*
X700555Y490200D01*
X699933Y489139D01*
X699384Y488038D01*
X698909Y486903D01*
X698510Y485740D01*
X698188Y484553D01*
X697946Y483347D01*
X697783Y482128D01*
X697702Y480901D01*
X697702Y479671D01*
X697783Y478444D01*
X697946Y477224D01*
X698188Y476019D01*
X698510Y474831D01*
X698909Y473668D01*
X699384Y472534D01*
X699933Y471433D01*
X700555Y470372D01*
X701244Y469353D01*
X702000Y468382D01*
X702818Y467464D01*
X703695Y466602D01*
X704627Y465799D01*
X705609Y465060D01*
X706639Y464387D01*
X707711Y463784D01*
X708820Y463253D01*
X709963Y462796D01*
X711132Y462416D01*
X712325Y462114D01*
X713533Y461892D01*
X714756Y461750D01*
G37*
G36*
X1612086Y482085D02*
G01*
X1637013Y482085D01*
X1636151Y483757D01*
X1635117Y485591D01*
X1634012Y487384D01*
X1632840Y489134D01*
X1631602Y490837D01*
X1630300Y492494D01*
X1628936Y494097D01*
X1627512Y495650D01*
X1626029Y497146D01*
X1624490Y498585D01*
X1622900Y499964D01*
X1621256Y501282D01*
X1619564Y502536D01*
X1617826Y503725D01*
X1616043Y504846D01*
X1614219Y505900D01*
X1612356Y506883D01*
X1612086Y507013D01*
G37*
G36*
X1537952Y482085D02*
G01*
X1562874Y482085D01*
X1562874Y507007D01*
X1561667Y506400D01*
X1559824Y505382D01*
X1558020Y504294D01*
X1556259Y503138D01*
X1554544Y501917D01*
X1552876Y500631D01*
X1551258Y499281D01*
X1549693Y497873D01*
X1548182Y496405D01*
X1546729Y494881D01*
X1545335Y493302D01*
X1544001Y491672D01*
X1542731Y489992D01*
X1541526Y488265D01*
X1540387Y486492D01*
X1539317Y484679D01*
X1538316Y482826D01*
G37*
G36*
X1297126Y482085D02*
G01*
X1322053Y482085D01*
X1321192Y483757D01*
X1320157Y485591D01*
X1319052Y487384D01*
X1317880Y489134D01*
X1316642Y490837D01*
X1315340Y492494D01*
X1313976Y494097D01*
X1312552Y495650D01*
X1311069Y497146D01*
X1309531Y498585D01*
X1307940Y499964D01*
X1306296Y501282D01*
X1304604Y502536D01*
X1302866Y503725D01*
X1301083Y504846D01*
X1299259Y505900D01*
X1297396Y506883D01*
X1297126Y507013D01*
G37*
G36*
X1222992Y482085D02*
G01*
X1247914Y482085D01*
X1247914Y507007D01*
X1246707Y506400D01*
X1244864Y505382D01*
X1243060Y504294D01*
X1241299Y503138D01*
X1239584Y501917D01*
X1237916Y500631D01*
X1236298Y499281D01*
X1234733Y497873D01*
X1233222Y496405D01*
X1231769Y494881D01*
X1230375Y493302D01*
X1229041Y491672D01*
X1227771Y489992D01*
X1226566Y488265D01*
X1225427Y486492D01*
X1224357Y484679D01*
X1223356Y482826D01*
G37*
G36*
X1052852Y537733D02*
G01*
X1054082Y537753D01*
X1055308Y537854D01*
X1056524Y538037D01*
X1057726Y538299D01*
X1058908Y538640D01*
X1060064Y539059D01*
X1061191Y539553D01*
X1062282Y540120D01*
X1063333Y540759D01*
X1064340Y541465D01*
X1065298Y542237D01*
X1066203Y543070D01*
X1067051Y543961D01*
X1067838Y544906D01*
X1068561Y545901D01*
X1069217Y546941D01*
X1069802Y548023D01*
X1070315Y549141D01*
X1070752Y550291D01*
X1071113Y551466D01*
X1071395Y552664D01*
X1071598Y553877D01*
X1071719Y555101D01*
X1071760Y556330D01*
X1071719Y557559D01*
X1071598Y558783D01*
X1071395Y559996D01*
X1071113Y561194D01*
X1070752Y562369D01*
X1070315Y563519D01*
X1069802Y564637D01*
X1069217Y565719D01*
X1068561Y566759D01*
X1067838Y567754D01*
X1067051Y568699D01*
X1066203Y569590D01*
X1065298Y570423D01*
X1064340Y571195D01*
X1063333Y571901D01*
X1062282Y572540D01*
X1061191Y573107D01*
X1060064Y573601D01*
X1058908Y574020D01*
X1057726Y574361D01*
X1056524Y574623D01*
X1055308Y574806D01*
X1054082Y574907D01*
X1052852Y574927D01*
X1051624Y574866D01*
X1050402Y574724D01*
X1049193Y574502D01*
X1048000Y574200D01*
X1046831Y573820D01*
X1045688Y573363D01*
X1044579Y572832D01*
X1043507Y572229D01*
X1042477Y571556D01*
X1041495Y570817D01*
X1040562Y570014D01*
X1039686Y569152D01*
X1038867Y568233D01*
X1038112Y567263D01*
X1037423Y566244D01*
X1036802Y565183D01*
X1036252Y564082D01*
X1035776Y562948D01*
X1035378Y561784D01*
X1035056Y560597D01*
X1034813Y559391D01*
X1034651Y558172D01*
X1034569Y556945D01*
X1034569Y555715D01*
X1034651Y554488D01*
X1034813Y553269D01*
X1035056Y552063D01*
X1035378Y550876D01*
X1035776Y549712D01*
X1036252Y548578D01*
X1036802Y547477D01*
X1037423Y546416D01*
X1038112Y545397D01*
X1038867Y544427D01*
X1039686Y543508D01*
X1040562Y542646D01*
X1041495Y541843D01*
X1042477Y541104D01*
X1043507Y540431D01*
X1044579Y539828D01*
X1045688Y539297D01*
X1046831Y538840D01*
X1048000Y538460D01*
X1049193Y538158D01*
X1050402Y537936D01*
X1051624Y537794D01*
G37*
G36*
X814652Y540463D02*
G01*
X815882Y540483D01*
X817108Y540584D01*
X818324Y540767D01*
X819526Y541029D01*
X820708Y541370D01*
X821864Y541789D01*
X822991Y542283D01*
X824081Y542850D01*
X825133Y543489D01*
X826140Y544195D01*
X827098Y544967D01*
X828002Y545800D01*
X828851Y546691D01*
X829638Y547636D01*
X830361Y548631D01*
X831016Y549671D01*
X831602Y550753D01*
X832115Y551871D01*
X832552Y553021D01*
X832913Y554196D01*
X833195Y555394D01*
X833398Y556607D01*
X833519Y557831D01*
X833560Y559060D01*
X833519Y560289D01*
X833398Y561513D01*
X833195Y562726D01*
X832913Y563924D01*
X832552Y565099D01*
X832115Y566249D01*
X831602Y567367D01*
X831016Y568449D01*
X830361Y569489D01*
X829638Y570484D01*
X828851Y571429D01*
X828002Y572320D01*
X827098Y573153D01*
X826140Y573925D01*
X825133Y574631D01*
X824081Y575270D01*
X822991Y575837D01*
X821864Y576331D01*
X820708Y576750D01*
X819526Y577091D01*
X818324Y577353D01*
X817108Y577536D01*
X815882Y577637D01*
X814652Y577657D01*
X813424Y577596D01*
X812202Y577454D01*
X810993Y577232D01*
X809800Y576930D01*
X808631Y576550D01*
X807488Y576093D01*
X806379Y575562D01*
X805307Y574959D01*
X804277Y574286D01*
X803295Y573547D01*
X802363Y572744D01*
X801486Y571882D01*
X800668Y570963D01*
X799912Y569993D01*
X799223Y568974D01*
X798602Y567913D01*
X798052Y566812D01*
X797577Y565678D01*
X797178Y564514D01*
X796855Y563327D01*
X796614Y562121D01*
X796451Y560902D01*
X796370Y559675D01*
X796370Y558445D01*
X796451Y557218D01*
X796614Y555999D01*
X796855Y554793D01*
X797178Y553606D01*
X797577Y552442D01*
X798052Y551308D01*
X798602Y550207D01*
X799223Y549146D01*
X799912Y548127D01*
X800668Y547157D01*
X801486Y546238D01*
X802363Y545376D01*
X803295Y544573D01*
X804277Y543834D01*
X805307Y543161D01*
X806379Y542558D01*
X807488Y542027D01*
X808631Y541570D01*
X809800Y541190D01*
X810993Y540888D01*
X812202Y540666D01*
X813424Y540524D01*
G37*
G36*
X167125Y642987D02*
G01*
X167396Y643117D01*
X169259Y644100D01*
X171083Y645153D01*
X172866Y646275D01*
X174604Y647464D01*
X176296Y648717D01*
X177940Y650036D01*
X179531Y651414D01*
X181069Y652854D01*
X182551Y654350D01*
X183976Y655902D01*
X185340Y657506D01*
X186642Y659162D01*
X187880Y660866D01*
X189052Y662616D01*
X190157Y664409D01*
X191192Y666243D01*
X192053Y667914D01*
X167125Y667914D01*
G37*
G36*
X482085Y642987D02*
G01*
X482356Y643117D01*
X484219Y644100D01*
X486043Y645153D01*
X487826Y646275D01*
X489564Y647464D01*
X491256Y648717D01*
X492900Y650036D01*
X494491Y651414D01*
X496029Y652854D01*
X497512Y654350D01*
X498936Y655902D01*
X500300Y657506D01*
X501602Y659162D01*
X502840Y660866D01*
X504012Y662616D01*
X505117Y664409D01*
X506152Y666243D01*
X507013Y667914D01*
X482085Y667914D01*
G37*
G36*
X1862086Y642987D02*
G01*
X1862356Y643117D01*
X1864219Y644100D01*
X1866043Y645153D01*
X1867826Y646275D01*
X1869564Y647464D01*
X1871256Y648717D01*
X1872900Y650036D01*
X1874490Y651414D01*
X1876029Y652854D01*
X1877512Y654350D01*
X1878936Y655902D01*
X1880300Y657506D01*
X1881602Y659162D01*
X1882840Y660866D01*
X1884012Y662616D01*
X1885117Y664409D01*
X1886151Y666243D01*
X1887013Y667914D01*
X1862086Y667914D01*
G37*
G36*
X1547126Y642987D02*
G01*
X1547396Y643117D01*
X1549259Y644100D01*
X1551083Y645153D01*
X1552866Y646275D01*
X1554604Y647464D01*
X1556296Y648717D01*
X1557940Y650036D01*
X1559531Y651414D01*
X1561069Y652854D01*
X1562552Y654350D01*
X1563976Y655902D01*
X1565340Y657506D01*
X1566642Y659162D01*
X1567880Y660866D01*
X1569052Y662616D01*
X1570157Y664409D01*
X1571192Y666243D01*
X1572053Y667914D01*
X1547126Y667914D01*
G37*
G36*
X117914Y642993D02*
G01*
X117914Y667914D01*
X92992Y667914D01*
X93356Y667174D01*
X94357Y665321D01*
X95427Y663507D01*
X96565Y661735D01*
X97771Y660008D01*
X99041Y658328D01*
X100375Y656698D01*
X101769Y655119D01*
X103222Y653595D01*
X104733Y652127D01*
X106298Y650718D01*
X107916Y649369D01*
X109583Y648083D01*
X111298Y646861D01*
X113059Y645706D01*
X114864Y644618D01*
X116707Y643600D01*
G37*
G36*
X432874Y642993D02*
G01*
X432874Y667914D01*
X407952Y667914D01*
X408316Y667174D01*
X409317Y665321D01*
X410387Y663507D01*
X411526Y661735D01*
X412731Y660008D01*
X414001Y658328D01*
X415334Y656698D01*
X416729Y655119D01*
X418182Y653595D01*
X419692Y652127D01*
X421258Y650718D01*
X422876Y649369D01*
X424544Y648083D01*
X426259Y646861D01*
X428020Y645706D01*
X429824Y644618D01*
X431667Y643600D01*
G37*
G36*
X1812874Y642993D02*
G01*
X1812874Y667914D01*
X1787952Y667914D01*
X1788316Y667174D01*
X1789317Y665321D01*
X1790387Y663507D01*
X1791526Y661735D01*
X1792731Y660008D01*
X1794001Y658328D01*
X1795335Y656698D01*
X1796729Y655119D01*
X1798182Y653595D01*
X1799693Y652127D01*
X1801258Y650718D01*
X1802876Y649369D01*
X1804544Y648083D01*
X1806259Y646861D01*
X1808020Y645706D01*
X1809824Y644618D01*
X1811667Y643600D01*
G37*
G36*
X1497914Y642993D02*
G01*
X1497914Y667914D01*
X1472992Y667914D01*
X1473356Y667174D01*
X1474357Y665321D01*
X1475427Y663507D01*
X1476566Y661735D01*
X1477771Y660008D01*
X1479041Y658328D01*
X1480375Y656698D01*
X1481769Y655119D01*
X1483222Y653595D01*
X1484733Y652127D01*
X1486298Y650718D01*
X1487915Y649369D01*
X1489584Y648083D01*
X1491299Y646861D01*
X1493060Y645706D01*
X1494864Y644618D01*
X1496707Y643600D01*
G37*
G36*
X167125Y717126D02*
G01*
X192053Y717126D01*
X191192Y718797D01*
X190157Y720631D01*
X189052Y722424D01*
X187880Y724174D01*
X186642Y725878D01*
X185340Y727534D01*
X183976Y729138D01*
X182551Y730690D01*
X181069Y732186D01*
X179531Y733625D01*
X177940Y735004D01*
X176296Y736322D01*
X174604Y737576D01*
X172866Y738764D01*
X171083Y739887D01*
X169259Y740939D01*
X167396Y741923D01*
X167125Y742052D01*
G37*
G36*
X92992Y717126D02*
G01*
X117914Y717126D01*
X117914Y742047D01*
X116707Y741440D01*
X114864Y740421D01*
X113059Y739334D01*
X111298Y738179D01*
X109583Y736957D01*
X107916Y735671D01*
X106298Y734322D01*
X104733Y732913D01*
X103222Y731444D01*
X101769Y729920D01*
X100375Y728342D01*
X99041Y726712D01*
X97771Y725032D01*
X96565Y723305D01*
X95427Y721533D01*
X94357Y719719D01*
X93356Y717866D01*
G37*
G36*
X482085Y717126D02*
G01*
X507013Y717126D01*
X506152Y718797D01*
X505117Y720631D01*
X504012Y722424D01*
X502840Y724174D01*
X501602Y725878D01*
X500300Y727534D01*
X498936Y729138D01*
X497512Y730690D01*
X496029Y732186D01*
X494491Y733625D01*
X492900Y735004D01*
X491256Y736322D01*
X489564Y737576D01*
X487826Y738764D01*
X486043Y739887D01*
X484219Y740939D01*
X482356Y741923D01*
X482085Y742052D01*
G37*
G36*
X407952Y717126D02*
G01*
X432874Y717126D01*
X432874Y742047D01*
X431667Y741440D01*
X429824Y740421D01*
X428020Y739334D01*
X426259Y738179D01*
X424544Y736957D01*
X422876Y735671D01*
X421258Y734322D01*
X419692Y732913D01*
X418182Y731444D01*
X416729Y729920D01*
X415334Y728342D01*
X414001Y726712D01*
X412731Y725032D01*
X411526Y723305D01*
X410387Y721533D01*
X409317Y719719D01*
X408316Y717866D01*
G37*
G36*
X1862086Y717126D02*
G01*
X1887013Y717126D01*
X1886151Y718797D01*
X1885117Y720631D01*
X1884012Y722424D01*
X1882840Y724174D01*
X1881602Y725878D01*
X1880300Y727534D01*
X1878936Y729138D01*
X1877512Y730690D01*
X1876029Y732186D01*
X1874490Y733625D01*
X1872900Y735004D01*
X1871256Y736322D01*
X1869564Y737576D01*
X1867826Y738764D01*
X1866043Y739887D01*
X1864219Y740939D01*
X1862356Y741923D01*
X1862086Y742052D01*
G37*
G36*
X1787952Y717126D02*
G01*
X1812874Y717126D01*
X1812874Y742047D01*
X1811667Y741440D01*
X1809824Y740421D01*
X1808020Y739334D01*
X1806259Y738179D01*
X1804544Y736957D01*
X1802876Y735671D01*
X1801258Y734322D01*
X1799693Y732913D01*
X1798182Y731444D01*
X1796729Y729920D01*
X1795335Y728342D01*
X1794001Y726712D01*
X1792731Y725032D01*
X1791526Y723305D01*
X1790387Y721533D01*
X1789317Y719719D01*
X1788316Y717866D01*
G37*
G36*
X1547126Y717126D02*
G01*
X1572053Y717126D01*
X1571192Y718797D01*
X1570157Y720631D01*
X1569052Y722424D01*
X1567880Y724174D01*
X1566642Y725878D01*
X1565340Y727534D01*
X1563976Y729138D01*
X1562552Y730690D01*
X1561069Y732186D01*
X1559531Y733625D01*
X1557940Y735004D01*
X1556296Y736322D01*
X1554604Y737576D01*
X1552866Y738764D01*
X1551083Y739887D01*
X1549259Y740939D01*
X1547396Y741923D01*
X1547126Y742052D01*
G37*
G36*
X1472992Y717126D02*
G01*
X1497914Y717126D01*
X1497914Y742047D01*
X1496707Y741440D01*
X1494864Y740421D01*
X1493060Y739334D01*
X1491299Y738179D01*
X1489584Y736957D01*
X1487915Y735671D01*
X1486298Y734322D01*
X1484733Y732913D01*
X1483222Y731444D01*
X1481769Y729920D01*
X1480375Y728342D01*
X1479041Y726712D01*
X1477771Y725032D01*
X1476566Y723305D01*
X1475427Y721533D01*
X1474357Y719719D01*
X1473356Y717866D01*
G37*
G36*
X299492Y798627D02*
G01*
X301522Y798647D01*
X303550Y798747D01*
X305572Y798927D01*
X307585Y799188D01*
X309587Y799526D01*
X311573Y799945D01*
X313542Y800441D01*
X315489Y801015D01*
X317412Y801665D01*
X319308Y802390D01*
X321174Y803191D01*
X323007Y804064D01*
X324804Y805009D01*
X326562Y806024D01*
X328278Y807107D01*
X329951Y808258D01*
X331577Y809474D01*
X333153Y810753D01*
X334677Y812093D01*
X336148Y813493D01*
X337562Y814950D01*
X338918Y816461D01*
X340212Y818025D01*
X341444Y819638D01*
X342611Y821299D01*
X343712Y823005D01*
X344744Y824753D01*
X345707Y826540D01*
X346597Y828364D01*
X347416Y830222D01*
X348160Y832111D01*
X348830Y834028D01*
X349422Y835969D01*
X349938Y837933D01*
X350376Y839915D01*
X350735Y841913D01*
X351015Y843924D01*
X351215Y845943D01*
X351335Y847970D01*
X351376Y850000D01*
X351335Y852030D01*
X351215Y854056D01*
X351015Y856076D01*
X350735Y858087D01*
X350376Y860085D01*
X349938Y862067D01*
X349422Y864031D01*
X348830Y865972D01*
X348160Y867889D01*
X347416Y869778D01*
X346597Y871636D01*
X345707Y873460D01*
X344744Y875247D01*
X343712Y876995D01*
X342611Y878700D01*
X341444Y880361D01*
X340212Y881975D01*
X338918Y883539D01*
X337562Y885050D01*
X336148Y886507D01*
X334677Y887907D01*
X333153Y889247D01*
X331577Y890526D01*
X329951Y891742D01*
X328278Y892893D01*
X326562Y893976D01*
X324804Y894991D01*
X323007Y895936D01*
X321174Y896808D01*
X319308Y897609D01*
X317412Y898335D01*
X315489Y898985D01*
X313542Y899559D01*
X311573Y900055D01*
X309587Y900473D01*
X307585Y900812D01*
X305572Y901072D01*
X303550Y901253D01*
X301522Y901353D01*
X299492Y901373D01*
X297463Y901313D01*
X295438Y901173D01*
X293420Y900952D01*
X291412Y900652D01*
X289418Y900274D01*
X287440Y899817D01*
X285482Y899281D01*
X283546Y898669D01*
X281636Y897981D01*
X279755Y897218D01*
X277905Y896382D01*
X276090Y895473D01*
X274312Y894492D01*
X272575Y893443D01*
X270880Y892326D01*
X269230Y891142D01*
X267629Y889894D01*
X266078Y888584D01*
X264580Y887214D01*
X263138Y885786D01*
X261753Y884301D01*
X260427Y882764D01*
X259164Y881175D01*
X257963Y879537D01*
X256830Y877853D01*
X255763Y876126D01*
X254766Y874358D01*
X253839Y872552D01*
X252984Y870711D01*
X252201Y868837D01*
X251496Y866934D01*
X250864Y865005D01*
X250310Y863052D01*
X249833Y861078D01*
X249435Y859088D01*
X249115Y857082D01*
X248875Y855067D01*
X248715Y853044D01*
X248634Y851015D01*
X248634Y848985D01*
X248715Y846956D01*
X248875Y844933D01*
X249115Y842917D01*
X249435Y840912D01*
X249833Y838922D01*
X250310Y836948D01*
X250864Y834995D01*
X251496Y833066D01*
X252201Y831163D01*
X252984Y829289D01*
X253839Y827448D01*
X254766Y825642D01*
X255763Y823874D01*
X256830Y822146D01*
X257963Y820463D01*
X259164Y818824D01*
X260427Y817236D01*
X261753Y815699D01*
X263138Y814214D01*
X264580Y812786D01*
X266078Y811416D01*
X267629Y810106D01*
X269230Y808858D01*
X270880Y807674D01*
X272575Y806557D01*
X274312Y805508D01*
X276090Y804526D01*
X277905Y803618D01*
X279755Y802782D01*
X281636Y802019D01*
X283546Y801331D01*
X285482Y800719D01*
X287440Y800183D01*
X289418Y799726D01*
X291412Y799347D01*
X293420Y799048D01*
X295438Y798827D01*
X297463Y798687D01*
G37*
G36*
X1679492Y798627D02*
G01*
X1681522Y798647D01*
X1683550Y798747D01*
X1685572Y798927D01*
X1687585Y799188D01*
X1689587Y799526D01*
X1691573Y799945D01*
X1693542Y800441D01*
X1695489Y801015D01*
X1697412Y801665D01*
X1699308Y802390D01*
X1701174Y803191D01*
X1703007Y804064D01*
X1704804Y805009D01*
X1706562Y806024D01*
X1708278Y807107D01*
X1709951Y808258D01*
X1711577Y809474D01*
X1713153Y810753D01*
X1714678Y812093D01*
X1716148Y813493D01*
X1717562Y814950D01*
X1718918Y816461D01*
X1720212Y818025D01*
X1721444Y819638D01*
X1722611Y821299D01*
X1723711Y823005D01*
X1724744Y824753D01*
X1725706Y826540D01*
X1726598Y828364D01*
X1727416Y830222D01*
X1728160Y832111D01*
X1728830Y834028D01*
X1729422Y835969D01*
X1729938Y837933D01*
X1730376Y839915D01*
X1730735Y841913D01*
X1731014Y843924D01*
X1731215Y845943D01*
X1731335Y847970D01*
X1731376Y850000D01*
X1731335Y852030D01*
X1731215Y854056D01*
X1731014Y856076D01*
X1730735Y858087D01*
X1730376Y860085D01*
X1729938Y862067D01*
X1729422Y864031D01*
X1728830Y865972D01*
X1728160Y867889D01*
X1727416Y869778D01*
X1726598Y871636D01*
X1725706Y873460D01*
X1724744Y875247D01*
X1723711Y876995D01*
X1722611Y878700D01*
X1721444Y880361D01*
X1720212Y881975D01*
X1718918Y883539D01*
X1717562Y885050D01*
X1716148Y886507D01*
X1714678Y887907D01*
X1713153Y889247D01*
X1711577Y890526D01*
X1709951Y891742D01*
X1708278Y892893D01*
X1706562Y893976D01*
X1704804Y894991D01*
X1703007Y895936D01*
X1701174Y896808D01*
X1699308Y897609D01*
X1697412Y898335D01*
X1695489Y898985D01*
X1693542Y899559D01*
X1691573Y900055D01*
X1689587Y900473D01*
X1687585Y900812D01*
X1685572Y901072D01*
X1683550Y901253D01*
X1681522Y901353D01*
X1679492Y901373D01*
X1677463Y901313D01*
X1675438Y901173D01*
X1673420Y900952D01*
X1671412Y900652D01*
X1669418Y900274D01*
X1667440Y899817D01*
X1665482Y899281D01*
X1663546Y898669D01*
X1661636Y897981D01*
X1659755Y897218D01*
X1657905Y896382D01*
X1656090Y895473D01*
X1654312Y894492D01*
X1652575Y893443D01*
X1650880Y892326D01*
X1649230Y891142D01*
X1647629Y889894D01*
X1646078Y888584D01*
X1644580Y887214D01*
X1643137Y885786D01*
X1641753Y884301D01*
X1640427Y882764D01*
X1639164Y881175D01*
X1637964Y879537D01*
X1636830Y877853D01*
X1635763Y876126D01*
X1634766Y874358D01*
X1633839Y872552D01*
X1632983Y870711D01*
X1632202Y868837D01*
X1631496Y866934D01*
X1630864Y865005D01*
X1630310Y863052D01*
X1629833Y861078D01*
X1629435Y859088D01*
X1629115Y857082D01*
X1628875Y855067D01*
X1628715Y853044D01*
X1628634Y851015D01*
X1628634Y848985D01*
X1628715Y846956D01*
X1628875Y844933D01*
X1629115Y842917D01*
X1629435Y840912D01*
X1629833Y838922D01*
X1630310Y836948D01*
X1630864Y834995D01*
X1631496Y833066D01*
X1632202Y831163D01*
X1632983Y829289D01*
X1633839Y827448D01*
X1634766Y825642D01*
X1635763Y823874D01*
X1636830Y822146D01*
X1637964Y820463D01*
X1639164Y818824D01*
X1640427Y817236D01*
X1641753Y815699D01*
X1643137Y814214D01*
X1644580Y812786D01*
X1646078Y811416D01*
X1647629Y810106D01*
X1649230Y808858D01*
X1650880Y807674D01*
X1652575Y806557D01*
X1654312Y805508D01*
X1656090Y804526D01*
X1657905Y803618D01*
X1659755Y802782D01*
X1661636Y802019D01*
X1663546Y801331D01*
X1665482Y800719D01*
X1667440Y800183D01*
X1669418Y799726D01*
X1671412Y799347D01*
X1673420Y799048D01*
X1675438Y798827D01*
X1677463Y798687D01*
G37*
G36*
X167125Y957947D02*
G01*
X167396Y958077D01*
X169259Y959060D01*
X171083Y960113D01*
X172866Y961235D01*
X174604Y962424D01*
X176296Y963678D01*
X177940Y964996D01*
X179531Y966375D01*
X181069Y967814D01*
X182551Y969310D01*
X183976Y970862D01*
X185340Y972466D01*
X186642Y974122D01*
X187880Y975826D01*
X189052Y977576D01*
X190157Y979369D01*
X191192Y981203D01*
X192053Y982874D01*
X167125Y982874D01*
G37*
G36*
X482085Y957947D02*
G01*
X482356Y958077D01*
X484219Y959060D01*
X486043Y960113D01*
X487826Y961235D01*
X489564Y962424D01*
X491256Y963678D01*
X492900Y964996D01*
X494491Y966375D01*
X496029Y967814D01*
X497512Y969310D01*
X498936Y970862D01*
X500300Y972466D01*
X501602Y974122D01*
X502840Y975826D01*
X504012Y977576D01*
X505117Y979369D01*
X506152Y981203D01*
X507013Y982874D01*
X482085Y982874D01*
G37*
G36*
X1862086Y957947D02*
G01*
X1862356Y958077D01*
X1864219Y959060D01*
X1866043Y960113D01*
X1867826Y961235D01*
X1869564Y962424D01*
X1871256Y963678D01*
X1872900Y964996D01*
X1874490Y966375D01*
X1876029Y967814D01*
X1877512Y969310D01*
X1878936Y970862D01*
X1880300Y972466D01*
X1881602Y974122D01*
X1882840Y975826D01*
X1884012Y977576D01*
X1885117Y979369D01*
X1886151Y981203D01*
X1887013Y982874D01*
X1862086Y982874D01*
G37*
G36*
X1547126Y957947D02*
G01*
X1547396Y958077D01*
X1549259Y959060D01*
X1551083Y960113D01*
X1552866Y961235D01*
X1554604Y962424D01*
X1556296Y963678D01*
X1557940Y964996D01*
X1559531Y966375D01*
X1561069Y967814D01*
X1562552Y969310D01*
X1563976Y970862D01*
X1565340Y972466D01*
X1566642Y974122D01*
X1567880Y975826D01*
X1569052Y977576D01*
X1570157Y979369D01*
X1571192Y981203D01*
X1572053Y982874D01*
X1547126Y982874D01*
G37*
G36*
X117914Y957953D02*
G01*
X117914Y982874D01*
X92992Y982874D01*
X93356Y982133D01*
X94357Y980281D01*
X95427Y978467D01*
X96565Y976695D01*
X97771Y974967D01*
X99041Y973288D01*
X100375Y971658D01*
X101769Y970079D01*
X103222Y968555D01*
X104733Y967086D01*
X106298Y965678D01*
X107916Y964329D01*
X109583Y963043D01*
X111298Y961821D01*
X113059Y960665D01*
X114864Y959578D01*
X116707Y958560D01*
G37*
G36*
X432874Y957953D02*
G01*
X432874Y982874D01*
X407952Y982874D01*
X408316Y982133D01*
X409317Y980281D01*
X410387Y978467D01*
X411526Y976695D01*
X412731Y974967D01*
X414001Y973288D01*
X415334Y971658D01*
X416729Y970079D01*
X418182Y968555D01*
X419692Y967086D01*
X421258Y965678D01*
X422876Y964329D01*
X424544Y963043D01*
X426259Y961821D01*
X428020Y960665D01*
X429824Y959578D01*
X431667Y958560D01*
G37*
G36*
X1812874Y957953D02*
G01*
X1812874Y982874D01*
X1787952Y982874D01*
X1788316Y982133D01*
X1789317Y980281D01*
X1790387Y978467D01*
X1791526Y976695D01*
X1792731Y974967D01*
X1794001Y973288D01*
X1795335Y971658D01*
X1796729Y970079D01*
X1798182Y968555D01*
X1799693Y967086D01*
X1801258Y965678D01*
X1802876Y964329D01*
X1804544Y963043D01*
X1806259Y961821D01*
X1808020Y960665D01*
X1809824Y959578D01*
X1811667Y958560D01*
G37*
G36*
X1497914Y957953D02*
G01*
X1497914Y982874D01*
X1472992Y982874D01*
X1473356Y982133D01*
X1474357Y980281D01*
X1475427Y978467D01*
X1476566Y976695D01*
X1477771Y974967D01*
X1479041Y973288D01*
X1480375Y971658D01*
X1481769Y970079D01*
X1483222Y968555D01*
X1484733Y967086D01*
X1486298Y965678D01*
X1487915Y964329D01*
X1489584Y963043D01*
X1491299Y961821D01*
X1493060Y960665D01*
X1494864Y959578D01*
X1496707Y958560D01*
G37*
G36*
X167125Y1032086D02*
G01*
X192053Y1032086D01*
X191192Y1033757D01*
X190157Y1035591D01*
X189052Y1037384D01*
X187880Y1039134D01*
X186642Y1040838D01*
X185340Y1042494D01*
X183976Y1044098D01*
X182551Y1045650D01*
X181069Y1047146D01*
X179531Y1048585D01*
X177940Y1049964D01*
X176296Y1051282D01*
X174604Y1052536D01*
X172866Y1053725D01*
X171083Y1054847D01*
X169259Y1055900D01*
X167396Y1056883D01*
X167125Y1057013D01*
G37*
G36*
X92992Y1032086D02*
G01*
X117914Y1032086D01*
X117914Y1057007D01*
X116707Y1056400D01*
X114864Y1055382D01*
X113059Y1054294D01*
X111298Y1053139D01*
X109583Y1051917D01*
X107916Y1050631D01*
X106298Y1049282D01*
X104733Y1047873D01*
X103222Y1046405D01*
X101769Y1044881D01*
X100375Y1043302D01*
X99041Y1041671D01*
X97771Y1039992D01*
X96565Y1038265D01*
X95427Y1036493D01*
X94357Y1034679D01*
X93356Y1032826D01*
G37*
G36*
X482085Y1032086D02*
G01*
X507013Y1032086D01*
X506152Y1033757D01*
X505117Y1035591D01*
X504012Y1037384D01*
X502840Y1039134D01*
X501602Y1040838D01*
X500300Y1042494D01*
X498936Y1044098D01*
X497512Y1045650D01*
X496029Y1047146D01*
X494491Y1048585D01*
X492900Y1049964D01*
X491256Y1051282D01*
X489564Y1052536D01*
X487826Y1053725D01*
X486043Y1054847D01*
X484219Y1055900D01*
X482356Y1056883D01*
X482085Y1057013D01*
G37*
G36*
X407952Y1032086D02*
G01*
X432874Y1032086D01*
X432874Y1057007D01*
X431667Y1056400D01*
X429824Y1055382D01*
X428020Y1054294D01*
X426259Y1053139D01*
X424544Y1051917D01*
X422876Y1050631D01*
X421258Y1049282D01*
X419692Y1047873D01*
X418182Y1046405D01*
X416729Y1044881D01*
X415334Y1043302D01*
X414001Y1041671D01*
X412731Y1039992D01*
X411526Y1038265D01*
X410387Y1036493D01*
X409317Y1034679D01*
X408316Y1032826D01*
G37*
G36*
X1862086Y1032086D02*
G01*
X1887013Y1032086D01*
X1886151Y1033757D01*
X1885117Y1035591D01*
X1884012Y1037384D01*
X1882840Y1039134D01*
X1881602Y1040838D01*
X1880300Y1042494D01*
X1878936Y1044098D01*
X1877512Y1045650D01*
X1876029Y1047146D01*
X1874490Y1048585D01*
X1872900Y1049964D01*
X1871256Y1051282D01*
X1869564Y1052536D01*
X1867826Y1053725D01*
X1866043Y1054847D01*
X1864219Y1055900D01*
X1862356Y1056883D01*
X1862086Y1057013D01*
G37*
G36*
X1787952Y1032086D02*
G01*
X1812874Y1032086D01*
X1812874Y1057007D01*
X1811667Y1056400D01*
X1809824Y1055382D01*
X1808020Y1054294D01*
X1806259Y1053139D01*
X1804544Y1051917D01*
X1802876Y1050631D01*
X1801258Y1049282D01*
X1799693Y1047873D01*
X1798182Y1046405D01*
X1796729Y1044881D01*
X1795335Y1043302D01*
X1794001Y1041671D01*
X1792731Y1039992D01*
X1791526Y1038265D01*
X1790387Y1036493D01*
X1789317Y1034679D01*
X1788316Y1032826D01*
G37*
G36*
X1547126Y1032086D02*
G01*
X1572053Y1032086D01*
X1571192Y1033757D01*
X1570157Y1035591D01*
X1569052Y1037384D01*
X1567880Y1039134D01*
X1566642Y1040838D01*
X1565340Y1042494D01*
X1563976Y1044098D01*
X1562552Y1045650D01*
X1561069Y1047146D01*
X1559531Y1048585D01*
X1557940Y1049964D01*
X1556296Y1051282D01*
X1554604Y1052536D01*
X1552866Y1053725D01*
X1551083Y1054847D01*
X1549259Y1055900D01*
X1547396Y1056883D01*
X1547126Y1057013D01*
G37*
G36*
X1472992Y1032086D02*
G01*
X1497914Y1032086D01*
X1497914Y1057007D01*
X1496707Y1056400D01*
X1494864Y1055382D01*
X1493060Y1054294D01*
X1491299Y1053139D01*
X1489584Y1051917D01*
X1487915Y1050631D01*
X1486298Y1049282D01*
X1484733Y1047873D01*
X1483222Y1046405D01*
X1481769Y1044881D01*
X1480375Y1043302D01*
X1479041Y1041671D01*
X1477771Y1039992D01*
X1476566Y1038265D01*
X1475427Y1036493D01*
X1474357Y1034679D01*
X1473356Y1032826D01*
G37*

%LPD*%
D10*
G01*
X1522520Y692520D03*
G01*
X1522520Y1007480D03*
G01*
X1837480Y1007480D03*
G01*
X1837480Y692520D03*
D11*
G01*
X1680000Y850000D03*
D10*
G01*
X457480Y1007480D03*
G01*
X457480Y692520D03*
G01*
X142520Y692520D03*
G01*
X142520Y1007480D03*
D11*
G01*
X300000Y850000D03*
D10*
G01*
X1272520Y457480D03*
G01*
X1587480Y457480D03*
G01*
X1587480Y142520D03*
G01*
X1272520Y142520D03*
D11*
G01*
X1430000Y300000D03*
D12*
G01*
X814960Y559060D03*
G01*
X1053160Y556330D03*
G01*
X838580Y433070D03*
G01*
X716290Y480290D03*
D13*
G01*
X877440Y314810D03*
D12*
G01*
X677680Y302200D03*
G01*
X633950Y301410D03*
G01*
X75000Y500000D03*
G01*
X75000Y450000D03*
G01*
X75000Y400000D03*
G01*
X75000Y350000D03*
G01*
X75000Y300000D03*
G01*
X75000Y250000D03*
G01*
X125000Y500000D03*
G01*
X125000Y450000D03*
G01*
X125000Y400000D03*
G01*
X125000Y350000D03*
G01*
X125000Y300000D03*
G01*
X125000Y250000D03*
G01*
X275000Y75000D03*
G01*
X350000Y75000D03*
G01*
X425000Y75000D03*
G01*
X500000Y75000D03*
G01*
X575000Y75000D03*
G01*
X650000Y75000D03*
G01*
X725000Y75000D03*
G01*
X800000Y75000D03*
G01*
X875000Y75000D03*
G01*
X950000Y75000D03*
G01*
X1025000Y75000D03*
G01*
X1100000Y75000D03*
G01*
X125000Y1175000D03*
G01*
X175000Y1175000D03*
G01*
X225000Y1175000D03*
G01*
X275000Y1175000D03*
G01*
X325000Y1175000D03*
G01*
X375000Y1175000D03*
G01*
X425000Y1175000D03*
G01*
X475000Y1175000D03*
G01*
X525000Y1175000D03*
G01*
X575000Y1175000D03*
G01*
X125000Y1125000D03*
G01*
X175000Y1125000D03*
G01*
X225000Y1125000D03*
G01*
X275000Y1125000D03*
G01*
X325000Y1125000D03*
G01*
X375000Y1125000D03*
G01*
X425000Y1125000D03*
G01*
X475000Y1125000D03*
G01*
X525000Y1125000D03*
G01*
X575000Y1125000D03*
G01*
X225000Y1075000D03*
G01*
X275000Y1075000D03*
G01*
X325000Y1075000D03*
G01*
X375000Y1075000D03*
G01*
X325000Y1025000D03*
G01*
X275000Y1025000D03*
G01*
X225000Y1025000D03*
G01*
X375000Y1025000D03*
G01*
X375000Y975000D03*
G01*
X325000Y975000D03*
G01*
X275000Y975000D03*
G01*
X225000Y975000D03*
G01*
X175000Y925000D03*
G01*
X125000Y925000D03*
G01*
X125000Y875000D03*
G01*
X175000Y875000D03*
G01*
X175000Y825000D03*
G01*
X125000Y825000D03*
G01*
X125000Y775000D03*
G01*
X175000Y775000D03*
G01*
X225000Y775000D03*
G01*
X225000Y725000D03*
G01*
X275000Y725000D03*
G01*
X325000Y725000D03*
G01*
X375000Y725000D03*
G01*
X375000Y675000D03*
G01*
X325000Y675000D03*
G01*
X275000Y675000D03*
G01*
X225000Y675000D03*
G01*
X575000Y1075000D03*
G01*
X525000Y1075000D03*
G01*
X575000Y1025000D03*
G01*
X575000Y975000D03*
G01*
X575000Y925000D03*
G01*
X525000Y975000D03*
G01*
X525000Y925000D03*
G01*
X225000Y625000D03*
G01*
X275000Y625000D03*
G01*
X325000Y625000D03*
G01*
X375000Y625000D03*
G01*
X1175000Y75000D03*
G01*
X1350000Y75000D03*
G01*
X1400000Y75000D03*
G01*
X1450000Y75000D03*
G01*
X1500000Y75000D03*
G01*
X1500000Y125000D03*
G01*
X1450000Y125000D03*
G01*
X1400000Y125000D03*
G01*
X1350000Y125000D03*
G01*
X1350000Y175000D03*
G01*
X1400000Y175000D03*
G01*
X1450000Y175000D03*
G01*
X1500000Y175000D03*
G01*
X1175000Y125000D03*
G01*
X1175000Y175000D03*
G01*
X1125000Y175000D03*
G01*
X1125000Y125000D03*
G01*
X1675000Y75000D03*
G01*
X1725000Y75000D03*
G01*
X1725000Y125000D03*
G01*
X1675000Y125000D03*
G01*
X1675000Y175000D03*
G01*
X1725000Y175000D03*
G01*
X1725000Y225000D03*
G01*
X1675000Y225000D03*
G01*
X1675000Y275000D03*
G01*
X1725000Y275000D03*
G01*
X1725000Y325000D03*
G01*
X1675000Y325000D03*
G01*
X1675000Y375000D03*
G01*
X1725000Y375000D03*
G01*
X1725000Y425000D03*
G01*
X1675000Y425000D03*
G01*
X1675000Y475000D03*
G01*
X1725000Y475000D03*
G01*
X1625000Y325000D03*
G01*
X1625000Y275000D03*
G01*
X1625000Y225000D03*
G01*
X1575000Y325000D03*
G01*
X1575000Y275000D03*
G01*
X1500000Y475000D03*
G01*
X1450000Y475000D03*
G01*
X1400000Y475000D03*
G01*
X1350000Y475000D03*
G01*
X1350000Y425000D03*
G01*
X1400000Y425000D03*
G01*
X1450000Y425000D03*
G01*
X1500000Y425000D03*
G01*
X1175000Y425000D03*
G01*
X1175000Y475000D03*
G01*
X1125000Y475000D03*
G01*
X1125000Y425000D03*
G01*
X1075000Y425000D03*
G01*
X1075000Y475000D03*
G01*
X1175000Y550000D03*
G01*
X1125000Y550000D03*
G01*
X1025000Y475000D03*
G01*
X1025000Y425000D03*
G01*
X975000Y425000D03*
G01*
X975000Y475000D03*
G01*
X925000Y475000D03*
G01*
X925000Y425000D03*
G01*
X925000Y525000D03*
G01*
X925000Y575000D03*
G01*
X925000Y625000D03*
G01*
X925000Y675000D03*
G01*
X975000Y675000D03*
G01*
X975000Y625000D03*
G01*
X975000Y575000D03*
G01*
X975000Y525000D03*
G01*
X525000Y625000D03*
G01*
X575000Y625000D03*
G01*
X625000Y625000D03*
G01*
X625000Y575000D03*
G01*
X575000Y575000D03*
G01*
X525000Y575000D03*
G01*
X275000Y125000D03*
G01*
X350000Y125000D03*
G01*
X425000Y125000D03*
G01*
X500000Y125000D03*
G01*
X575000Y125000D03*
G01*
X575000Y175000D03*
G01*
X500000Y175000D03*
G01*
X425000Y175000D03*
G01*
X350000Y175000D03*
G01*
X1500000Y900000D03*
G01*
X1500000Y850000D03*
G01*
X1500000Y800000D03*
G01*
X1550000Y900000D03*
G01*
X1550000Y850000D03*
G01*
X1550000Y800000D03*
G01*
X1625000Y725000D03*
G01*
X1675000Y725000D03*
G01*
X1725000Y725000D03*
G01*
X1625000Y675000D03*
G01*
X1675000Y675000D03*
G01*
X1725000Y675000D03*
G01*
X1800000Y800000D03*
G01*
X1850000Y800000D03*
G01*
X1800000Y850000D03*
G01*
X1850000Y850000D03*
G01*
X1800000Y900000D03*
G01*
X1850000Y900000D03*
G01*
X1725000Y1050000D03*
G01*
X1725000Y1000000D03*
G01*
X1675000Y1050000D03*
G01*
X1675000Y1000000D03*
G01*
X1625000Y1050000D03*
G01*
X1625000Y1000000D03*
G01*
X375000Y775000D03*
G01*
X475000Y925000D03*
G01*
X425000Y925000D03*
G01*
X375000Y925000D03*
G01*
X425000Y775000D03*
G01*
X711000Y851000D03*
G01*
X770000Y708000D03*
G01*
X1050000Y723000D03*
G01*
X181000Y221000D03*
M02*
