G04 Layer: BoardOutlineLayer*
G04 EasyEDA v6.5.44, 2024-07-31 14:11:33*
G04 0a0e6e5985404cbc94c0c78cb0e903e1,401f954c81374b6587e5d63e119e93f9,10*
G04 Gerber Generator version 0.2*
G04 Scale: 100 percent, Rotated: No, Reflected: No *
G04 Dimensions in inches *
G04 leading zeros omitted , absolute positions ,3 integer and 6 decimal *
%FSLAX36Y36*%
%MOIN*%

%ADD10C,0.0100*%
%ADD11C,0.0010*%
D10*
X1950000Y0D02*
G01*
X50000Y0D01*
X0Y50000D02*
G01*
X0Y1200000D01*
X2000000Y1200000D02*
G01*
X2000000Y50000D01*
X50000Y1250000D02*
G01*
X1950000Y1250000D01*
G75*
G01*
X1950000Y1250000D02*
G02*
X2000000Y1200000I0J-50000D01*
G75*
G01*
X2000000Y50000D02*
G02*
X1950000Y0I-50000J0D01*
G75*
G01*
X50000Y0D02*
G02*
X0Y50000I0J50000D01*
G75*
G01*
X0Y1200000D02*
G02*
X50000Y1250000I50000J0D01*
D11*
G75*
G01*
X118110Y59055D02*
G03*
X177165Y118110I0J59055D01*
G75*
G01*
X177165Y118110D02*
G03*
X118110Y177165I-59055J0D01*
G75*
G01*
X118110Y177165D02*
G03*
X59055Y118110I0J-59055D01*
G75*
G01*
X59055Y118110D02*
G03*
X118110Y59055I59055J0D01*
X118110Y59055D02*
G01*
X118110Y59055D01*
X118110Y59055D02*
G01*
X118110Y59055D01*
G75*
G01*
X1850390Y59055D02*
G03*
X1909445Y118110I0J59055D01*
G75*
G01*
X1909445Y118110D02*
G03*
X1850390Y177165I-59055J0D01*
G75*
G01*
X1850390Y177165D02*
G03*
X1791335Y118110I0J-59055D01*
G75*
G01*
X1791335Y118110D02*
G03*
X1850390Y59055I59055J0D01*
X1850389Y59055D02*
G01*
X1850389Y59055D01*
X1850389Y59055D02*
G01*
X1850389Y59055D01*

%LPD*%
M02*
